<svg width="33" height="32" viewBox="0 0 33 32" fill="none" xmlns="http://www.w3.org/2000/svg">
<path d="M29.4749 0.581444H4.33201C2.43916 0.581444 0.903442 2.04735 0.903442 3.85417V27.8542C0.903442 29.661 2.43916 31.1269 4.33201 31.1269H29.4749C31.3677 31.1269 32.9034 29.661 32.9034 27.8542V3.85417C32.9034 2.04735 31.3677 0.581444 29.4749 0.581444ZM20.7106 26.7428C20.1106 26.8451 19.8892 26.4905 19.8892 26.1974C19.8892 25.8292 19.9034 23.9474 19.9034 22.4269C19.9034 21.3633 19.532 20.6883 19.0963 20.3337C21.7392 20.0542 24.5249 19.7064 24.5249 15.3496C24.5249 14.1087 24.0606 13.4883 23.3034 12.6905C23.4249 12.3974 23.832 11.1905 23.182 9.62235C22.1892 9.32917 19.9177 10.8428 19.9177 10.8428C18.9749 10.5905 17.9534 10.461 16.9463 10.461C15.9392 10.461 14.9177 10.5905 13.9749 10.8428C13.9749 10.8428 11.7034 9.32917 10.7106 9.62235C10.0606 11.1837 10.4606 12.3905 10.5892 12.6905C9.83201 13.4883 9.47487 14.1087 9.47487 15.3496C9.47487 19.686 12.1392 20.0542 14.782 20.3337C14.4392 20.6269 14.132 21.1314 14.0249 21.8542C13.3463 22.1474 11.6106 22.6519 10.5749 20.9064C9.92487 19.8292 8.75344 19.7405 8.75344 19.7405C7.5963 19.7269 8.67487 20.436 8.67487 20.436C9.4463 20.7769 9.98916 22.086 9.98916 22.086C10.682 24.111 13.9963 23.4292 13.9963 23.4292C13.9963 24.3769 14.0106 25.9178 14.0106 26.1974C14.0106 26.4905 13.7963 26.8451 13.1892 26.7428C8.47487 25.236 5.17487 20.9542 5.17487 15.9496C5.17487 9.69053 10.1892 4.93826 16.7463 4.93826C23.3034 4.93826 28.6177 9.69053 28.6177 15.9496C28.6249 20.9542 25.4249 25.2428 20.7106 26.7428ZM13.7034 22.5769C13.5677 22.6042 13.4392 22.5496 13.4249 22.461C13.4106 22.3587 13.5034 22.2701 13.6392 22.2428C13.7749 22.2292 13.9034 22.2837 13.9177 22.3724C13.9392 22.461 13.8463 22.5496 13.7034 22.5769ZM13.0249 22.5155C13.0249 22.6042 12.9177 22.6792 12.7749 22.6792C12.6177 22.6928 12.5106 22.6178 12.5106 22.5155C12.5106 22.4269 12.6177 22.3519 12.7606 22.3519C12.8963 22.3383 13.0249 22.4133 13.0249 22.5155ZM12.0463 22.4405C12.0177 22.5292 11.8749 22.5701 11.7534 22.5292C11.6177 22.5019 11.5249 22.3996 11.5534 22.311C11.582 22.2224 11.7249 22.1814 11.8463 22.2087C11.9892 22.2496 12.082 22.3519 12.0463 22.4405ZM11.1677 22.0724C11.1034 22.1474 10.9677 22.1337 10.8606 22.0314C10.7534 21.9428 10.7249 21.8133 10.7963 21.7519C10.8606 21.6769 10.9963 21.6905 11.1034 21.7928C11.1963 21.8814 11.232 22.0178 11.1677 22.0724ZM10.5177 21.4519C10.4534 21.4928 10.332 21.4519 10.2534 21.3496C10.1749 21.2474 10.1749 21.1314 10.2534 21.0837C10.332 21.0224 10.4534 21.0701 10.5177 21.1724C10.5963 21.2746 10.5963 21.3974 10.5177 21.4519V21.4519ZM10.0534 20.7905C9.98916 20.8519 9.88201 20.8178 9.80344 20.7496C9.72487 20.661 9.71059 20.5587 9.77487 20.511C9.83916 20.4496 9.9463 20.4837 10.0249 20.5519C10.1034 20.6405 10.1177 20.7428 10.0534 20.7905ZM9.57487 20.286C9.5463 20.3474 9.45344 20.361 9.37487 20.3133C9.28201 20.2724 9.23916 20.1974 9.26773 20.136C9.2963 20.0951 9.37487 20.0746 9.46773 20.1087C9.56059 20.1564 9.60344 20.2314 9.57487 20.286Z" fill="#46FBFB"/>
</svg>
