<svg width="359" height="64" viewBox="0 0 359 64" fill="none" xmlns="http://www.w3.org/2000/svg">
<path d="M0 42.56L25.7521 57.28L51.2493 44.16L77.0014 59.2L102.499 56L128.251 56.64L153.748 49.6L179.5 59.52L205.252 58.88L230.749 51.84L256.501 57.92L281.999 35.2L307.751 35.52L333.248 47.36L359 31.68V0H333.248H307.751H281.999H256.501H230.749H205.252H179.5H153.748H128.251H102.499H77.0014H51.2493H25.7521H0V42.56Z" fill="#B8C2CC"/>
<path d="M0 45.75L25.7521 37.12L51.2493 43.2L77.0014 35.52L102.499 35.84L128.251 24.96L153.748 41.6L179.5 43.84L205.252 46.4L230.749 45.44L256.501 32.32L281.999 24.32L307.751 25.6L333.248 23.36L359 45.75V0H333.248H307.751H281.999H256.501H230.749H205.252H179.5H153.748H128.251H102.499H77.0014H51.2493H25.7521H0V45.75Z" fill="#828A92"/>
<path d="M0 21.75L25.7521 12.16L51.2493 28.48L77.0014 12.8L102.499 26.56L128.251 28.16L153.748 13.44L179.5 20.8L205.252 24L230.749 19.52L256.501 32.96L281.999 23.36L307.751 33.6L333.248 26.24L359 21.75V0H333.248H307.751H281.999H256.501H230.749H205.252H179.5H153.748H128.251H102.499H77.0014H51.2493H25.7521H0V21.75Z" fill="#4F555D"/>
<path d="M0 18.5L25.7521 8.32L51.2493 8L77.0014 21.44L102.499 17.92L128.251 7.04L153.748 13.44L179.5 16.64L205.252 9.92L230.749 2.56L256.501 3.52L281.999 19.84L307.751 14.72L333.248 16.64L359 18.5V0H333.248H307.751H281.999H256.501H230.749H205.252H179.5H153.748H128.251H102.499H77.0014H51.2493H25.7521H0V18.5Z" fill="#21262C"/>
</svg>
