<svg width="359" height="82" viewBox="0 0 359 82" fill="none" xmlns="http://www.w3.org/2000/svg">
<g clip-path="url(#clip0_114:215)">
<path d="M359 40.4533L323.007 63.96L287.013 54.6667L251.487 53.5733L215.493 40.4533L179.5 47.56L143.507 48.6533L107.513 66.6933L71.987 70.52L35.9935 55.2133L7.62939e-06 43.7333V-5.24521e-06H35.9935L71.987 -5.24521e-06H107.513H143.507H179.5L215.493 -5.24521e-06H251.487H287.013L323.007 -5.24521e-06H359V40.4533Z" fill="#CED8FF"/>
<path d="M359 48.1067L323.007 34.9867L287.013 48.6533L251.487 34.9867L215.493 50.2933L179.5 33.3467L143.507 48.1067L107.513 39.36L71.987 37.1733L35.9935 49.2L17.5293 53.5733L7.62939e-06 48.1067V-1.07288e-06H35.9935L71.987 -1.07288e-06L107.513 -1.07288e-06H143.507L179.5 -1.07288e-06L215.493 -1.07288e-06H251.487L287.013 -1.07288e-06H323.007L359 -1.07288e-06V48.1067Z" fill="#869DCB"/>
<path d="M359 27.88L323.007 40.4533L287.013 23.5067L251.487 46.4667L215.493 39.36L179.5 28.4267L143.507 44.8267L107.513 43.1867L71.987 29.52L35.9935 24.6L16.8281 41.2733L7.62939e-06 28.4267V6.85453e-06H35.9935L71.987 6.85453e-06L107.513 6.85453e-06H143.507L179.5 6.85453e-06L215.493 6.85453e-06H251.487L287.013 6.85453e-06H323.007L359 6.85453e-06V27.88Z" fill="#5A75AB"/>
<path d="M359 32.2533L323.007 25.1467L287.013 33.3466L251.487 25.6933L215.493 16.4L179.5 22.96L143.507 31.16L107.513 29.52L71.987 33.3466L35.9935 23.5067L7.62939e-06 32.2533V-1.11461e-05H35.9935L71.987 -1.11461e-05L107.513 -1.11461e-05H143.507L179.5 -1.11461e-05L215.493 -1.11461e-05H251.487L287.013 -1.11461e-05H323.007L359 -1.11461e-05V32.2533Z" fill="#32415F"/>
<path d="M359 13.12L323.007 9.84L287.013 17.4933L251.487 14.2133L215.493 9.29333L179.5 12.0267L143.507 22.4133L107.513 8.74667L71.987 15.8533L35.9935 11.48L7.62939e-06 13.12V1.01328e-06L35.9935 1.01328e-06L71.987 1.01328e-06L107.513 1.01328e-06L143.507 1.01328e-06L179.5 1.01328e-06L215.493 1.01328e-06L251.487 1.01328e-06L287.013 1.01328e-06L323.007 1.01328e-06L359 1.01328e-06V13.12Z" fill="#1E2739"/>
</g>
<defs>
<clipPath id="clip0_114:215">
<rect width="359" height="82" fill="white" transform="translate(359 82) rotate(-180)"/>
</clipPath>
</defs>
</svg>
