<svg width="1408" height="128" viewBox="0 0 1408 128" fill="none" xmlns="http://www.w3.org/2000/svg">
<path d="M0 85.12L101 114.56L201 88.32L302 118.4L402 112L503 113.28L603 99.2L704 119.04L805 117.76L905 103.68L1006 115.84L1106 70.4L1207 71.04L1307 94.72L1408 63.36V0H1307H1207H1106H1006H905H805H704H603H503H402H302H201H101H0V85.12Z" fill="#B8C2CC"/>
<path d="M0 91.5L101 74.24L201 86.4L302 71.04L402 71.68L503 49.92L603 83.2L704 87.68L805 92.8L905 90.88L1006 64.64L1106 48.64L1207 51.2L1307 46.72L1408 91.5V0H1307H1207H1106H1006H905H805H704H603H503H402H302H201H101H0V91.5Z" fill="#828A92"/>
<path d="M0 43.5L101 24.32L201 56.96L302 25.6L402 53.12L503 56.32L603 26.88L704 41.6L805 48L905 39.04L1006 65.92L1106 46.72L1207 67.2L1307 52.48L1408 43.5V0H1307H1207H1106H1006H905H805H704H603H503H402H302H201H101H0V43.5Z" fill="#4F555D"/>
<path d="M0 37L101 16.64L201 16L302 42.88L402 35.84L503 14.08L603 26.88L704 33.28L805 19.84L905 5.12L1006 7.04L1106 39.68L1207 29.44L1307 33.28L1408 37V0H1307H1207H1106H1006H905H805H704H603H503H402H302H201H101H0V37Z" fill="#21262C"/>
</svg>
