<svg width="768" height="150" viewBox="0 0 768 150" fill="none" xmlns="http://www.w3.org/2000/svg">
<g clip-path="url(#clip0_108:326)">
<path d="M768 74L691 117L614 100L538 98L461 74L384 87L307 89L230 122L154 129L77 101L0 80V0H77H154L230 0H307H384L461 0H538H614L691 0H768V74Z" fill="#CED8FF"/>
<path d="M768 88L691 64L614 89L538 64L461 92L384 61L307 88L230 72L154 68L77 90L37.5 98L0 88V0L77 0L154 0H230L307 0L384 0H461L538 0L614 0H691L768 0V88Z" fill="#869DCB"/>
<path d="M768 51L691 74L614 43L538 85L461 72L384 52L307 82L230 79L154 54L77 45L36 75.5L0 52V0L77 0L154 0H230L307 0L384 0H461L538 0L614 0H691L768 0V51Z" fill="#5A75AB"/>
<path d="M768 59L691 46L614 61L538 47L461 30L384 42L307 57L230 54L154 61L77 43L0 59V0L77 0L154 0L230 0L307 0L384 0L461 0L538 0L614 0L691 0L768 0V59Z" fill="#32415F"/>
<path d="M768 24L691 18L614 32L538 26L461 17L384 22L307 41L230 16L154 29L77 21L0 24V0L77 0L154 0L230 0L307 0L384 0L461 0L538 0L614 0L691 0L768 0V24Z" fill="#1E2739"/>
</g>
<defs>
<clipPath id="clip0_108:326">
<rect width="768" height="150" fill="white" transform="translate(768 150) rotate(-180)"/>
</clipPath>
</defs>
</svg>
