<svg width="400" height="120" viewBox="0 0 400 120" fill="none" xmlns="http://www.w3.org/2000/svg">
<g clip-path="url(#clip0)">
<path d="M0 26.087L36 43.0435L71.5 27.5L100.5 14.3478L138.5 26.087L182 35.2174L218 22L255 41L291 14.3478L334 26.087L364 43.0435L400 26.087V121.304H364H327H291H255H218H182H145H109H73H36H0V26.087Z" fill="#92F5F4"/>
<path d="M0 54.7826L36 66.5218L73 69.1304L109 44.3478L145 60L182 58.6957L218 56.087L255 58.6957H291L327 79.5652L364 74.3478L400 45.6522V121.304H364H327H291H255H218H182H145H109H73H36H0V54.7826Z" fill="#48F0EE"/>
<path d="M0 79.5652L36 74.3478L73 84.7826L109 91.3043L145 83.4783L182 90L218 86.087L255 101.739L291 83.4783L327 88.6956L364 109.565L400 69.1304V121.304H364H327H291H255H218H182H145H109H73H36H0V79.5652Z" fill="#31B4B2"/>
</g>
<defs>
<clipPath id="clip0">
<rect width="400" height="120" fill="white"/>
</clipPath>
</defs>
</svg>
