<svg width="900" height="175" viewBox="0 0 900 175" fill="none" xmlns="http://www.w3.org/2000/svg">
<g clip-path="url(#clip0)">
<path d="M0 41L64 36L129 22L193 56L257 23L321 43L386 20L450 38L514 59L579 9L643 29L707 70L771 66L836 40L900 41V176H836H771H707H643H579H514H450H386H321H257H193H129H64H0V41Z" fill="#606F7B"/>
<path d="M0 103L64 73L129 47L193 48L257 44L321 93L386 65L450 47L514 59L579 70L643 42L707 44L771 86L836 84L900 97V176H836H771H707H643H579H514H450H386H321H257H193H129H64H0V103Z" fill="#4A555F"/>
<path d="M0 81L64 109L129 76L193 117L257 97L321 123L386 134L450 116L514 117L579 104L643 134L707 115L771 131L836 118L900 81V176H836H771H707H643H579H514H450H386H321H257H193H129H64H0V81Z" fill="#353D45"/>
<path d="M0 147L64 155L129 129L193 124L257 134L321 124L386 129L450 114L514 118L579 141L643 119L707 139L771 145L836 127L900 147V176H836H771H707H643H579H514H450H386H321H257H193H129H64H0V147Z" fill="#21262C"/>
</g>
<defs>
<clipPath id="clip0">
<rect width="900" height="175" fill="white"/>
</clipPath>
</defs>
</svg>
