<svg width="33" height="36" viewBox="0 0 33 36" fill="none" xmlns="http://www.w3.org/2000/svg">
<g clip-path="url(#clip0)">
<path d="M20.5984 12.8705C24.3326 16.9484 24.2813 23.4863 20.6209 27.5017C20.614 27.5099 20.6059 27.5187 20.5984 27.5269L16.3984 32.1087C12.694 36.1499 6.66718 36.1493 2.96337 32.1087C-0.741005 28.0683 -0.741005 21.4928 2.96337 17.4524L5.2825 14.9224C5.8975 14.2515 6.95662 14.6974 6.98837 15.6455C7.02887 16.8539 7.2275 18.0678 7.594 19.2402C7.71812 19.6371 7.62943 20.0762 7.35756 20.3728L6.53962 21.2651C4.788 23.1759 4.73306 26.2874 6.46743 28.2169C8.21893 30.1655 11.0978 30.1771 12.8627 28.2517L17.0627 23.6705C18.8247 21.7484 18.8173 18.6417 17.0627 16.7276C16.8314 16.4757 16.5984 16.28 16.4164 16.1433C16.2877 16.0469 16.1814 15.9189 16.106 15.7697C16.0306 15.6205 15.9882 15.4541 15.9822 15.2838C15.9575 14.5634 16.1915 13.8209 16.7134 13.2516L18.0292 11.816C18.3743 11.4396 18.9156 11.3934 19.3157 11.698C19.774 12.0471 20.2032 12.4394 20.5984 12.8705V12.8705ZM29.4068 3.26086C25.703 -0.779726 19.6762 -0.780271 15.9718 3.26086L11.7718 7.84268C11.7643 7.85086 11.7562 7.85973 11.7493 7.86791C8.08893 11.8833 8.03762 18.4212 11.7718 22.499C12.167 22.9301 12.5962 23.3225 13.0544 23.6715C13.4545 23.9761 13.9959 23.9298 14.3409 23.5535L15.6567 22.1179C16.1786 21.5486 16.4126 20.8062 16.3879 20.0857C16.3819 19.9154 16.3395 19.749 16.2641 19.5998C16.1887 19.4506 16.0824 19.3226 15.9537 19.2262C15.7717 19.0895 15.5387 18.8938 15.3074 18.6419C13.5528 16.7279 13.5454 13.6211 15.3074 11.699L19.5074 7.11784C21.2723 5.19245 24.1511 5.20404 25.9027 7.15261C27.6371 9.08216 27.5822 12.1936 25.8305 14.1044L25.0126 14.9967C24.7407 15.2933 24.652 15.7324 24.7761 16.1294C25.1426 17.3017 25.3412 18.5157 25.3817 19.724C25.4136 20.6721 26.4726 21.118 27.0876 20.4471L29.4067 17.9172C33.1112 13.8768 33.1112 7.30132 29.4068 3.26086V3.26086Z" fill="#46FBFB"/>
</g>
<defs>
<clipPath id="clip0">
<rect width="32" height="34.9091" fill="white" transform="translate(0.185577 0.230713)"/>
</clipPath>
</defs>
</svg>
