<svg width="266" height="98" viewBox="0 0 266 98" fill="none" xmlns="http://www.w3.org/2000/svg">
<path d="M0 79.2711L26.6 64.5314L53.2 56.802L79.8 84.4839L106.4 62.1946L133 75.4963L159.6 80.5294L186.2 92.2133L212.8 91.1348L239.4 58.5995L266 81.7877V0H239.4H212.8H186.2H159.6H133H106.4H79.8H53.2H26.6H0V79.2711Z" fill="#61CDB6"/>
<path d="M0 41.1635L26.6 46.1965L53.2 47.2751L79.8 59.3185L106.4 37.2089L133 55.5437L159.6 72.6202L186.2 68.8454L212.8 56.802L239.4 43.1407L266 75.676V0H239.4H212.8H186.2H159.6H133H106.4H79.8H53.2H26.6H0V41.1635Z" fill="#599DAB"/>
<path d="M0 25.8844L26.6 58.7793L53.2 36.4899L79.8 60.0375L106.4 28.0415L133 44.399L159.6 46.9156L186.2 30.1985L212.8 25.3452L239.4 41.3432L266 54.2854V0H239.4H212.8H186.2H159.6H133H106.4H79.8H53.2H26.6H0V25.8844Z" fill="#427175"/>
<path d="M0 44.5788L26.6 43.68L53.2 25.5249L79.8 15.998L106.4 34.3328L133 17.9753L159.6 34.8721L186.2 31.4568L212.8 30.7378L239.4 19.9526L266 40.2647V0H239.4H212.8H186.2H159.6H133H106.4H79.8H53.2H26.6H0V44.5788Z" fill="#1B3948"/>
<path d="M0 27.8617L26.6 27.3225L53.2 30.3783L79.8 9.34716L106.4 9.88642L133 30.3783L159.6 4.31407L186.2 29.12L212.8 19.7728L239.4 24.4464L266 6.29136V0H239.4H212.8H186.2H159.6H133H106.4H79.8H53.2H26.6H0V27.8617Z" fill="#1B3948"/>
<mask id="path-6-outside-1_16:200" maskUnits="userSpaceOnUse" x="39.584" y="19.048" width="186" height="36" fill="black">
<rect fill="white" x="39.584" y="19.048" width="186" height="36"/>
<path d="M47.736 53.2C47.192 53.2 46.76 53.0656 46.44 52.7968C46.12 52.4981 45.928 52.1397 45.864 51.7216L40.632 23.0944C40.6 23.0048 40.584 22.9002 40.584 22.7808C40.584 22.5418 40.68 22.3328 40.872 22.1536C41.096 21.9445 41.336 21.84 41.592 21.84H47.544C48.44 21.84 48.936 22.1685 49.032 22.8256L52.152 40.2976L55.608 29.9936C55.96 29.1872 56.488 28.784 57.192 28.784H60.648C61.448 28.784 61.976 29.1872 62.232 29.9936L65.688 40.2976L68.808 22.8256C68.904 22.1685 69.4 21.84 70.296 21.84H76.248C76.536 21.84 76.776 21.9445 76.968 22.1536C77.192 22.3328 77.304 22.5418 77.304 22.7808L77.256 23.0944L72.024 51.7216C71.96 52.1397 71.752 52.4981 71.4 52.7968C71.08 53.0656 70.664 53.2 70.152 53.2H65.592C65.08 53.2 64.68 53.0805 64.392 52.8416C64.104 52.6026 63.896 52.3338 63.768 52.0352L58.92 39.2224L54.072 52.0352C53.784 52.8117 53.192 53.2 52.296 53.2H47.736Z"/>
<path d="M81.9146 26.544C81.5626 26.544 81.2746 26.4394 81.0506 26.2304C80.8266 26.0213 80.7146 25.7525 80.7146 25.424V21.392C80.7146 21.0634 80.8266 20.7946 81.0506 20.5856C81.2746 20.3765 81.5626 20.272 81.9146 20.272H87.6746C88.0266 20.272 88.3146 20.3765 88.5386 20.5856C88.7626 20.7946 88.8746 21.0634 88.8746 21.392V25.424C88.8746 25.7525 88.7626 26.0213 88.5386 26.2304C88.3146 26.4394 88.0266 26.544 87.6746 26.544H81.9146ZM81.9626 53.2C81.6106 53.2 81.3226 53.0954 81.0986 52.8864C80.8746 52.6773 80.7626 52.4085 80.7626 52.08V31.024C80.7626 30.6954 80.8746 30.4266 81.0986 30.2176C81.3226 30.0085 81.6106 29.904 81.9626 29.904H87.6266C87.9786 29.904 88.2666 30.0085 88.4906 30.2176C88.7146 30.4266 88.8266 30.6954 88.8266 31.024V52.08C88.8266 52.3786 88.7146 52.6474 88.4906 52.8864C88.2666 53.0954 87.9786 53.2 87.6266 53.2H81.9626Z"/>
<path d="M94.737 53.2C94.417 53.2 94.129 53.0954 93.873 52.8864C93.649 52.6474 93.537 52.3786 93.537 52.08V22.512C93.537 22.1834 93.649 21.9146 93.873 21.7056C94.129 21.4965 94.417 21.392 94.737 21.392H100.401C100.753 21.392 101.041 21.4965 101.265 21.7056C101.489 21.9146 101.601 22.1834 101.601 22.512V52.08C101.601 52.4085 101.489 52.6773 101.265 52.8864C101.041 53.0954 100.753 53.2 100.401 53.2H94.737Z"/>
<path d="M107.511 53.2C107.191 53.2 106.903 53.0954 106.647 52.8864C106.423 52.6474 106.311 52.3786 106.311 52.08V22.512C106.311 22.1834 106.423 21.9146 106.647 21.7056C106.903 21.4965 107.191 21.392 107.511 21.392H113.175C113.527 21.392 113.815 21.4965 114.039 21.7056C114.263 21.9146 114.375 22.1834 114.375 22.512V52.08C114.375 52.4085 114.263 52.6773 114.039 52.8864C113.815 53.0954 113.527 53.2 113.175 53.2H107.511Z"/>
<path d="M130.072 53.2C129.752 53.2 129.464 53.0954 129.208 52.8864C128.984 52.6474 128.872 52.3786 128.872 52.08V22.96C128.872 22.6314 128.984 22.3626 129.208 22.1536C129.464 21.9445 129.752 21.84 130.072 21.84H136.409C136.761 21.84 137.048 21.9445 137.272 22.1536C137.496 22.3626 137.608 22.6314 137.608 22.96V46.4352H152.152C152.504 46.4352 152.792 46.5546 153.016 46.7936C153.24 47.0026 153.353 47.2714 153.353 47.6V52.08C153.353 52.3786 153.24 52.6474 153.016 52.8864C152.792 53.0954 152.504 53.2 152.152 53.2H130.072Z"/>
<path d="M164.818 53.648C162.002 53.648 159.73 52.7669 158.002 51.0048C156.274 49.2128 155.41 46.7189 155.41 43.5232V31.024C155.41 30.6954 155.522 30.4266 155.746 30.2176C155.97 30.0085 156.258 29.904 156.61 29.904H162.61C162.962 29.904 163.25 30.0085 163.474 30.2176C163.73 30.4266 163.858 30.6954 163.858 31.024V43.2544C163.858 46.1813 165.25 47.6448 168.034 47.6448C169.378 47.6448 170.434 47.2565 171.202 46.48C171.97 45.7034 172.354 44.6282 172.354 43.2544V31.024C172.354 30.6954 172.466 30.4266 172.69 30.2176C172.946 30.0085 173.234 29.904 173.554 29.904H179.554C179.906 29.904 180.194 30.0085 180.418 30.2176C180.642 30.4266 180.754 30.6954 180.754 31.024V52.08C180.754 52.3786 180.642 52.6474 180.418 52.8864C180.194 53.0954 179.906 53.2 179.554 53.2H173.986C173.666 53.2 173.378 53.0954 173.122 52.8864C172.898 52.6474 172.786 52.3786 172.786 52.08V50.3776C171.122 52.5578 168.466 53.648 164.818 53.648Z"/>
<path d="M189.472 53.2C189.152 53.2 188.864 53.0954 188.608 52.8864C188.384 52.6474 188.272 52.3786 188.272 52.08V35.7728H184.624C184.272 35.7728 183.984 35.6682 183.76 35.4592C183.536 35.2501 183.424 34.9813 183.424 34.6528V31.024C183.424 30.6954 183.536 30.4266 183.76 30.2176C183.984 30.0085 184.272 29.904 184.624 29.904H188.272V28.4704C188.272 25.5136 189.168 23.3781 190.96 22.064C192.784 20.72 195.392 20.048 198.784 20.048H202.528C202.88 20.048 203.168 20.1525 203.392 20.3616C203.616 20.5706 203.728 20.8394 203.728 21.168V24.7968C203.728 25.0954 203.616 25.3642 203.392 25.6032C203.168 25.8122 202.88 25.9168 202.528 25.9168H199.168C198.112 25.9168 197.36 26.1557 196.912 26.6336C196.464 27.0816 196.24 27.7685 196.24 28.6944V29.904H202.048C202.4 29.904 202.688 30.0085 202.912 30.2176C203.136 30.4266 203.248 30.6954 203.248 31.024V34.6528C203.248 34.9514 203.136 35.2202 202.912 35.4592C202.688 35.6682 202.4 35.7728 202.048 35.7728H196.24V52.08C196.24 52.3786 196.128 52.6474 195.904 52.8864C195.68 53.0954 195.392 53.2 195.04 53.2H189.472Z"/>
<path d="M218.529 53.2C211.905 53.2 208.593 50.2581 208.593 44.3744V35.7728H204.849C204.497 35.7728 204.193 35.6682 203.937 35.4592C203.713 35.2501 203.601 34.9813 203.601 34.6528V31.024C203.601 30.6954 203.713 30.4266 203.937 30.2176C204.193 30.0085 204.497 29.904 204.849 29.904H208.593V22.512C208.593 22.1834 208.705 21.9146 208.929 21.7056C209.185 21.4965 209.473 21.392 209.793 21.392H215.361C215.713 21.392 216.001 21.4965 216.225 21.7056C216.449 21.9146 216.561 22.1834 216.561 22.512V29.904H222.561C222.913 29.904 223.201 30.0085 223.425 30.2176C223.681 30.4266 223.809 30.6954 223.809 31.024V34.6528C223.809 34.9813 223.681 35.2501 223.425 35.4592C223.201 35.6682 222.913 35.7728 222.561 35.7728H216.561V43.7472C216.561 45.9573 217.473 47.0624 219.297 47.0624H222.993C223.345 47.0624 223.633 47.1669 223.857 47.376C224.081 47.585 224.193 47.8538 224.193 48.1824V52.08C224.193 52.3786 224.081 52.6474 223.857 52.8864C223.633 53.0954 223.345 53.2 222.993 53.2H218.529Z"/>
</mask>
<path d="M47.736 53.2C47.192 53.2 46.76 53.0656 46.44 52.7968C46.12 52.4981 45.928 52.1397 45.864 51.7216L40.632 23.0944C40.6 23.0048 40.584 22.9002 40.584 22.7808C40.584 22.5418 40.68 22.3328 40.872 22.1536C41.096 21.9445 41.336 21.84 41.592 21.84H47.544C48.44 21.84 48.936 22.1685 49.032 22.8256L52.152 40.2976L55.608 29.9936C55.96 29.1872 56.488 28.784 57.192 28.784H60.648C61.448 28.784 61.976 29.1872 62.232 29.9936L65.688 40.2976L68.808 22.8256C68.904 22.1685 69.4 21.84 70.296 21.84H76.248C76.536 21.84 76.776 21.9445 76.968 22.1536C77.192 22.3328 77.304 22.5418 77.304 22.7808L77.256 23.0944L72.024 51.7216C71.96 52.1397 71.752 52.4981 71.4 52.7968C71.08 53.0656 70.664 53.2 70.152 53.2H65.592C65.08 53.2 64.68 53.0805 64.392 52.8416C64.104 52.6026 63.896 52.3338 63.768 52.0352L58.92 39.2224L54.072 52.0352C53.784 52.8117 53.192 53.2 52.296 53.2H47.736Z" fill="white"/>
<path d="M81.9146 26.544C81.5626 26.544 81.2746 26.4394 81.0506 26.2304C80.8266 26.0213 80.7146 25.7525 80.7146 25.424V21.392C80.7146 21.0634 80.8266 20.7946 81.0506 20.5856C81.2746 20.3765 81.5626 20.272 81.9146 20.272H87.6746C88.0266 20.272 88.3146 20.3765 88.5386 20.5856C88.7626 20.7946 88.8746 21.0634 88.8746 21.392V25.424C88.8746 25.7525 88.7626 26.0213 88.5386 26.2304C88.3146 26.4394 88.0266 26.544 87.6746 26.544H81.9146ZM81.9626 53.2C81.6106 53.2 81.3226 53.0954 81.0986 52.8864C80.8746 52.6773 80.7626 52.4085 80.7626 52.08V31.024C80.7626 30.6954 80.8746 30.4266 81.0986 30.2176C81.3226 30.0085 81.6106 29.904 81.9626 29.904H87.6266C87.9786 29.904 88.2666 30.0085 88.4906 30.2176C88.7146 30.4266 88.8266 30.6954 88.8266 31.024V52.08C88.8266 52.3786 88.7146 52.6474 88.4906 52.8864C88.2666 53.0954 87.9786 53.2 87.6266 53.2H81.9626Z" fill="white"/>
<path d="M94.737 53.2C94.417 53.2 94.129 53.0954 93.873 52.8864C93.649 52.6474 93.537 52.3786 93.537 52.08V22.512C93.537 22.1834 93.649 21.9146 93.873 21.7056C94.129 21.4965 94.417 21.392 94.737 21.392H100.401C100.753 21.392 101.041 21.4965 101.265 21.7056C101.489 21.9146 101.601 22.1834 101.601 22.512V52.08C101.601 52.4085 101.489 52.6773 101.265 52.8864C101.041 53.0954 100.753 53.2 100.401 53.2H94.737Z" fill="white"/>
<path d="M107.511 53.2C107.191 53.2 106.903 53.0954 106.647 52.8864C106.423 52.6474 106.311 52.3786 106.311 52.08V22.512C106.311 22.1834 106.423 21.9146 106.647 21.7056C106.903 21.4965 107.191 21.392 107.511 21.392H113.175C113.527 21.392 113.815 21.4965 114.039 21.7056C114.263 21.9146 114.375 22.1834 114.375 22.512V52.08C114.375 52.4085 114.263 52.6773 114.039 52.8864C113.815 53.0954 113.527 53.2 113.175 53.2H107.511Z" fill="white"/>
<path d="M130.072 53.2C129.752 53.2 129.464 53.0954 129.208 52.8864C128.984 52.6474 128.872 52.3786 128.872 52.08V22.96C128.872 22.6314 128.984 22.3626 129.208 22.1536C129.464 21.9445 129.752 21.84 130.072 21.84H136.409C136.761 21.84 137.048 21.9445 137.272 22.1536C137.496 22.3626 137.608 22.6314 137.608 22.96V46.4352H152.152C152.504 46.4352 152.792 46.5546 153.016 46.7936C153.24 47.0026 153.353 47.2714 153.353 47.6V52.08C153.353 52.3786 153.24 52.6474 153.016 52.8864C152.792 53.0954 152.504 53.2 152.152 53.2H130.072Z" fill="white"/>
<path d="M164.818 53.648C162.002 53.648 159.73 52.7669 158.002 51.0048C156.274 49.2128 155.41 46.7189 155.41 43.5232V31.024C155.41 30.6954 155.522 30.4266 155.746 30.2176C155.97 30.0085 156.258 29.904 156.61 29.904H162.61C162.962 29.904 163.25 30.0085 163.474 30.2176C163.73 30.4266 163.858 30.6954 163.858 31.024V43.2544C163.858 46.1813 165.25 47.6448 168.034 47.6448C169.378 47.6448 170.434 47.2565 171.202 46.48C171.97 45.7034 172.354 44.6282 172.354 43.2544V31.024C172.354 30.6954 172.466 30.4266 172.69 30.2176C172.946 30.0085 173.234 29.904 173.554 29.904H179.554C179.906 29.904 180.194 30.0085 180.418 30.2176C180.642 30.4266 180.754 30.6954 180.754 31.024V52.08C180.754 52.3786 180.642 52.6474 180.418 52.8864C180.194 53.0954 179.906 53.2 179.554 53.2H173.986C173.666 53.2 173.378 53.0954 173.122 52.8864C172.898 52.6474 172.786 52.3786 172.786 52.08V50.3776C171.122 52.5578 168.466 53.648 164.818 53.648Z" fill="white"/>
<path d="M189.472 53.2C189.152 53.2 188.864 53.0954 188.608 52.8864C188.384 52.6474 188.272 52.3786 188.272 52.08V35.7728H184.624C184.272 35.7728 183.984 35.6682 183.76 35.4592C183.536 35.2501 183.424 34.9813 183.424 34.6528V31.024C183.424 30.6954 183.536 30.4266 183.76 30.2176C183.984 30.0085 184.272 29.904 184.624 29.904H188.272V28.4704C188.272 25.5136 189.168 23.3781 190.96 22.064C192.784 20.72 195.392 20.048 198.784 20.048H202.528C202.88 20.048 203.168 20.1525 203.392 20.3616C203.616 20.5706 203.728 20.8394 203.728 21.168V24.7968C203.728 25.0954 203.616 25.3642 203.392 25.6032C203.168 25.8122 202.88 25.9168 202.528 25.9168H199.168C198.112 25.9168 197.36 26.1557 196.912 26.6336C196.464 27.0816 196.24 27.7685 196.24 28.6944V29.904H202.048C202.4 29.904 202.688 30.0085 202.912 30.2176C203.136 30.4266 203.248 30.6954 203.248 31.024V34.6528C203.248 34.9514 203.136 35.2202 202.912 35.4592C202.688 35.6682 202.4 35.7728 202.048 35.7728H196.24V52.08C196.24 52.3786 196.128 52.6474 195.904 52.8864C195.68 53.0954 195.392 53.2 195.04 53.2H189.472Z" fill="white"/>
<path d="M218.529 53.2C211.905 53.2 208.593 50.2581 208.593 44.3744V35.7728H204.849C204.497 35.7728 204.193 35.6682 203.937 35.4592C203.713 35.2501 203.601 34.9813 203.601 34.6528V31.024C203.601 30.6954 203.713 30.4266 203.937 30.2176C204.193 30.0085 204.497 29.904 204.849 29.904H208.593V22.512C208.593 22.1834 208.705 21.9146 208.929 21.7056C209.185 21.4965 209.473 21.392 209.793 21.392H215.361C215.713 21.392 216.001 21.4965 216.225 21.7056C216.449 21.9146 216.561 22.1834 216.561 22.512V29.904H222.561C222.913 29.904 223.201 30.0085 223.425 30.2176C223.681 30.4266 223.809 30.6954 223.809 31.024V34.6528C223.809 34.9813 223.681 35.2501 223.425 35.4592C223.201 35.6682 222.913 35.7728 222.561 35.7728H216.561V43.7472C216.561 45.9573 217.473 47.0624 219.297 47.0624H222.993C223.345 47.0624 223.633 47.1669 223.857 47.376C224.081 47.585 224.193 47.8538 224.193 48.1824V52.08C224.193 52.3786 224.081 52.6474 223.857 52.8864C223.633 53.0954 223.345 53.2 222.993 53.2H218.529Z" fill="white"/>
<path d="M47.736 53.2C47.192 53.2 46.76 53.0656 46.44 52.7968C46.12 52.4981 45.928 52.1397 45.864 51.7216L40.632 23.0944C40.6 23.0048 40.584 22.9002 40.584 22.7808C40.584 22.5418 40.68 22.3328 40.872 22.1536C41.096 21.9445 41.336 21.84 41.592 21.84H47.544C48.44 21.84 48.936 22.1685 49.032 22.8256L52.152 40.2976L55.608 29.9936C55.96 29.1872 56.488 28.784 57.192 28.784H60.648C61.448 28.784 61.976 29.1872 62.232 29.9936L65.688 40.2976L68.808 22.8256C68.904 22.1685 69.4 21.84 70.296 21.84H76.248C76.536 21.84 76.776 21.9445 76.968 22.1536C77.192 22.3328 77.304 22.5418 77.304 22.7808L77.256 23.0944L72.024 51.7216C71.96 52.1397 71.752 52.4981 71.4 52.7968C71.08 53.0656 70.664 53.2 70.152 53.2H65.592C65.08 53.2 64.68 53.0805 64.392 52.8416C64.104 52.6026 63.896 52.3338 63.768 52.0352L58.92 39.2224L54.072 52.0352C53.784 52.8117 53.192 53.2 52.296 53.2H47.736Z" stroke="#1E2739" stroke-width="2" mask="url(#path-6-outside-1_16:200)"/>
<path d="M81.9146 26.544C81.5626 26.544 81.2746 26.4394 81.0506 26.2304C80.8266 26.0213 80.7146 25.7525 80.7146 25.424V21.392C80.7146 21.0634 80.8266 20.7946 81.0506 20.5856C81.2746 20.3765 81.5626 20.272 81.9146 20.272H87.6746C88.0266 20.272 88.3146 20.3765 88.5386 20.5856C88.7626 20.7946 88.8746 21.0634 88.8746 21.392V25.424C88.8746 25.7525 88.7626 26.0213 88.5386 26.2304C88.3146 26.4394 88.0266 26.544 87.6746 26.544H81.9146ZM81.9626 53.2C81.6106 53.2 81.3226 53.0954 81.0986 52.8864C80.8746 52.6773 80.7626 52.4085 80.7626 52.08V31.024C80.7626 30.6954 80.8746 30.4266 81.0986 30.2176C81.3226 30.0085 81.6106 29.904 81.9626 29.904H87.6266C87.9786 29.904 88.2666 30.0085 88.4906 30.2176C88.7146 30.4266 88.8266 30.6954 88.8266 31.024V52.08C88.8266 52.3786 88.7146 52.6474 88.4906 52.8864C88.2666 53.0954 87.9786 53.2 87.6266 53.2H81.9626Z" stroke="#1E2739" stroke-width="2" mask="url(#path-6-outside-1_16:200)"/>
<path d="M94.737 53.2C94.417 53.2 94.129 53.0954 93.873 52.8864C93.649 52.6474 93.537 52.3786 93.537 52.08V22.512C93.537 22.1834 93.649 21.9146 93.873 21.7056C94.129 21.4965 94.417 21.392 94.737 21.392H100.401C100.753 21.392 101.041 21.4965 101.265 21.7056C101.489 21.9146 101.601 22.1834 101.601 22.512V52.08C101.601 52.4085 101.489 52.6773 101.265 52.8864C101.041 53.0954 100.753 53.2 100.401 53.2H94.737Z" stroke="#1E2739" stroke-width="2" mask="url(#path-6-outside-1_16:200)"/>
<path d="M107.511 53.2C107.191 53.2 106.903 53.0954 106.647 52.8864C106.423 52.6474 106.311 52.3786 106.311 52.08V22.512C106.311 22.1834 106.423 21.9146 106.647 21.7056C106.903 21.4965 107.191 21.392 107.511 21.392H113.175C113.527 21.392 113.815 21.4965 114.039 21.7056C114.263 21.9146 114.375 22.1834 114.375 22.512V52.08C114.375 52.4085 114.263 52.6773 114.039 52.8864C113.815 53.0954 113.527 53.2 113.175 53.2H107.511Z" stroke="#1E2739" stroke-width="2" mask="url(#path-6-outside-1_16:200)"/>
<path d="M130.072 53.2C129.752 53.2 129.464 53.0954 129.208 52.8864C128.984 52.6474 128.872 52.3786 128.872 52.08V22.96C128.872 22.6314 128.984 22.3626 129.208 22.1536C129.464 21.9445 129.752 21.84 130.072 21.84H136.409C136.761 21.84 137.048 21.9445 137.272 22.1536C137.496 22.3626 137.608 22.6314 137.608 22.96V46.4352H152.152C152.504 46.4352 152.792 46.5546 153.016 46.7936C153.24 47.0026 153.353 47.2714 153.353 47.6V52.08C153.353 52.3786 153.24 52.6474 153.016 52.8864C152.792 53.0954 152.504 53.2 152.152 53.2H130.072Z" stroke="#1E2739" stroke-width="2" mask="url(#path-6-outside-1_16:200)"/>
<path d="M164.818 53.648C162.002 53.648 159.73 52.7669 158.002 51.0048C156.274 49.2128 155.41 46.7189 155.41 43.5232V31.024C155.41 30.6954 155.522 30.4266 155.746 30.2176C155.97 30.0085 156.258 29.904 156.61 29.904H162.61C162.962 29.904 163.25 30.0085 163.474 30.2176C163.73 30.4266 163.858 30.6954 163.858 31.024V43.2544C163.858 46.1813 165.25 47.6448 168.034 47.6448C169.378 47.6448 170.434 47.2565 171.202 46.48C171.97 45.7034 172.354 44.6282 172.354 43.2544V31.024C172.354 30.6954 172.466 30.4266 172.69 30.2176C172.946 30.0085 173.234 29.904 173.554 29.904H179.554C179.906 29.904 180.194 30.0085 180.418 30.2176C180.642 30.4266 180.754 30.6954 180.754 31.024V52.08C180.754 52.3786 180.642 52.6474 180.418 52.8864C180.194 53.0954 179.906 53.2 179.554 53.2H173.986C173.666 53.2 173.378 53.0954 173.122 52.8864C172.898 52.6474 172.786 52.3786 172.786 52.08V50.3776C171.122 52.5578 168.466 53.648 164.818 53.648Z" stroke="#1E2739" stroke-width="2" mask="url(#path-6-outside-1_16:200)"/>
<path d="M189.472 53.2C189.152 53.2 188.864 53.0954 188.608 52.8864C188.384 52.6474 188.272 52.3786 188.272 52.08V35.7728H184.624C184.272 35.7728 183.984 35.6682 183.76 35.4592C183.536 35.2501 183.424 34.9813 183.424 34.6528V31.024C183.424 30.6954 183.536 30.4266 183.76 30.2176C183.984 30.0085 184.272 29.904 184.624 29.904H188.272V28.4704C188.272 25.5136 189.168 23.3781 190.96 22.064C192.784 20.72 195.392 20.048 198.784 20.048H202.528C202.88 20.048 203.168 20.1525 203.392 20.3616C203.616 20.5706 203.728 20.8394 203.728 21.168V24.7968C203.728 25.0954 203.616 25.3642 203.392 25.6032C203.168 25.8122 202.88 25.9168 202.528 25.9168H199.168C198.112 25.9168 197.36 26.1557 196.912 26.6336C196.464 27.0816 196.24 27.7685 196.24 28.6944V29.904H202.048C202.4 29.904 202.688 30.0085 202.912 30.2176C203.136 30.4266 203.248 30.6954 203.248 31.024V34.6528C203.248 34.9514 203.136 35.2202 202.912 35.4592C202.688 35.6682 202.4 35.7728 202.048 35.7728H196.24V52.08C196.24 52.3786 196.128 52.6474 195.904 52.8864C195.68 53.0954 195.392 53.2 195.04 53.2H189.472Z" stroke="#1E2739" stroke-width="2" mask="url(#path-6-outside-1_16:200)"/>
<path d="M218.529 53.2C211.905 53.2 208.593 50.2581 208.593 44.3744V35.7728H204.849C204.497 35.7728 204.193 35.6682 203.937 35.4592C203.713 35.2501 203.601 34.9813 203.601 34.6528V31.024C203.601 30.6954 203.713 30.4266 203.937 30.2176C204.193 30.0085 204.497 29.904 204.849 29.904H208.593V22.512C208.593 22.1834 208.705 21.9146 208.929 21.7056C209.185 21.4965 209.473 21.392 209.793 21.392H215.361C215.713 21.392 216.001 21.4965 216.225 21.7056C216.449 21.9146 216.561 22.1834 216.561 22.512V29.904H222.561C222.913 29.904 223.201 30.0085 223.425 30.2176C223.681 30.4266 223.809 30.6954 223.809 31.024V34.6528C223.809 34.9813 223.681 35.2501 223.425 35.4592C223.201 35.6682 222.913 35.7728 222.561 35.7728H216.561V43.7472C216.561 45.9573 217.473 47.0624 219.297 47.0624H222.993C223.345 47.0624 223.633 47.1669 223.857 47.376C224.081 47.585 224.193 47.8538 224.193 48.1824V52.08C224.193 52.3786 224.081 52.6474 223.857 52.8864C223.633 53.0954 223.345 53.2 222.993 53.2H218.529Z" stroke="#1E2739" stroke-width="2" mask="url(#path-6-outside-1_16:200)"/>
</svg>
