<svg width="174" height="64" viewBox="0 0 174 64" fill="none" xmlns="http://www.w3.org/2000/svg">
<g clip-path="url(#clip0_29:388)">
<path d="M0 51.7689L17.3714 42.1429L34.7429 37.0952L52.1143 55.1732L69.4857 40.6169L86.8571 49.3037L104.229 52.5906L121.6 60.2209L138.971 59.5166L156.343 38.2691L173.714 53.4123V0H156.343H138.971H121.6H104.229H86.8571H69.4857H52.1143H34.7429H17.3714H0V51.7689Z" fill="#61CDB6"/>
<path d="M0 26.8823L17.3714 30.1692L34.7429 30.8735L52.1143 38.7386L69.4857 24.2997L86.8571 36.2734L104.229 47.4255L121.6 44.9603L138.971 37.0952L156.343 28.1735L173.714 49.4211V0H156.343H138.971H121.6H104.229H86.8571H69.4857H52.1143H34.7429H17.3714H0V26.8823Z" fill="#599DAB"/>
<path d="M0 16.9041L17.3714 38.3865L34.7429 23.8301L52.1143 39.2082L69.4857 18.3128L86.8571 28.9953L104.229 30.6387L121.6 19.7215L138.971 16.552L156.343 26.9996L173.714 35.4517V0H156.343H138.971H121.6H104.229H86.8571H69.4857H52.1143H34.7429H17.3714H0V16.9041Z" fill="#427175"/>
<path d="M0 29.1127L17.3714 28.5257L34.7429 16.6694L52.1143 10.4477L69.4857 22.4215L86.8571 11.739L104.229 22.7736L121.6 20.5432L138.971 20.0737L156.343 13.0303L173.714 26.2953V0H156.343H138.971H121.6H104.229H86.8571H69.4857H52.1143H34.7429H17.3714H0V29.1127Z" fill="#1B3948"/>
<path d="M0 18.1954L17.3714 17.8432L34.7429 19.8389L52.1143 6.10427L69.4857 6.45644L86.8571 19.8389L104.229 2.81735L121.6 19.0171L138.971 12.9129L156.343 15.965L173.714 4.10864V0H156.343H138.971H121.6H104.229H86.8571H69.4857H52.1143H34.7429H17.3714H0V18.1954Z" fill="#1B3948"/>
</g>
<mask id="path-6-outside-1_29:388" maskUnits="userSpaceOnUse" x="25.5038" y="12.0926" width="122" height="24" fill="black">
<rect fill="white" x="25.5038" y="12.0926" width="122" height="24"/>
<path d="M31.1745 34.7429C30.8193 34.7429 30.5371 34.6551 30.3282 34.4796C30.1192 34.2845 29.9938 34.0505 29.952 33.7774L26.5352 15.0821C26.5143 15.0236 26.5038 14.9553 26.5038 14.8773C26.5038 14.7212 26.5665 14.5847 26.6919 14.4677C26.8382 14.3311 26.9949 14.2629 27.1621 14.2629H31.0491C31.6343 14.2629 31.9582 14.4774 32.0209 14.9065L34.0584 26.3168L36.3154 19.5877C36.5453 19.061 36.8901 18.7977 37.3499 18.7977H39.6068C40.1293 18.7977 40.4741 19.061 40.6413 19.5877L42.8983 26.3168L44.9358 14.9065C44.9985 14.4774 45.3224 14.2629 45.9076 14.2629H49.7946C49.9827 14.2629 50.1394 14.3311 50.2648 14.4677C50.4111 14.5847 50.4842 14.7212 50.4842 14.8773L50.4529 15.0821L47.0361 33.7774C46.9943 34.0505 46.8584 34.2845 46.6286 34.4796C46.4196 34.6551 46.1479 34.7429 45.8135 34.7429H42.8356C42.5012 34.7429 42.24 34.6649 42.0519 34.5088C41.8638 34.3528 41.728 34.1772 41.6444 33.9822L38.4784 25.6146L35.3123 33.9822C35.1242 34.4893 34.7376 34.7429 34.1525 34.7429H31.1745Z"/>
<path d="M53.4953 17.3349C53.2654 17.3349 53.0773 17.2666 52.931 17.1301C52.7847 16.9935 52.7116 16.818 52.7116 16.6034V13.9703C52.7116 13.7558 52.7847 13.5802 52.931 13.4437C53.0773 13.3071 53.2654 13.2389 53.4953 13.2389H57.2569C57.4868 13.2389 57.6748 13.3071 57.8211 13.4437C57.9674 13.5802 58.0406 13.7558 58.0406 13.9703V16.6034C58.0406 16.818 57.9674 16.9935 57.8211 17.1301C57.6748 17.2666 57.4868 17.3349 57.2569 17.3349H53.4953ZM53.5266 34.7429C53.2967 34.7429 53.1086 34.6746 52.9624 34.5381C52.8161 34.4015 52.7429 34.226 52.7429 34.0114V20.2606C52.7429 20.046 52.8161 19.8705 52.9624 19.734C53.1086 19.5974 53.2967 19.5292 53.5266 19.5292H57.2255C57.4554 19.5292 57.6435 19.5974 57.7898 19.734C57.9361 19.8705 58.0092 20.046 58.0092 20.2606V34.0114C58.0092 34.2065 57.9361 34.382 57.7898 34.5381C57.6435 34.6746 57.4554 34.7429 57.2255 34.7429H53.5266Z"/>
<path d="M61.8691 34.7429C61.6601 34.7429 61.472 34.6746 61.3048 34.5381C61.1585 34.382 61.0854 34.2065 61.0854 34.0114V14.7017C61.0854 14.4872 61.1585 14.3116 61.3048 14.1751C61.472 14.0386 61.6601 13.9703 61.8691 13.9703H65.568C65.7979 13.9703 65.986 14.0386 66.1322 14.1751C66.2785 14.3116 66.3517 14.4872 66.3517 14.7017V34.0114C66.3517 34.226 66.2785 34.4015 66.1322 34.5381C65.986 34.6746 65.7979 34.7429 65.568 34.7429H61.8691Z"/>
<path d="M70.2115 34.7429C70.0025 34.7429 69.8144 34.6746 69.6473 34.5381C69.501 34.382 69.4278 34.2065 69.4278 34.0114V14.7017C69.4278 14.4872 69.501 14.3116 69.6473 14.1751C69.8144 14.0386 70.0025 13.9703 70.2115 13.9703H73.9104C74.1403 13.9703 74.3284 14.0386 74.4747 14.1751C74.621 14.3116 74.6941 14.4872 74.6941 14.7017V34.0114C74.6941 34.226 74.621 34.4015 74.4747 34.5381C74.3284 34.6746 74.1403 34.7429 73.9104 34.7429H70.2115Z"/>
<path d="M84.9453 34.7429C84.7363 34.7429 84.5482 34.6746 84.381 34.5381C84.2348 34.382 84.1616 34.2065 84.1616 34.0114V14.9943C84.1616 14.7798 84.2348 14.6042 84.381 14.4677C84.5482 14.3311 84.7363 14.2629 84.9453 14.2629H89.0831C89.313 14.2629 89.501 14.3311 89.6473 14.4677C89.7936 14.6042 89.8668 14.7798 89.8668 14.9943V30.325H99.3649C99.5948 30.325 99.7828 30.4031 99.9291 30.5591C100.075 30.6956 100.149 30.8712 100.149 31.0857V34.0114C100.149 34.2065 100.075 34.382 99.9291 34.5381C99.7828 34.6746 99.5948 34.7429 99.3649 34.7429H84.9453Z"/>
<path d="M107.636 35.0354C105.797 35.0354 104.314 34.4601 103.185 33.3093C102.057 32.139 101.492 30.5103 101.492 28.4233V20.2606C101.492 20.046 101.565 19.8705 101.712 19.734C101.858 19.5974 102.046 19.5292 102.276 19.5292H106.194C106.424 19.5292 106.612 19.5974 106.759 19.734C106.926 19.8705 107.009 20.046 107.009 20.2606V28.2478C107.009 30.1593 107.918 31.115 109.737 31.115C110.614 31.115 111.304 30.8614 111.805 30.3543C112.307 29.8472 112.558 29.145 112.558 28.2478V20.2606C112.558 20.046 112.631 19.8705 112.777 19.734C112.944 19.5974 113.132 19.5292 113.341 19.5292H117.26C117.49 19.5292 117.678 19.5974 117.824 19.734C117.97 19.8705 118.043 20.046 118.043 20.2606V34.0114C118.043 34.2065 117.97 34.382 117.824 34.5381C117.678 34.6746 117.49 34.7429 117.26 34.7429H113.624C113.415 34.7429 113.227 34.6746 113.059 34.5381C112.913 34.382 112.84 34.2065 112.84 34.0114V32.8997C111.753 34.3235 110.019 35.0354 107.636 35.0354Z"/>
<path d="M123.737 34.7429C123.528 34.7429 123.34 34.6746 123.173 34.5381C123.026 34.382 122.953 34.2065 122.953 34.0114V23.3618H120.571C120.341 23.3618 120.153 23.2936 120.007 23.157C119.86 23.0205 119.787 22.845 119.787 22.6304V20.2606C119.787 20.046 119.86 19.8705 120.007 19.734C120.153 19.5974 120.341 19.5292 120.571 19.5292H122.953V18.5929C122.953 16.662 123.538 15.2674 124.709 14.4092C125.9 13.5314 127.603 13.0926 129.818 13.0926H132.263C132.493 13.0926 132.681 13.1609 132.827 13.2974C132.974 13.4339 133.047 13.6095 133.047 13.824V16.1938C133.047 16.3889 132.974 16.5644 132.827 16.7205C132.681 16.857 132.493 16.9253 132.263 16.9253H130.069C129.379 16.9253 128.888 17.0813 128.596 17.3934C128.303 17.686 128.157 18.1346 128.157 18.7392V19.5292H131.95C132.18 19.5292 132.368 19.5974 132.514 19.734C132.66 19.8705 132.733 20.046 132.733 20.2606V22.6304C132.733 22.8255 132.66 23.001 132.514 23.157C132.368 23.2936 132.18 23.3618 131.95 23.3618H128.157V34.0114C128.157 34.2065 128.084 34.382 127.937 34.5381C127.791 34.6746 127.603 34.7429 127.373 34.7429H123.737Z"/>
<path d="M142.713 34.7429C138.387 34.7429 136.224 32.8217 136.224 28.9792V23.3618H133.779C133.549 23.3618 133.351 23.2936 133.184 23.157C133.037 23.0205 132.964 22.845 132.964 22.6304V20.2606C132.964 20.046 133.037 19.8705 133.184 19.734C133.351 19.5974 133.549 19.5292 133.779 19.5292H136.224V14.7017C136.224 14.4872 136.297 14.3116 136.444 14.1751C136.611 14.0386 136.799 13.9703 137.008 13.9703H140.644C140.874 13.9703 141.062 14.0386 141.208 14.1751C141.355 14.3116 141.428 14.4872 141.428 14.7017V19.5292H145.346C145.576 19.5292 145.764 19.5974 145.91 19.734C146.078 19.8705 146.161 20.046 146.161 20.2606V22.6304C146.161 22.845 146.078 23.0205 145.91 23.157C145.764 23.2936 145.576 23.3618 145.346 23.3618H141.428V28.5696C141.428 30.013 142.023 30.7346 143.215 30.7346H145.628C145.858 30.7346 146.046 30.8029 146.193 30.9394C146.339 31.076 146.412 31.2515 146.412 31.4661V34.0114C146.412 34.2065 146.339 34.382 146.193 34.5381C146.046 34.6746 145.858 34.7429 145.628 34.7429H142.713Z"/>
</mask>
<path d="M31.1745 34.7429C30.8193 34.7429 30.5371 34.6551 30.3282 34.4796C30.1192 34.2845 29.9938 34.0505 29.952 33.7774L26.5352 15.0821C26.5143 15.0236 26.5038 14.9553 26.5038 14.8773C26.5038 14.7212 26.5665 14.5847 26.6919 14.4677C26.8382 14.3311 26.9949 14.2629 27.1621 14.2629H31.0491C31.6343 14.2629 31.9582 14.4774 32.0209 14.9065L34.0584 26.3168L36.3154 19.5877C36.5453 19.061 36.8901 18.7977 37.3499 18.7977H39.6068C40.1293 18.7977 40.4741 19.061 40.6413 19.5877L42.8983 26.3168L44.9358 14.9065C44.9985 14.4774 45.3224 14.2629 45.9076 14.2629H49.7946C49.9827 14.2629 50.1394 14.3311 50.2648 14.4677C50.4111 14.5847 50.4842 14.7212 50.4842 14.8773L50.4529 15.0821L47.0361 33.7774C46.9943 34.0505 46.8584 34.2845 46.6286 34.4796C46.4196 34.6551 46.1479 34.7429 45.8135 34.7429H42.8356C42.5012 34.7429 42.24 34.6649 42.0519 34.5088C41.8638 34.3528 41.728 34.1772 41.6444 33.9822L38.4784 25.6146L35.3123 33.9822C35.1242 34.4893 34.7376 34.7429 34.1525 34.7429H31.1745Z" fill="white"/>
<path d="M53.4953 17.3349C53.2654 17.3349 53.0773 17.2666 52.931 17.1301C52.7847 16.9935 52.7116 16.818 52.7116 16.6034V13.9703C52.7116 13.7558 52.7847 13.5802 52.931 13.4437C53.0773 13.3071 53.2654 13.2389 53.4953 13.2389H57.2569C57.4868 13.2389 57.6748 13.3071 57.8211 13.4437C57.9674 13.5802 58.0406 13.7558 58.0406 13.9703V16.6034C58.0406 16.818 57.9674 16.9935 57.8211 17.1301C57.6748 17.2666 57.4868 17.3349 57.2569 17.3349H53.4953ZM53.5266 34.7429C53.2967 34.7429 53.1086 34.6746 52.9624 34.5381C52.8161 34.4015 52.7429 34.226 52.7429 34.0114V20.2606C52.7429 20.046 52.8161 19.8705 52.9624 19.734C53.1086 19.5974 53.2967 19.5292 53.5266 19.5292H57.2255C57.4554 19.5292 57.6435 19.5974 57.7898 19.734C57.9361 19.8705 58.0092 20.046 58.0092 20.2606V34.0114C58.0092 34.2065 57.9361 34.382 57.7898 34.5381C57.6435 34.6746 57.4554 34.7429 57.2255 34.7429H53.5266Z" fill="white"/>
<path d="M61.8691 34.7429C61.6601 34.7429 61.472 34.6746 61.3048 34.5381C61.1585 34.382 61.0854 34.2065 61.0854 34.0114V14.7017C61.0854 14.4872 61.1585 14.3116 61.3048 14.1751C61.472 14.0386 61.6601 13.9703 61.8691 13.9703H65.568C65.7979 13.9703 65.986 14.0386 66.1322 14.1751C66.2785 14.3116 66.3517 14.4872 66.3517 14.7017V34.0114C66.3517 34.226 66.2785 34.4015 66.1322 34.5381C65.986 34.6746 65.7979 34.7429 65.568 34.7429H61.8691Z" fill="white"/>
<path d="M70.2115 34.7429C70.0025 34.7429 69.8144 34.6746 69.6473 34.5381C69.501 34.382 69.4278 34.2065 69.4278 34.0114V14.7017C69.4278 14.4872 69.501 14.3116 69.6473 14.1751C69.8144 14.0386 70.0025 13.9703 70.2115 13.9703H73.9104C74.1403 13.9703 74.3284 14.0386 74.4747 14.1751C74.621 14.3116 74.6941 14.4872 74.6941 14.7017V34.0114C74.6941 34.226 74.621 34.4015 74.4747 34.5381C74.3284 34.6746 74.1403 34.7429 73.9104 34.7429H70.2115Z" fill="white"/>
<path d="M84.9453 34.7429C84.7363 34.7429 84.5482 34.6746 84.381 34.5381C84.2348 34.382 84.1616 34.2065 84.1616 34.0114V14.9943C84.1616 14.7798 84.2348 14.6042 84.381 14.4677C84.5482 14.3311 84.7363 14.2629 84.9453 14.2629H89.0831C89.313 14.2629 89.501 14.3311 89.6473 14.4677C89.7936 14.6042 89.8668 14.7798 89.8668 14.9943V30.325H99.3649C99.5948 30.325 99.7828 30.4031 99.9291 30.5591C100.075 30.6956 100.149 30.8712 100.149 31.0857V34.0114C100.149 34.2065 100.075 34.382 99.9291 34.5381C99.7828 34.6746 99.5948 34.7429 99.3649 34.7429H84.9453Z" fill="white"/>
<path d="M107.636 35.0354C105.797 35.0354 104.314 34.4601 103.185 33.3093C102.057 32.139 101.492 30.5103 101.492 28.4233V20.2606C101.492 20.046 101.565 19.8705 101.712 19.734C101.858 19.5974 102.046 19.5292 102.276 19.5292H106.194C106.424 19.5292 106.612 19.5974 106.759 19.734C106.926 19.8705 107.009 20.046 107.009 20.2606V28.2478C107.009 30.1593 107.918 31.115 109.737 31.115C110.614 31.115 111.304 30.8614 111.805 30.3543C112.307 29.8472 112.558 29.145 112.558 28.2478V20.2606C112.558 20.046 112.631 19.8705 112.777 19.734C112.944 19.5974 113.132 19.5292 113.341 19.5292H117.26C117.49 19.5292 117.678 19.5974 117.824 19.734C117.97 19.8705 118.043 20.046 118.043 20.2606V34.0114C118.043 34.2065 117.97 34.382 117.824 34.5381C117.678 34.6746 117.49 34.7429 117.26 34.7429H113.624C113.415 34.7429 113.227 34.6746 113.059 34.5381C112.913 34.382 112.84 34.2065 112.84 34.0114V32.8997C111.753 34.3235 110.019 35.0354 107.636 35.0354Z" fill="white"/>
<path d="M123.737 34.7429C123.528 34.7429 123.34 34.6746 123.173 34.5381C123.026 34.382 122.953 34.2065 122.953 34.0114V23.3618H120.571C120.341 23.3618 120.153 23.2936 120.007 23.157C119.86 23.0205 119.787 22.845 119.787 22.6304V20.2606C119.787 20.046 119.86 19.8705 120.007 19.734C120.153 19.5974 120.341 19.5292 120.571 19.5292H122.953V18.5929C122.953 16.662 123.538 15.2674 124.709 14.4092C125.9 13.5314 127.603 13.0926 129.818 13.0926H132.263C132.493 13.0926 132.681 13.1609 132.827 13.2974C132.974 13.4339 133.047 13.6095 133.047 13.824V16.1938C133.047 16.3889 132.974 16.5644 132.827 16.7205C132.681 16.857 132.493 16.9253 132.263 16.9253H130.069C129.379 16.9253 128.888 17.0813 128.596 17.3934C128.303 17.686 128.157 18.1346 128.157 18.7392V19.5292H131.95C132.18 19.5292 132.368 19.5974 132.514 19.734C132.66 19.8705 132.733 20.046 132.733 20.2606V22.6304C132.733 22.8255 132.66 23.001 132.514 23.157C132.368 23.2936 132.18 23.3618 131.95 23.3618H128.157V34.0114C128.157 34.2065 128.084 34.382 127.937 34.5381C127.791 34.6746 127.603 34.7429 127.373 34.7429H123.737Z" fill="white"/>
<path d="M142.713 34.7429C138.387 34.7429 136.224 32.8217 136.224 28.9792V23.3618H133.779C133.549 23.3618 133.351 23.2936 133.184 23.157C133.037 23.0205 132.964 22.845 132.964 22.6304V20.2606C132.964 20.046 133.037 19.8705 133.184 19.734C133.351 19.5974 133.549 19.5292 133.779 19.5292H136.224V14.7017C136.224 14.4872 136.297 14.3116 136.444 14.1751C136.611 14.0386 136.799 13.9703 137.008 13.9703H140.644C140.874 13.9703 141.062 14.0386 141.208 14.1751C141.355 14.3116 141.428 14.4872 141.428 14.7017V19.5292H145.346C145.576 19.5292 145.764 19.5974 145.91 19.734C146.078 19.8705 146.161 20.046 146.161 20.2606V22.6304C146.161 22.845 146.078 23.0205 145.91 23.157C145.764 23.2936 145.576 23.3618 145.346 23.3618H141.428V28.5696C141.428 30.013 142.023 30.7346 143.215 30.7346H145.628C145.858 30.7346 146.046 30.8029 146.193 30.9394C146.339 31.076 146.412 31.2515 146.412 31.4661V34.0114C146.412 34.2065 146.339 34.382 146.193 34.5381C146.046 34.6746 145.858 34.7429 145.628 34.7429H142.713Z" fill="white"/>
<path d="M31.1745 34.7429C30.8193 34.7429 30.5371 34.6551 30.3282 34.4796C30.1192 34.2845 29.9938 34.0505 29.952 33.7774L26.5352 15.0821C26.5143 15.0236 26.5038 14.9553 26.5038 14.8773C26.5038 14.7212 26.5665 14.5847 26.6919 14.4677C26.8382 14.3311 26.9949 14.2629 27.1621 14.2629H31.0491C31.6343 14.2629 31.9582 14.4774 32.0209 14.9065L34.0584 26.3168L36.3154 19.5877C36.5453 19.061 36.8901 18.7977 37.3499 18.7977H39.6068C40.1293 18.7977 40.4741 19.061 40.6413 19.5877L42.8983 26.3168L44.9358 14.9065C44.9985 14.4774 45.3224 14.2629 45.9076 14.2629H49.7946C49.9827 14.2629 50.1394 14.3311 50.2648 14.4677C50.4111 14.5847 50.4842 14.7212 50.4842 14.8773L50.4529 15.0821L47.0361 33.7774C46.9943 34.0505 46.8584 34.2845 46.6286 34.4796C46.4196 34.6551 46.1479 34.7429 45.8135 34.7429H42.8356C42.5012 34.7429 42.24 34.6649 42.0519 34.5088C41.8638 34.3528 41.728 34.1772 41.6444 33.9822L38.4784 25.6146L35.3123 33.9822C35.1242 34.4893 34.7376 34.7429 34.1525 34.7429H31.1745Z" stroke="#1E2739" stroke-width="2" mask="url(#path-6-outside-1_29:388)"/>
<path d="M53.4953 17.3349C53.2654 17.3349 53.0773 17.2666 52.931 17.1301C52.7847 16.9935 52.7116 16.818 52.7116 16.6034V13.9703C52.7116 13.7558 52.7847 13.5802 52.931 13.4437C53.0773 13.3071 53.2654 13.2389 53.4953 13.2389H57.2569C57.4868 13.2389 57.6748 13.3071 57.8211 13.4437C57.9674 13.5802 58.0406 13.7558 58.0406 13.9703V16.6034C58.0406 16.818 57.9674 16.9935 57.8211 17.1301C57.6748 17.2666 57.4868 17.3349 57.2569 17.3349H53.4953ZM53.5266 34.7429C53.2967 34.7429 53.1086 34.6746 52.9624 34.5381C52.8161 34.4015 52.7429 34.226 52.7429 34.0114V20.2606C52.7429 20.046 52.8161 19.8705 52.9624 19.734C53.1086 19.5974 53.2967 19.5292 53.5266 19.5292H57.2255C57.4554 19.5292 57.6435 19.5974 57.7898 19.734C57.9361 19.8705 58.0092 20.046 58.0092 20.2606V34.0114C58.0092 34.2065 57.9361 34.382 57.7898 34.5381C57.6435 34.6746 57.4554 34.7429 57.2255 34.7429H53.5266Z" stroke="#1E2739" stroke-width="2" mask="url(#path-6-outside-1_29:388)"/>
<path d="M61.8691 34.7429C61.6601 34.7429 61.472 34.6746 61.3048 34.5381C61.1585 34.382 61.0854 34.2065 61.0854 34.0114V14.7017C61.0854 14.4872 61.1585 14.3116 61.3048 14.1751C61.472 14.0386 61.6601 13.9703 61.8691 13.9703H65.568C65.7979 13.9703 65.986 14.0386 66.1322 14.1751C66.2785 14.3116 66.3517 14.4872 66.3517 14.7017V34.0114C66.3517 34.226 66.2785 34.4015 66.1322 34.5381C65.986 34.6746 65.7979 34.7429 65.568 34.7429H61.8691Z" stroke="#1E2739" stroke-width="2" mask="url(#path-6-outside-1_29:388)"/>
<path d="M70.2115 34.7429C70.0025 34.7429 69.8144 34.6746 69.6473 34.5381C69.501 34.382 69.4278 34.2065 69.4278 34.0114V14.7017C69.4278 14.4872 69.501 14.3116 69.6473 14.1751C69.8144 14.0386 70.0025 13.9703 70.2115 13.9703H73.9104C74.1403 13.9703 74.3284 14.0386 74.4747 14.1751C74.621 14.3116 74.6941 14.4872 74.6941 14.7017V34.0114C74.6941 34.226 74.621 34.4015 74.4747 34.5381C74.3284 34.6746 74.1403 34.7429 73.9104 34.7429H70.2115Z" stroke="#1E2739" stroke-width="2" mask="url(#path-6-outside-1_29:388)"/>
<path d="M84.9453 34.7429C84.7363 34.7429 84.5482 34.6746 84.381 34.5381C84.2348 34.382 84.1616 34.2065 84.1616 34.0114V14.9943C84.1616 14.7798 84.2348 14.6042 84.381 14.4677C84.5482 14.3311 84.7363 14.2629 84.9453 14.2629H89.0831C89.313 14.2629 89.501 14.3311 89.6473 14.4677C89.7936 14.6042 89.8668 14.7798 89.8668 14.9943V30.325H99.3649C99.5948 30.325 99.7828 30.4031 99.9291 30.5591C100.075 30.6956 100.149 30.8712 100.149 31.0857V34.0114C100.149 34.2065 100.075 34.382 99.9291 34.5381C99.7828 34.6746 99.5948 34.7429 99.3649 34.7429H84.9453Z" stroke="#1E2739" stroke-width="2" mask="url(#path-6-outside-1_29:388)"/>
<path d="M107.636 35.0354C105.797 35.0354 104.314 34.4601 103.185 33.3093C102.057 32.139 101.492 30.5103 101.492 28.4233V20.2606C101.492 20.046 101.565 19.8705 101.712 19.734C101.858 19.5974 102.046 19.5292 102.276 19.5292H106.194C106.424 19.5292 106.612 19.5974 106.759 19.734C106.926 19.8705 107.009 20.046 107.009 20.2606V28.2478C107.009 30.1593 107.918 31.115 109.737 31.115C110.614 31.115 111.304 30.8614 111.805 30.3543C112.307 29.8472 112.558 29.145 112.558 28.2478V20.2606C112.558 20.046 112.631 19.8705 112.777 19.734C112.944 19.5974 113.132 19.5292 113.341 19.5292H117.26C117.49 19.5292 117.678 19.5974 117.824 19.734C117.97 19.8705 118.043 20.046 118.043 20.2606V34.0114C118.043 34.2065 117.97 34.382 117.824 34.5381C117.678 34.6746 117.49 34.7429 117.26 34.7429H113.624C113.415 34.7429 113.227 34.6746 113.059 34.5381C112.913 34.382 112.84 34.2065 112.84 34.0114V32.8997C111.753 34.3235 110.019 35.0354 107.636 35.0354Z" stroke="#1E2739" stroke-width="2" mask="url(#path-6-outside-1_29:388)"/>
<path d="M123.737 34.7429C123.528 34.7429 123.34 34.6746 123.173 34.5381C123.026 34.382 122.953 34.2065 122.953 34.0114V23.3618H120.571C120.341 23.3618 120.153 23.2936 120.007 23.157C119.86 23.0205 119.787 22.845 119.787 22.6304V20.2606C119.787 20.046 119.86 19.8705 120.007 19.734C120.153 19.5974 120.341 19.5292 120.571 19.5292H122.953V18.5929C122.953 16.662 123.538 15.2674 124.709 14.4092C125.9 13.5314 127.603 13.0926 129.818 13.0926H132.263C132.493 13.0926 132.681 13.1609 132.827 13.2974C132.974 13.4339 133.047 13.6095 133.047 13.824V16.1938C133.047 16.3889 132.974 16.5644 132.827 16.7205C132.681 16.857 132.493 16.9253 132.263 16.9253H130.069C129.379 16.9253 128.888 17.0813 128.596 17.3934C128.303 17.686 128.157 18.1346 128.157 18.7392V19.5292H131.95C132.18 19.5292 132.368 19.5974 132.514 19.734C132.66 19.8705 132.733 20.046 132.733 20.2606V22.6304C132.733 22.8255 132.66 23.001 132.514 23.157C132.368 23.2936 132.18 23.3618 131.95 23.3618H128.157V34.0114C128.157 34.2065 128.084 34.382 127.937 34.5381C127.791 34.6746 127.603 34.7429 127.373 34.7429H123.737Z" stroke="#1E2739" stroke-width="2" mask="url(#path-6-outside-1_29:388)"/>
<path d="M142.713 34.7429C138.387 34.7429 136.224 32.8217 136.224 28.9792V23.3618H133.779C133.549 23.3618 133.351 23.2936 133.184 23.157C133.037 23.0205 132.964 22.845 132.964 22.6304V20.2606C132.964 20.046 133.037 19.8705 133.184 19.734C133.351 19.5974 133.549 19.5292 133.779 19.5292H136.224V14.7017C136.224 14.4872 136.297 14.3116 136.444 14.1751C136.611 14.0386 136.799 13.9703 137.008 13.9703H140.644C140.874 13.9703 141.062 14.0386 141.208 14.1751C141.355 14.3116 141.428 14.4872 141.428 14.7017V19.5292H145.346C145.576 19.5292 145.764 19.5974 145.91 19.734C146.078 19.8705 146.161 20.046 146.161 20.2606V22.6304C146.161 22.845 146.078 23.0205 145.91 23.157C145.764 23.2936 145.576 23.3618 145.346 23.3618H141.428V28.5696C141.428 30.013 142.023 30.7346 143.215 30.7346H145.628C145.858 30.7346 146.046 30.8029 146.193 30.9394C146.339 31.076 146.412 31.2515 146.412 31.4661V34.0114C146.412 34.2065 146.339 34.382 146.193 34.5381C146.046 34.6746 145.858 34.7429 145.628 34.7429H142.713Z" stroke="#1E2739" stroke-width="2" mask="url(#path-6-outside-1_29:388)"/>
<defs>
<clipPath id="clip0_29:388">
<rect width="173.714" height="63.3905" fill="white"/>
</clipPath>
</defs>
</svg>
