<svg width="2710" height="188" viewBox="0 0 2710 188" fill="none" xmlns="http://www.w3.org/2000/svg">
<g filter="url(#filter0_d)">
<path d="M1853.76 181.692H1844.91H1832.87H1803V153.121V134.073H1809.49L1815.99 117.406H1819.38V89.4294L1822.4 82.8817L1825.43 89.4294V117.406H1829.56L1835.46 134.073H1844.91V162.049H1853.76V50.1432L1861.43 44.1908L1869.11 50.1432V165.025L1875.6 158.478V71.572L1880.91 79.9055L1886.82 71.572V147.763L1890.95 143.001V165.025H1896.26V109.668H1902.16V117.406H1908.06V89.4294H1910.43V165.025H1913.38L1924 125.144V89.4294H1934.63V31.0954L1947.61 18V67.4053L1957.06 75.1435V82.8817L1964.73 89.4294V125.144H1971.22V119.192H1974.76V125.144H1978.89V119.192H1982.44V125.144H1988.04V121.573H1990.7V125.144H1993.65V165.025H1998.08L1998.37 129.906H2002.5V115.62H2004.87V165.025H2011.36V73.3578L2026.7 97.7628H2039.69V135.858H2042.64V140.62H2047.95V145.382H2051.5V150.74H2057.4V89.4294L2082.78 73.3578V134.073H2088.68V128.12H2092.22V121.573H2096.35V115.62H2100.49V121.573H2104.62V128.12H2107.57V62.6434H2118.19V50.1432H2130V40.6193L2142.98 31.0954V176.335H2148.3V119.192H2153.61V128.12H2157.74V176.335H2161.87V134.073H2167.18H2172.5V89.4294L2178.04 115.62H2184.3V125.144H2189.61V134.073H2197.29V128.12H2204.96V73.3578L2227.98 50.1432L2251 73.3578V181.692H2243.83H2215.16H2204.96H2199.63H2189.61H2181.94H2161.87H2142.98H2112.42H2082.78H2057.4H2045.59H2026.7H1993.65H1978.89H1938.59H1930.23H1913.38H1890.95H1853.76Z" fill="#21262C"/>
<path d="M2301.76 181.692H2292.91H2280.87H2251V153.121V134.073H2257.49L2263.99 117.406H2267.38V89.4294L2270.4 82.8817L2273.43 89.4294V117.406H2277.56L2283.46 134.073H2292.91V162.049H2301.76V50.1432L2309.43 44.1908L2317.11 50.1432V165.025L2323.6 158.478V71.572L2328.91 79.9055L2334.82 71.572V147.763L2338.95 143.001V165.025H2344.26V109.668H2350.16V117.406H2356.06V89.4294H2358.43V165.025H2361.38L2372 125.144V89.4294H2382.63V31.0954L2395.61 18V67.4053L2405.06 75.1435V82.8817L2412.73 89.4294V125.144H2419.22V119.192H2422.76V125.144H2426.89V119.192H2430.44V125.144H2436.04V121.573H2438.7V125.144H2441.65V165.025H2446.08L2446.37 129.906H2450.5V115.62H2452.87V165.025H2459.36V73.3578L2474.7 97.7628H2487.69V135.858H2490.64V140.62H2495.95V145.382H2499.5V150.74H2505.4V89.4294L2530.78 73.3578V134.073H2536.68V128.12H2540.22V121.573H2544.35V115.62H2548.49V121.573H2552.62V128.12H2555.57V62.6434H2566.19V50.1432H2578V40.6193L2590.98 31.0954V176.335H2596.3V119.192H2601.61V128.12H2605.74V176.335H2609.87V134.073H2615.18H2620.5V89.4294L2626.04 115.62H2632.3V125.144H2637.61V134.073H2645.29V128.12H2652.96V73.3578L2675.98 50.1432L2699 73.3578V181.692H2691.83H2663.16H2652.96H2647.63H2637.61H2629.94H2609.87H2590.98H2560.42H2530.78H2505.4H2493.59H2474.7H2441.65H2426.89H2386.59H2378.23H2361.38H2338.95H2301.76Z" fill="#21262C"/>
<path d="M957.762 181.692H948.908H936.867H907V153.121V134.073H913.493L919.986 117.406H923.379V89.4294L926.404 82.8817L929.43 89.4294V117.406H933.561L939.464 134.073H948.908V162.049H957.762V50.1432L965.435 44.1908L973.108 50.1432V165.025L979.601 158.478V71.572L984.913 79.9055L990.816 71.572V147.763L994.947 143.001V165.025H1000.26V109.668H1006.16V117.406H1012.06V89.4294H1014.43V165.025H1017.38L1028 125.144V89.4294H1038.63V31.0954L1051.61 18V67.4053L1061.06 75.1435V82.8817L1068.73 89.4294V125.144H1075.22V119.192H1078.76V125.144H1082.89V119.192H1086.44V125.144H1092.04V121.573H1094.7V125.144H1097.65V165.025H1102.08L1102.37 129.906H1106.5V115.62H1108.87V165.025H1115.36V73.3578L1130.7 97.7628H1143.69V135.858H1146.64V140.62H1151.95V145.382H1155.5V150.74H1161.4V89.4294L1186.78 73.3578V134.073H1192.68V128.12H1196.22V121.573H1200.35V115.62H1204.49V121.573H1208.62V128.12H1211.57V62.6434H1222.19V50.1432H1234V40.6193L1246.98 31.0954V176.335H1252.3V119.192H1257.61V128.12H1261.74V176.335H1265.87V134.073H1271.18H1276.5V89.4294L1282.04 115.62H1288.3V125.144H1293.61V134.073H1301.29V128.12H1308.96V73.3578L1331.98 50.1432L1355 73.3578V181.692H1347.83H1319.16H1308.96H1303.63H1293.61H1285.94H1265.87H1246.98H1216.42H1186.78H1161.4H1149.59H1130.7H1097.65H1082.89H1042.59H1034.23H1017.38H994.947H957.762Z" fill="#21262C"/>
<path d="M1405.76 181.692H1396.91H1384.87H1355V153.121V134.073H1361.49L1367.99 117.406H1371.38V89.4294L1374.4 82.8817L1377.43 89.4294V117.406H1381.56L1387.46 134.073H1396.91V162.049H1405.76V50.1432L1413.43 44.1908L1421.11 50.1432V165.025L1427.6 158.478V71.572L1432.91 79.9055L1438.82 71.572V147.763L1442.95 143.001V165.025H1448.26V109.668H1454.16V117.406H1460.06V89.4294H1462.43V165.025H1465.38L1476 125.144V89.4294H1486.63V31.0954L1499.61 18V67.4053L1509.06 75.1435V82.8817L1516.73 89.4294V125.144H1523.22V119.192H1526.76V125.144H1530.89V119.192H1534.44V125.144H1540.04V121.573H1542.7V125.144H1545.65V165.025H1550.08L1550.37 129.906H1554.5V115.62H1556.87V165.025H1563.36V73.3578L1578.7 97.7628H1591.69V135.858H1594.64V140.62H1599.95V145.382H1603.5V150.74H1609.4V89.4294L1634.78 73.3578V134.073H1640.68V128.12H1644.22V121.573H1648.35V115.62H1652.49V121.573H1656.62V128.12H1659.57V62.6434H1670.19V50.1432H1682V40.6193L1694.98 31.0954V176.335H1700.3V119.192H1705.61V128.12H1709.74V176.335H1713.87V134.073H1719.18H1724.5V89.4294L1730.04 115.62H1736.3V125.144H1741.61V134.073H1749.29V128.12H1756.96V73.3578L1779.98 50.1432L1803 73.3578V181.692H1795.83H1767.16H1756.96H1751.63H1741.61H1733.94H1713.87H1694.98H1664.42H1634.78H1609.4H1597.59H1578.7H1545.65H1530.89H1490.59H1482.23H1465.38H1442.95H1405.76Z" fill="#21262C"/>
<path d="M61.7615 181.692H52.9078H40.8667H11V153.121V134.073H17.4928L23.9855 117.406H27.3794V89.4294L30.4045 82.8817L33.4295 89.4294V117.406H37.5613L43.4638 134.073H52.9078V162.049H61.7615V50.1432L69.4348 44.1908L77.108 50.1432V165.025L83.6008 158.478V71.572L88.913 79.9055L94.8155 71.572V147.763L98.9473 143.001V165.025H104.26V109.668H110.162V117.406H116.065V89.4294H118.426V165.025H121.377L132.001 125.144V89.4294H142.626V31.0954L155.611 18V67.4053L165.055 75.1435V82.8817L172.729 89.4294V125.144H179.221V119.192H182.763V125.144H186.895V119.192H190.436V125.144H196.043V121.573H198.7V125.144H201.651V165.025H206.078L206.373 129.906H210.505V115.62H212.866V165.025H219.358V73.3578L234.705 97.7628H247.69V135.858H250.642V140.62H255.954V145.382H259.495V150.74H265.398V89.4294L290.779 73.3578V134.073H296.681V128.12H300.223V121.573H304.354V115.62H308.486V121.573H312.618V128.12H315.569V62.6434H326.194V50.1432H337.999V40.6193L350.984 31.0954V176.335H356.296V119.192H361.609V128.12H365.74V176.335H369.872V134.073H375.184H380.497V89.4294L386.037 115.62H392.302V125.144H397.614V134.073H405.287V128.12H412.96V73.3578L435.98 50.1432L459 73.3578V181.692H451.832H423.16H412.96H407.629H397.614H389.941H369.872H350.984H320.419H290.779H265.398H253.593H234.705H201.651H186.895H146.595H138.232H121.377H98.9473H61.7615Z" fill="#21262C"/>
<path d="M509.762 181.692H500.908H488.867H459L459 153.121V134.073H465.493L471.986 117.406H475.379V89.4294L478.404 82.8817L481.43 89.4294V117.406H485.561L491.464 134.073H500.908V162.049H509.762V50.1432L517.435 44.1908L525.108 50.1432V165.025L531.601 158.478V71.572L536.913 79.9055L542.816 71.572V147.763L546.947 143.001V165.025H552.26V109.668H558.162V117.406H564.065V89.4294H566.426V165.025H569.377L580.001 125.144V89.4294H590.626V31.0954L603.611 18V67.4053L613.055 75.1435V82.8817L620.729 89.4294V125.144H627.221V119.192H630.763V125.144H634.895V119.192H638.436V125.144H644.043V121.573H646.7V125.144H649.651V165.025H654.078L654.373 129.906H658.505V115.62H660.866V165.025H667.358V73.3578L682.705 97.7628H695.69V135.858H698.642V140.62H703.954V145.382H707.495V150.74H713.398V89.4294L738.779 73.3578V134.073H744.681V128.12H748.223V121.573H752.354V115.62H756.486V121.573H760.618V128.12H763.569V62.6434H774.194V50.1432H785.999V40.6193L798.984 31.0954V176.335H804.296V119.192H809.609V128.12H813.74V176.335H817.872V134.073H823.184H828.497V89.4294L834.037 115.62H840.302V125.144H845.614V134.073H853.287V128.12H860.96V73.3578L883.98 50.1432L907 73.3578V181.692H899.832H871.16H860.96H855.629H845.614H837.941H817.872H798.984H768.419H738.779H713.398H701.593H682.705H649.651H634.895H594.595H586.232H569.377H546.947H509.762Z" fill="#21262C"/>
<path d="M1844.91 181.692H1853.76M1844.91 181.692H1832.87M1844.91 181.692V162.049M1853.76 181.692V178.716M1853.76 181.692H1890.95M1869.11 165.025V50.1432L1861.43 44.1908L1853.76 50.1432V162.049M1869.11 165.025L1875.6 158.478M1869.11 165.025L1853.76 178.716M1890.95 165.025V143.001L1886.82 147.763M1890.95 165.025H1896.26M1890.95 165.025V181.692M1947.61 89.4294H1964.73M1947.61 89.4294V67.4053M1947.61 89.4294V125.144M1964.73 89.4294V125.144H1971.22M1964.73 89.4294L1957.06 82.8817V75.1435L1947.61 67.4053M1993.65 165.025V125.144H1990.7M1993.65 165.025H1998.08M1993.65 165.025V181.692M2026.7 97.7628L2011.36 73.3578V165.025H2004.87M2026.7 97.7628H2039.69V135.858M2026.7 97.7628V181.692M2057.4 150.74V89.4294L2082.78 73.3578V134.073M2057.4 150.74H2051.5M2057.4 150.74V181.692M2082.78 134.073H2088.68M2082.78 134.073V181.692M2142.98 176.335V31.0954L2130 40.6193V50.1432H2118.19V62.6434H2107.57V128.12M2142.98 176.335H2148.3M2142.98 176.335V181.692M2161.87 176.335V134.073H2167.18M2161.87 176.335H2157.74M2161.87 176.335V181.692M2251 181.692V73.3578L2227.98 50.1432L2204.96 73.3578V128.12M2251 181.692H2243.83M2251 181.692V153.121M2251 181.692H2280.87M1913.38 165.025L1924 125.144V89.4294H1934.63V31.0954L1947.61 18V67.4053M1913.38 165.025H1910.43M1913.38 165.025V181.692M2002.5 165.025H2004.87M2002.5 165.025V129.906M2002.5 165.025H1998.08M2004.87 165.025V115.62H2002.5V129.906M2002.5 129.906H1998.37L1998.08 165.025M1896.26 165.025V109.668H1902.16V117.406H1908.06V89.4294H1910.43V165.025M1896.26 165.025H1899.77M1910.43 165.025H1905.1M1875.6 158.478V71.572L1880.91 79.9055L1886.82 71.572V147.763M1875.6 158.478L1886.82 147.763M1971.22 125.144V119.192H1974.76V125.144M1971.22 125.144H1974.76M1974.76 125.144H1978.89M1978.89 125.144V119.192H1982.44V125.144M1978.89 125.144H1982.44M1982.44 125.144H1988.04M1988.04 125.144V121.573H1990.7V125.144M1988.04 125.144H1990.7M1809.49 134.073H1803V153.121M1809.49 134.073L1815.99 117.406H1819.38M1809.49 134.073H1835.46M1835.46 134.073H1844.91V162.049M1835.46 134.073L1829.56 117.406H1825.43M1819.38 117.406V89.4294L1822.4 82.8817L1825.43 89.4294V117.406M1819.38 117.406H1825.43M2039.69 135.858V150.74H2045.59M2039.69 135.858H2042.64V140.62H2047.95V145.382H2051.5V150.74M2051.5 150.74H2045.59M2088.68 134.073H2107.57M2088.68 134.073V128.12H2092.22V121.573H2096.35V115.62H2100.49V121.573H2104.62V128.12H2107.57M2107.57 134.073V128.12M2107.57 134.073H2112.42V181.692M2148.3 176.335V119.192H2153.61V128.12H2157.74V176.335M2148.3 176.335H2157.74M2204.96 134.073V128.12M2204.96 134.073H2197.29M2204.96 134.073V181.692M2204.96 128.12H2197.29V134.073M2197.29 134.073H2189.61M2181.94 134.073H2189.61M2181.94 134.073L2178.04 115.62M2181.94 134.073V143.001M2189.61 134.073V125.144H2184.3V115.62H2178.04M2178.04 115.62L2172.5 89.4294V134.073H2167.18M1803 181.692V153.121M1803 181.692H1832.87M1803 181.692V73.3578L1779.98 50.1432L1756.96 73.3578V128.12M1803 181.692H1795.83M1803 153.121H1819.38V171.573H1832.87V181.692M1853.76 178.716V162.049M1890.95 181.692H1913.38M1913.38 181.692H1930.23M1899.77 165.025V158.478H1905.14L1905.1 165.025M1899.77 165.025H1905.1M1930.23 181.692V147.763H1938.59M1930.23 181.692H1938.59M1938.59 147.763V125.144H1947.61M1938.59 147.763V181.692M1978.89 181.692V165.025H1964.73V143.001H1952.93V125.144H1947.61M1978.89 181.692H1938.59M1978.89 181.692H1993.65M1844.91 162.049H1853.76M1993.65 181.692H2026.7M2026.7 181.692H2045.59M2057.4 181.692H2045.59M2057.4 181.692H2082.78M2045.59 150.74V181.692M2082.78 181.692H2112.42M2112.42 181.692H2142.98M2142.98 181.692H2161.87M2161.87 181.692H2181.94M2181.94 181.692V143.001M2181.94 181.692H2189.61M2167.18 134.073V143.001H2181.94M2204.96 181.692H2215.16M2204.96 181.692H2199.63M2215.16 181.692V157.287H2226.51V168.002H2243.83V181.692M2215.16 181.692H2243.83M2189.61 181.692V173.954H2197.29V168.002H2199.63V181.692M2189.61 181.692H2199.63M2292.91 181.692H2301.76M2292.91 181.692H2280.87M2292.91 181.692V162.049M2301.76 181.692V178.716M2301.76 181.692H2338.95M2317.11 165.025V50.1432L2309.43 44.1908L2301.76 50.1432V162.049M2317.11 165.025L2323.6 158.478M2317.11 165.025L2301.76 178.716M2338.95 165.025V143.001L2334.82 147.763M2338.95 165.025H2344.26M2338.95 165.025V181.692M2395.61 89.4294H2412.73M2395.61 89.4294V67.4053M2395.61 89.4294V125.144M2412.73 89.4294V125.144H2419.22M2412.73 89.4294L2405.06 82.8817V75.1435L2395.61 67.4053M2441.65 165.025V125.144H2438.7M2441.65 165.025H2446.08M2441.65 165.025V181.692M2474.7 97.7628L2459.36 73.3578V165.025H2452.87M2474.7 97.7628H2487.69V135.858M2474.7 97.7628V181.692M2505.4 150.74V89.4294L2530.78 73.3578V134.073M2505.4 150.74H2499.5M2505.4 150.74V181.692M2530.78 134.073H2536.68M2530.78 134.073V181.692M2590.98 176.335V31.0954L2578 40.6193V50.1432H2566.19V62.6434H2555.57V128.12M2590.98 176.335H2596.3M2590.98 176.335V181.692M2609.87 176.335V134.073H2615.18M2609.87 176.335H2605.74M2609.87 176.335V181.692M2361.38 165.025L2372 125.144V89.4294H2382.63V31.0954L2395.61 18V67.4053M2361.38 165.025H2358.43M2361.38 165.025V181.692M2450.5 165.025H2452.87M2450.5 165.025V129.906M2450.5 165.025H2446.08M2452.87 165.025V115.62H2450.5V129.906M2450.5 129.906H2446.37L2446.08 165.025M2344.26 165.025V109.668H2350.16V117.406H2356.06V89.4294H2358.43V165.025M2344.26 165.025H2347.77M2358.43 165.025H2353.1M2323.6 158.478V71.572L2328.91 79.9055L2334.82 71.572V147.763M2323.6 158.478L2334.82 147.763M2419.22 125.144V119.192H2422.76V125.144M2419.22 125.144H2422.76M2422.76 125.144H2426.89M2426.89 125.144V119.192H2430.44V125.144M2426.89 125.144H2430.44M2430.44 125.144H2436.04M2436.04 125.144V121.573H2438.7V125.144M2436.04 125.144H2438.7M2257.49 134.073H2251V153.121M2257.49 134.073L2263.99 117.406H2267.38M2257.49 134.073H2283.46M2283.46 134.073H2292.91V162.049M2283.46 134.073L2277.56 117.406H2273.43M2267.38 117.406V89.4294L2270.4 82.8817L2273.43 89.4294V117.406M2267.38 117.406H2273.43M2487.69 135.858V150.74H2493.59M2487.69 135.858H2490.64V140.62H2495.95V145.382H2499.5V150.74M2499.5 150.74H2493.59M2536.68 134.073H2555.57M2536.68 134.073V128.12H2540.22V121.573H2544.35V115.62H2548.49V121.573H2552.62V128.12H2555.57M2555.57 134.073V128.12M2555.57 134.073H2560.42V181.692M2596.3 176.335V119.192H2601.61V128.12H2605.74V176.335M2596.3 176.335H2605.74M2652.96 134.073V128.12M2652.96 134.073H2645.29M2652.96 134.073V181.692M2652.96 128.12V73.3578L2675.98 50.1432L2699 73.3578V181.692H2691.83M2652.96 128.12H2645.29V134.073M2645.29 134.073H2637.61M2629.94 134.073H2637.61M2629.94 134.073L2626.04 115.62M2629.94 134.073V143.001M2637.61 134.073V125.144H2632.3V115.62H2626.04M2626.04 115.62L2620.5 89.4294V134.073H2615.18M2251 153.121H2267.38V171.573H2280.87V181.692M2301.76 178.716V162.049M2338.95 181.692H2361.38M2361.38 181.692H2378.23M2347.77 165.025V158.478H2353.14L2353.1 165.025M2347.77 165.025H2353.1M2378.23 181.692V147.763H2386.59M2378.23 181.692H2386.59M2386.59 147.763V125.144H2395.61M2386.59 147.763V181.692M2426.89 181.692V165.025H2412.73V143.001H2400.93V125.144H2395.61M2426.89 181.692H2386.59M2426.89 181.692H2441.65M2292.91 162.049H2301.76M2441.65 181.692H2474.7M2474.7 181.692H2493.59M2505.4 181.692H2493.59M2505.4 181.692H2530.78M2493.59 150.74V181.692M2530.78 181.692H2560.42M2560.42 181.692H2590.98M2590.98 181.692H2609.87M2609.87 181.692H2629.94M2629.94 181.692V143.001M2629.94 181.692H2637.61M2615.18 134.073V143.001H2629.94M2652.96 181.692H2663.16M2652.96 181.692H2647.63M2663.16 181.692V157.287H2674.51V168.002H2691.83V181.692M2663.16 181.692H2691.83M2637.61 181.692V173.954H2645.29V168.002H2647.63V181.692M2637.61 181.692H2647.63M948.908 181.692H957.762M948.908 181.692H936.867M948.908 181.692V162.049M957.762 181.692V178.716M957.762 181.692H994.947M973.108 165.025V50.1432L965.435 44.1908L957.762 50.1432V162.049M973.108 165.025L979.601 158.478M973.108 165.025L957.762 178.716M994.947 165.025V143.001L990.816 147.763M994.947 165.025H1000.26M994.947 165.025V181.692M1051.61 89.4294H1068.73M1051.61 89.4294V67.4053M1051.61 89.4294V125.144M1068.73 89.4294V125.144H1075.22M1068.73 89.4294L1061.06 82.8817V75.1435L1051.61 67.4053M1097.65 165.025V125.144H1094.7M1097.65 165.025H1102.08M1097.65 165.025V181.692M1130.7 97.7628L1115.36 73.3578V165.025H1108.87M1130.7 97.7628H1143.69V135.858M1130.7 97.7628V181.692M1161.4 150.74V89.4294L1186.78 73.3578V134.073M1161.4 150.74H1155.5M1161.4 150.74V181.692M1186.78 134.073H1192.68M1186.78 134.073V181.692M1246.98 176.335V31.0954L1234 40.6193V50.1432H1222.19V62.6434H1211.57V128.12M1246.98 176.335H1252.3M1246.98 176.335V181.692M1265.87 176.335V134.073H1271.18M1265.87 176.335H1261.74M1265.87 176.335V181.692M1355 181.692V73.3578L1331.98 50.1432L1308.96 73.3578V128.12M1355 181.692H1347.83M1355 181.692V153.121M1355 181.692H1384.87M1017.38 165.025L1028 125.144V89.4294H1038.63V31.0954L1051.61 18V67.4053M1017.38 165.025H1014.43M1017.38 165.025V181.692M1106.5 165.025H1108.87M1106.5 165.025V129.906M1106.5 165.025H1102.08M1108.87 165.025V115.62H1106.5V129.906M1106.5 129.906H1102.37L1102.08 165.025M1000.26 165.025V109.668H1006.16V117.406H1012.06V89.4294H1014.43V165.025M1000.26 165.025H1003.77M1014.43 165.025H1009.1M979.601 158.478V71.572L984.913 79.9055L990.816 71.572V147.763M979.601 158.478L990.816 147.763M1075.22 125.144V119.192H1078.76V125.144M1075.22 125.144H1078.76M1078.76 125.144H1082.89M1082.89 125.144V119.192H1086.44V125.144M1082.89 125.144H1086.44M1086.44 125.144H1092.04M1092.04 125.144V121.573H1094.7V125.144M1092.04 125.144H1094.7M913.493 134.073H907V153.121M913.493 134.073L919.986 117.406H923.379M913.493 134.073H939.464M939.464 134.073H948.908V162.049M939.464 134.073L933.561 117.406H929.43M923.379 117.406V89.4294L926.404 82.8817L929.43 89.4294V117.406M923.379 117.406H929.43M1143.69 135.858V150.74H1149.59M1143.69 135.858H1146.64V140.62H1151.95V145.382H1155.5V150.74M1155.5 150.74H1149.59M1192.68 134.073H1211.57M1192.68 134.073V128.12H1196.22V121.573H1200.35V115.62H1204.49V121.573H1208.62V128.12H1211.57M1211.57 134.073V128.12M1211.57 134.073H1216.42V181.692M1252.3 176.335V119.192H1257.61V128.12H1261.74V176.335M1252.3 176.335H1261.74M1308.96 134.073V128.12M1308.96 134.073H1301.29M1308.96 134.073V181.692M1308.96 128.12H1301.29V134.073M1301.29 134.073H1293.61M1285.94 134.073H1293.61M1285.94 134.073L1282.04 115.62M1285.94 134.073V143.001M1293.61 134.073V125.144H1288.3V115.62H1282.04M1282.04 115.62L1276.5 89.4294V134.073H1271.18M907 181.692V153.121M907 181.692H936.867M907 181.692V73.3578L883.98 50.1432L860.96 73.3578V128.12M907 181.692H899.832M907 153.121H923.379V171.573H936.867V181.692M957.762 178.716V162.049M994.947 181.692H1017.38M1017.38 181.692H1034.23M1003.77 165.025V158.478H1009.14L1009.1 165.025M1003.77 165.025H1009.1M1034.23 181.692V147.763H1042.59M1034.23 181.692H1042.59M1042.59 147.763V125.144H1051.61M1042.59 147.763V181.692M1082.89 181.692V165.025H1068.73V143.001H1056.93V125.144H1051.61M1082.89 181.692H1042.59M1082.89 181.692H1097.65M948.908 162.049H957.762M1097.65 181.692H1130.7M1130.7 181.692H1149.59M1161.4 181.692H1149.59M1161.4 181.692H1186.78M1149.59 150.74V181.692M1186.78 181.692H1216.42M1216.42 181.692H1246.98M1246.98 181.692H1265.87M1265.87 181.692H1285.94M1285.94 181.692V143.001M1285.94 181.692H1293.61M1271.18 134.073V143.001H1285.94M1308.96 181.692H1319.16M1308.96 181.692H1303.63M1319.16 181.692V157.287H1330.51V168.002H1347.83V181.692M1319.16 181.692H1347.83M1293.61 181.692V173.954H1301.29V168.002H1303.63V181.692M1293.61 181.692H1303.63M1396.91 181.692H1405.76M1396.91 181.692H1384.87M1396.91 181.692V162.049M1405.76 181.692V178.716M1405.76 181.692H1442.95M1421.11 165.025V50.1432L1413.43 44.1908L1405.76 50.1432V162.049M1421.11 165.025L1427.6 158.478M1421.11 165.025L1405.76 178.716M1442.95 165.025V143.001L1438.82 147.763M1442.95 165.025H1448.26M1442.95 165.025V181.692M1499.61 89.4294H1516.73M1499.61 89.4294V67.4053M1499.61 89.4294V125.144M1516.73 89.4294V125.144H1523.22M1516.73 89.4294L1509.06 82.8817V75.1435L1499.61 67.4053M1545.65 165.025V125.144H1542.7M1545.65 165.025H1550.08M1545.65 165.025V181.692M1578.7 97.7628L1563.36 73.3578V165.025H1556.87M1578.7 97.7628H1591.69V135.858M1578.7 97.7628V181.692M1609.4 150.74V89.4294L1634.78 73.3578V134.073M1609.4 150.74H1603.5M1609.4 150.74V181.692M1634.78 134.073H1640.68M1634.78 134.073V181.692M1694.98 176.335V31.0954L1682 40.6193V50.1432H1670.19V62.6434H1659.57V128.12M1694.98 176.335H1700.3M1694.98 176.335V181.692M1713.87 176.335V134.073H1719.18M1713.87 176.335H1709.74M1713.87 176.335V181.692M1465.38 165.025L1476 125.144V89.4294H1486.63V31.0954L1499.61 18V67.4053M1465.38 165.025H1462.43M1465.38 165.025V181.692M1554.5 165.025H1556.87M1554.5 165.025V129.906M1554.5 165.025H1550.08M1556.87 165.025V115.62H1554.5V129.906M1554.5 129.906H1550.37L1550.08 165.025M1448.26 165.025V109.668H1454.16V117.406H1460.06V89.4294H1462.43V165.025M1448.26 165.025H1451.77M1462.43 165.025H1457.1M1427.6 158.478V71.572L1432.91 79.9055L1438.82 71.572V147.763M1427.6 158.478L1438.82 147.763M1523.22 125.144V119.192H1526.76V125.144M1523.22 125.144H1526.76M1526.76 125.144H1530.89M1530.89 125.144V119.192H1534.44V125.144M1530.89 125.144H1534.44M1534.44 125.144H1540.04M1540.04 125.144V121.573H1542.7V125.144M1540.04 125.144H1542.7M1361.49 134.073H1355V153.121M1361.49 134.073L1367.99 117.406H1371.38M1361.49 134.073H1387.46M1387.46 134.073H1396.91V162.049M1387.46 134.073L1381.56 117.406H1377.43M1371.38 117.406V89.4294L1374.4 82.8817L1377.43 89.4294V117.406M1371.38 117.406H1377.43M1591.69 135.858V150.74H1597.59M1591.69 135.858H1594.64V140.62H1599.95V145.382H1603.5V150.74M1603.5 150.74H1597.59M1640.68 134.073H1659.57M1640.68 134.073V128.12H1644.22V121.573H1648.35V115.62H1652.49V121.573H1656.62V128.12H1659.57M1659.57 134.073V128.12M1659.57 134.073H1664.42V181.692M1700.3 176.335V119.192H1705.61V128.12H1709.74V176.335M1700.3 176.335H1709.74M1756.96 134.073V128.12M1756.96 134.073H1749.29M1756.96 134.073V181.692M1756.96 128.12H1749.29V134.073M1749.29 134.073H1741.61M1733.94 134.073H1741.61M1733.94 134.073L1730.04 115.62M1733.94 134.073V143.001M1741.61 134.073V125.144H1736.3V115.62H1730.04M1730.04 115.62L1724.5 89.4294V134.073H1719.18M1355 153.121H1371.38V171.573H1384.87V181.692M1405.76 178.716V162.049M1442.95 181.692H1465.38M1465.38 181.692H1482.23M1451.77 165.025V158.478H1457.14L1457.1 165.025M1451.77 165.025H1457.1M1482.23 181.692V147.763H1490.59M1482.23 181.692H1490.59M1490.59 147.763V125.144H1499.61M1490.59 147.763V181.692M1530.89 181.692V165.025H1516.73V143.001H1504.93V125.144H1499.61M1530.89 181.692H1490.59M1530.89 181.692H1545.65M1396.91 162.049H1405.76M1545.65 181.692H1578.7M1578.7 181.692H1597.59M1609.4 181.692H1597.59M1609.4 181.692H1634.78M1597.59 150.74V181.692M1634.78 181.692H1664.42M1664.42 181.692H1694.98M1694.98 181.692H1713.87M1713.87 181.692H1733.94M1733.94 181.692V143.001M1733.94 181.692H1741.61M1719.18 134.073V143.001H1733.94M1756.96 181.692H1767.16M1756.96 181.692H1751.63M1767.16 181.692V157.287H1778.51V168.002H1795.83V181.692M1767.16 181.692H1795.83M1741.61 181.692V173.954H1749.29V168.002H1751.63V181.692M1741.61 181.692H1751.63M52.9078 181.692H61.7615M52.9078 181.692H40.8667M52.9078 181.692V162.049M61.7615 181.692V178.716M61.7615 181.692H98.9473M77.108 165.025V50.1432L69.4348 44.1908L61.7615 50.1432V162.049M77.108 165.025L83.6008 158.478M77.108 165.025L61.7615 178.716M98.9473 165.025V143.001L94.8155 147.763M98.9473 165.025H104.26M98.9473 165.025V181.692M155.611 89.4294H172.729M155.611 89.4294V67.4053M155.611 89.4294V125.144M172.729 89.4294V125.144H179.221M172.729 89.4294L165.055 82.8817V75.1435L155.611 67.4053M201.651 165.025V125.144H198.7M201.651 165.025H206.078M201.651 165.025V181.692M234.705 97.7628L219.358 73.3578V165.025H212.866M234.705 97.7628H247.69V135.858M234.705 97.7628V181.692M265.398 150.74V89.4294L290.779 73.3578V134.073M265.398 150.74H259.495M265.398 150.74V181.692M290.779 134.073H296.681M290.779 134.073V181.692M350.984 176.335V31.0954L337.999 40.6193V50.1432H326.194V62.6434H315.569V128.12M350.984 176.335H356.296M350.984 176.335V181.692M369.872 176.335V134.073H375.184M369.872 176.335H365.74M369.872 176.335V181.692M459 181.692V73.3578L435.98 50.1432L412.96 73.3578V128.12M459 181.692H451.832M459 181.692L459 153.121M459 181.692H488.867M121.377 165.025L132.001 125.144V89.4294H142.626V31.0954L155.611 18V67.4053M121.377 165.025H118.426M121.377 165.025V181.692M210.505 165.025H212.866M210.505 165.025V129.906M210.505 165.025H206.078M212.866 165.025V115.62H210.505V129.906M210.505 129.906H206.373L206.078 165.025M104.26 165.025V109.668H110.162V117.406H116.065V89.4294H118.426V165.025M104.26 165.025H107.768M118.426 165.025H113.097M83.6008 158.478V71.572L88.913 79.9055L94.8155 71.572V147.763M83.6008 158.478L94.8155 147.763M179.221 125.144V119.192H182.763V125.144M179.221 125.144H182.763M182.763 125.144H186.895M186.895 125.144V119.192H190.436V125.144M186.895 125.144H190.436M190.436 125.144H196.043M196.043 125.144V121.573H198.7V125.144M196.043 125.144H198.7M17.4928 134.073H11V153.121M17.4928 134.073L23.9855 117.406H27.3794M17.4928 134.073H43.4638M43.4638 134.073H52.9078V162.049M43.4638 134.073L37.5613 117.406H33.4295M27.3794 117.406V89.4294L30.4045 82.8817L33.4295 89.4294V117.406M27.3794 117.406H33.4295M247.69 135.858V150.74H253.593M247.69 135.858H250.642V140.62H255.954V145.382H259.495V150.74M259.495 150.74H253.593M296.681 134.073H315.569M296.681 134.073V128.12H300.223V121.573H304.354V115.62H308.486V121.573H312.618V128.12H315.569M315.569 134.073V128.12M315.569 134.073H320.419V181.692M356.296 176.335V119.192H361.609V128.12H365.74V176.335M356.296 176.335H365.74M412.96 134.073V128.12M412.96 134.073H405.287M412.96 134.073V181.692M412.96 128.12H405.287V134.073M405.287 134.073H397.614M389.941 134.073H397.614M389.941 134.073L386.037 115.62M389.941 134.073V143.001M397.614 134.073V125.144H392.302V115.62H386.037M386.037 115.62L380.497 89.4294V134.073H375.184M11 153.121V181.692H40.8667M11 153.121H27.3794V171.573H40.8667V181.692M61.7615 178.716V162.049M98.9473 181.692H121.377M121.377 181.692H138.232M107.768 165.025V158.478H113.144L113.097 165.025M107.768 165.025H113.097M138.232 181.692V147.763H146.595M138.232 181.692H146.595M146.595 147.763V125.144H155.611M146.595 147.763V181.692M186.895 181.692V165.025H172.729V143.001H160.931V125.144H155.611M186.895 181.692H146.595M186.895 181.692H201.651M52.9078 162.049H61.7615M201.651 181.692H234.705M234.705 181.692H253.593M265.398 181.692H253.593M265.398 181.692H290.779M253.593 150.74V181.692M290.779 181.692H320.419M320.419 181.692H350.984M350.984 181.692H369.872M369.872 181.692H389.941M389.941 181.692V143.001M389.941 181.692H397.614M375.184 134.073V143.001H389.941M412.96 181.692H423.16M412.96 181.692H407.629M423.16 181.692V157.287H434.509V168.002H451.832V181.692M423.16 181.692H451.832M397.614 181.692V173.954H405.287V168.002H407.629V181.692M397.614 181.692H407.629M500.908 181.692H509.762M500.908 181.692H488.867M500.908 181.692V162.049M509.762 181.692V178.716M509.762 181.692H546.947M525.108 165.025V50.1432L517.435 44.1908L509.762 50.1432V162.049M525.108 165.025L531.601 158.478M525.108 165.025L509.762 178.716M546.947 165.025V143.001L542.816 147.763M546.947 165.025H552.26M546.947 165.025V181.692M603.611 89.4294H620.729M603.611 89.4294V67.4053M603.611 89.4294V125.144M620.729 89.4294V125.144H627.221M620.729 89.4294L613.055 82.8817V75.1435L603.611 67.4053M649.651 165.025V125.144H646.7M649.651 165.025H654.078M649.651 165.025V181.692M682.705 97.7628L667.358 73.3578V165.025H660.866M682.705 97.7628H695.69V135.858M682.705 97.7628V181.692M713.398 150.74V89.4294L738.779 73.3578V134.073M713.398 150.74H707.495M713.398 150.74V181.692M738.779 134.073H744.681M738.779 134.073V181.692M798.984 176.335V31.0954L785.999 40.6193V50.1432H774.194V62.6434H763.569V128.12M798.984 176.335H804.296M798.984 176.335V181.692M817.872 176.335V134.073H823.184M817.872 176.335H813.74M817.872 176.335V181.692M569.377 165.025L580.001 125.144V89.4294H590.626V31.0954L603.611 18V67.4053M569.377 165.025H566.426M569.377 165.025V181.692M658.505 165.025H660.866M658.505 165.025V129.906M658.505 165.025H654.078M660.866 165.025V115.62H658.505V129.906M658.505 129.906H654.373L654.078 165.025M552.26 165.025V109.668H558.162V117.406H564.065V89.4294H566.426V165.025M552.26 165.025H555.768M566.426 165.025H561.097M531.601 158.478V71.572L536.913 79.9055L542.816 71.572V147.763M531.601 158.478L542.816 147.763M627.221 125.144V119.192H630.763V125.144M627.221 125.144H630.763M630.763 125.144H634.895M634.895 125.144V119.192H638.436V125.144M634.895 125.144H638.436M638.436 125.144H644.043M644.043 125.144V121.573H646.7V125.144M644.043 125.144H646.7M465.493 134.073H459V153.121M465.493 134.073L471.986 117.406H475.379M465.493 134.073H491.464M491.464 134.073H500.908V162.049M491.464 134.073L485.561 117.406H481.43M475.379 117.406V89.4294L478.404 82.8817L481.43 89.4294V117.406M475.379 117.406H481.43M695.69 135.858V150.74H701.593M695.69 135.858H698.642V140.62H703.954V145.382H707.495V150.74M707.495 150.74H701.593M744.681 134.073H763.569M744.681 134.073V128.12H748.223V121.573H752.354V115.62H756.486V121.573H760.618V128.12H763.569M763.569 134.073V128.12M763.569 134.073H768.419V181.692M804.296 176.335V119.192H809.609V128.12H813.74V176.335M804.296 176.335H813.74M860.96 134.073V128.12M860.96 134.073H853.287M860.96 134.073V181.692M860.96 128.12H853.287V134.073M853.287 134.073H845.614M837.941 134.073H845.614M837.941 134.073L834.037 115.62M837.941 134.073V143.001M845.614 134.073V125.144H840.302V115.62H834.037M834.037 115.62L828.497 89.4294V134.073H823.184M459 153.121H475.379V171.573H488.867V181.692M509.762 178.716V162.049M546.947 181.692H569.377M569.377 181.692H586.232M555.768 165.025V158.478H561.144L561.097 165.025M555.768 165.025H561.097M586.232 181.692V147.763H594.595M586.232 181.692H594.595M594.595 147.763V125.144H603.611M594.595 147.763V181.692M634.895 181.692V165.025H620.729V143.001H608.931V125.144H603.611M634.895 181.692H594.595M634.895 181.692H649.651M500.908 162.049H509.762M649.651 181.692H682.705M682.705 181.692H701.593M713.398 181.692H701.593M713.398 181.692H738.779M701.593 150.74V181.692M738.779 181.692H768.419M768.419 181.692H798.984M798.984 181.692H817.872M817.872 181.692H837.941M837.941 181.692V143.001M837.941 181.692H845.614M823.184 134.073V143.001H837.941M860.96 181.692H871.16M860.96 181.692H855.629M871.16 181.692V157.287H882.509V168.002H899.832V181.692M871.16 181.692H899.832M845.614 181.692V173.954H853.287V168.002H855.629V181.692M845.614 181.692H855.629" stroke="#606F7B" stroke-width="2"/>
</g>
<defs>
<filter id="filter0_d" x="0" y="0.57132" width="2710" height="187.121" filterUnits="userSpaceOnUse" color-interpolation-filters="sRGB">
<feFlood flood-opacity="0" result="BackgroundImageFix"/>
<feColorMatrix in="SourceAlpha" type="matrix" values="0 0 0 0 0 0 0 0 0 0 0 0 0 0 0 0 0 0 127 0"/>
<feOffset dy="-5"/>
<feGaussianBlur stdDeviation="5"/>
<feColorMatrix type="matrix" values="0 0 0 0 0.27451 0 0 0 0 0.984314 0 0 0 0 0.984314 0 0 0 1 0"/>
<feBlend mode="normal" in2="BackgroundImageFix" result="effect1_dropShadow"/>
<feBlend mode="normal" in="SourceGraphic" in2="effect1_dropShadow" result="shape"/>
</filter>
</defs>
</svg>
