<svg width="397" height="160" viewBox="0 0 397 160" fill="none" xmlns="http://www.w3.org/2000/svg">
<g filter="url(#filter0_d)">
<path d="M52.4901 154.5H45.0791H35H10V130.5V114.5H15.4348L20.8696 100.5H23.7105V77L26.2426 71.5L28.7747 77V100.5H32.2332L37.1739 114.5H45.0791V138H52.4901V44L58.913 39L65.336 44V140.5L70.7708 135V62L75.2174 69L80.1581 62V126L83.6166 122V140.5H88.0632V94H93.004V100.5H97.9447V77H99.921V140.5H102.391L111.285 107V77H120.178V28L131.047 17V58.5L138.953 65V71.5L145.376 77V107H150.81V102H153.775V107H157.233V102H160.198V107H164.891V104H167.115V107H169.585V140.5H173.291L173.538 111H176.996V99H178.972V140.5H184.407V63.5L197.253 84H208.123V116H210.593V120H215.04V124H218.004V128.5H222.945V77L244.19 63.5V114.5H249.13V109.5H252.095V104H255.553V99H259.012V104H262.47V109.5H264.941V54.5H273.834V44H283.715V36L294.585 28V150H299.032V102H303.478V109.5H306.937V150H310.395V114.5H314.842H319.289V77L323.926 99H329.17V107H333.617V114.5H340.04V109.5H346.462V63.5L365.731 44L385 63.5V154.5H379H355H346.462H342H333.617H327.194H310.395H294.585H269H244.19H222.945H213.063H197.253H194H169.585H157.233H123.5H116.5H102.391H83.6166H52.4901Z" fill="#3D4852"/>
<path d="M45.0791 154.5H52.4901V152M45.0791 154.5H35V146H23.7105V130.5H10M45.0791 154.5V138M65.336 140.5V44L58.913 39L52.4901 44V138M65.336 140.5L70.7708 135M65.336 140.5L52.4901 152M83.6166 140.5V122L80.1581 126M83.6166 140.5H88.0632M83.6166 140.5V154.5M83.6166 140.5H91M102.391 140.5L111.285 107V77H120.178V28L131.047 17V58.5M102.391 140.5H99.921M102.391 140.5V154.5M102.391 140.5H95.4605M131.047 77H145.376M131.047 77V58.5M131.047 77V107M145.376 77V107H150.81M145.376 77L138.953 71.5V65L131.047 58.5M169.585 140.5V107H167.115M169.585 140.5H173.291M169.585 140.5V154.5M197.253 84L184.407 63.5V140.5H178.972M197.253 84H208.123V116M197.253 84V154.5M222.945 128.5V77L244.19 63.5V114.5M222.945 128.5H218.004M222.945 128.5V154.5M244.19 114.5H249.13M244.19 114.5V154.5M264.941 114.5H249.13M264.941 114.5V109.5M264.941 114.5H269V154.5M294.585 150V28L283.715 36V44H273.834V54.5H264.941V109.5M294.585 150H299.032M294.585 150V154.5M310.395 150V114.5H314.842M310.395 150H306.937M310.395 150V154.5M327.194 114.5H333.617M327.194 114.5L323.926 99M327.194 114.5V122M346.462 114.5V109.5M346.462 114.5H340.04M346.462 114.5V154.5M176.996 140.5H178.972M176.996 140.5V111M176.996 140.5H173.291M178.972 140.5V99H176.996V111M176.996 111H173.538L173.291 140.5M88.0632 140.5V94H93.004V100.5H97.9447V77H99.921V140.5M88.0632 140.5H91M99.921 140.5H95.4605M70.7708 135V62L75.2174 69L80.1581 62V126M70.7708 135L80.1581 126M150.81 107V102H153.775V107M150.81 107H153.775M153.775 107H157.233M157.233 107V102H160.198V107M157.233 107H160.198M160.198 107H164.891M164.891 107V104H167.115V107M164.891 107H167.115M15.4348 114.5H10V130.5M15.4348 114.5L20.8696 100.5H23.7105M15.4348 114.5H37.1739M37.1739 114.5H45.0791V138M37.1739 114.5L32.2332 100.5H28.7747M23.7105 100.5H26.5514H28.7747M23.7105 100.5V77L26.2426 71.5L28.7747 77V100.5M208.123 116V128.5H213.063M208.123 116H210.593V120H215.04V124H218.004V128.5M218.004 128.5H213.063M249.13 114.5V109.5H252.095V104H255.553V99H259.012V104H262.47V109.5H264.941M299.032 150V102H303.478V109.5H306.937V150M299.032 150H306.937M346.462 109.5V63.5L365.731 44L385 63.5V154.5H379M346.462 109.5H340.04V114.5M340.04 114.5H333.617M333.617 114.5V107H329.17V99H323.926M323.926 99L319.289 77V114.5H314.842M10 130.5V154.5H169.585M52.4901 152V138M91 140.5V135H95.5L95.4605 140.5M91 140.5H95.4605M116.5 154.5V126H123.5M123.5 126V107H131.047M123.5 126V154.5M157.233 154.5V140.5H145.376V122H135.5V107H131.047M45.0791 138H52.4901M169.585 154.5H194H197.253M197.253 154.5H213.063M222.945 154.5H213.063M222.945 154.5H244.19M213.063 128.5V154.5M244.19 154.5H269M269 154.5H294.585M294.585 154.5H310.395M310.395 154.5H327.194M327.194 154.5V122M327.194 154.5H333.617M314.842 114.5V122H327.194M346.462 154.5H355M346.462 154.5H342M355 154.5V134H364.5V143H379V154.5M355 154.5H379M333.617 154.5V148H340.04V143H342V154.5M333.617 154.5H342" stroke="#606F7B"/>
</g>
<defs>
<filter id="filter0_d" x="0.5" y="0.782623" width="396" height="159.217" filterUnits="userSpaceOnUse" color-interpolation-filters="sRGB">
<feFlood flood-opacity="0" result="BackgroundImageFix"/>
<feColorMatrix in="SourceAlpha" type="matrix" values="0 0 0 0 0 0 0 0 0 0 0 0 0 0 0 0 0 0 127 0"/>
<feOffset dx="1" dy="-5"/>
<feGaussianBlur stdDeviation="5"/>
<feColorMatrix type="matrix" values="0 0 0 0 0.27451 0 0 0 0 0.984314 0 0 0 0 0.984314 0 0 0 1 0"/>
<feBlend mode="normal" in2="BackgroundImageFix" result="effect1_dropShadow"/>
<feBlend mode="normal" in="SourceGraphic" in2="effect1_dropShadow" result="shape"/>
</filter>
</defs>
</svg>
