<svg width="460" height="178" viewBox="0 0 460 178" fill="none" xmlns="http://www.w3.org/2000/svg">
<g filter="url(#filter0_d)">
<path d="M55.7615 176.692H46.9078H34.8667H5V148.121V129.073H11.4928L17.9855 112.406H21.3794V84.4294L24.4045 77.8817L27.4295 84.4294V112.406H31.5613L37.4638 129.073H46.9078V157.049H55.7615V45.1432L63.4348 39.1908L71.108 45.1432V160.025L77.6008 153.478V66.572L82.913 74.9055L88.8155 66.572V142.763L92.9473 138.001V160.025H98.2595V104.668H104.162V112.406H110.065V84.4294H112.426V160.025H115.377L126.001 120.144V84.4294H136.626V26.0954L149.611 13V62.4053L159.055 70.1435V77.8817L166.729 84.4294V120.144H173.221V114.192H176.763V120.144H180.895V114.192H184.436V120.144H190.043V116.573H192.7V120.144H195.651V160.025H200.078L200.373 124.906H204.505V110.62H206.866V160.025H213.358V68.3578L228.705 92.7628H241.69V130.858H244.642V135.62H249.954V140.382H253.495V145.74H259.398V84.4294L284.779 68.3578V129.073H290.681V123.12H294.223V116.573H298.354V110.62H302.486V116.573H306.618V123.12H309.569V57.6434H320.194V45.1432H331.999V35.6193L344.984 26.0954V171.335H350.296V114.192H355.609V123.12H359.74V171.335H363.872V129.073H369.184H374.497V84.4294L380.037 110.62H386.302V120.144H391.614V129.073H399.287V123.12H406.96V68.3578L429.98 45.1432L453 68.3578V176.692H445.832H417.16H406.96H401.629H391.614H383.941H363.872H344.984H314.419H284.779H259.398H247.593H228.705H224.819H195.651H180.895H140.595H132.232H115.377H92.9473H55.7615Z" fill="#3D4852"/>
<path d="M46.9078 176.692H55.7615V173.716M46.9078 176.692H34.8667V166.573H21.3794V148.121H5M46.9078 176.692V157.049M71.108 160.025V45.1432L63.4348 39.1908L55.7615 45.1432V157.049M71.108 160.025L77.6008 153.478M71.108 160.025L55.7615 173.716M92.9473 160.025V138.001L88.8155 142.763M92.9473 160.025H98.2595M92.9473 160.025V176.692M92.9473 160.025H101.768M115.377 160.025L126.001 120.144V84.4294H136.626V26.0954L149.611 13V62.4053M115.377 160.025H112.426M115.377 160.025V176.692M115.377 160.025H107.097M149.611 84.4294H166.729M149.611 84.4294V62.4053M149.611 84.4294V120.144M166.729 84.4294V120.144H173.221M166.729 84.4294L159.055 77.8817V70.1435L149.611 62.4053M195.651 160.025V120.144H192.7M195.651 160.025H200.078M195.651 160.025V176.692M228.705 92.7628L213.358 68.3578V160.025H206.866M228.705 92.7628H241.69V130.858M228.705 92.7628V176.692M259.398 145.74V84.4294L284.779 68.3578V129.073M259.398 145.74H253.495M259.398 145.74V176.692M284.779 129.073H290.681M284.779 129.073V176.692M309.569 129.073H290.681M309.569 129.073V123.12M309.569 129.073H314.419V176.692M344.984 171.335V26.0954L331.999 35.6193V45.1432H320.194V57.6434H309.569V123.12M344.984 171.335H350.296M344.984 171.335V176.692M363.872 171.335V129.073H369.184M363.872 171.335H359.74M363.872 171.335V176.692M383.941 129.073H391.614M383.941 129.073L380.037 110.62M383.941 129.073V138.001M406.96 129.073V123.12M406.96 129.073H399.287M406.96 129.073V176.692M204.505 160.025H206.866M204.505 160.025V124.906M204.505 160.025H200.078M206.866 160.025V110.62H204.505V124.906M204.505 124.906H200.373L200.078 160.025M98.2595 160.025V104.668H104.162V112.406H110.065V84.4294H112.426V160.025M98.2595 160.025H101.768M112.426 160.025H107.097M77.6008 153.478V66.572L82.913 74.9055L88.8155 66.572V142.763M77.6008 153.478L88.8155 142.763M173.221 120.144V114.192H176.763V120.144M173.221 120.144H176.763M176.763 120.144H180.895M180.895 120.144V114.192H184.436V120.144M180.895 120.144H184.436M184.436 120.144H190.043M190.043 120.144V116.573H192.7V120.144M190.043 120.144H192.7M11.4928 129.073H5V148.121M11.4928 129.073L17.9855 112.406H21.3794M11.4928 129.073H37.4638M37.4638 129.073H46.9078V157.049M37.4638 129.073L31.5613 112.406H27.4295M21.3794 112.406H24.7734H27.4295M21.3794 112.406V84.4294L24.4045 77.8817L27.4295 84.4294V112.406M241.69 130.858V145.74H247.593M241.69 130.858H244.642V135.62H249.954V140.382H253.495V145.74M253.495 145.74H247.593M290.681 129.073V123.12H294.223V116.573H298.354V110.62H302.486V116.573H306.618V123.12H309.569M350.296 171.335V114.192H355.609V123.12H359.74V171.335M350.296 171.335H359.74M406.96 123.12V68.3578L429.98 45.1432L453 68.3578V176.692H445.832M406.96 123.12H399.287V129.073M399.287 129.073H391.614M391.614 129.073V120.144H386.302V110.62H380.037M380.037 110.62L374.497 84.4294V129.073H369.184M5 148.121V176.692H195.651M55.7615 173.716V157.049M101.768 160.025V153.478H107.144L107.097 160.025M101.768 160.025H107.097M132.232 176.692V142.763H140.595M140.595 142.763V120.144H149.611M140.595 142.763V176.692M180.895 176.692V160.025H166.729V138.001H154.931V120.144H149.611M46.9078 157.049H55.7615M195.651 176.692H224.819H228.705M228.705 176.692H247.593M259.398 176.692H247.593M259.398 176.692H284.779M247.593 145.74V176.692M284.779 176.692H314.419M314.419 176.692H344.984M344.984 176.692H363.872M363.872 176.692H383.941M383.941 176.692V138.001M383.941 176.692H391.614M369.184 129.073V138.001H383.941M406.96 176.692H417.16M406.96 176.692H401.629M417.16 176.692V152.287H428.509V163.002H445.832V176.692M417.16 176.692H445.832M391.614 176.692V168.954H399.287V163.002H401.629V176.692M391.614 176.692H401.629" stroke="#606F7B" stroke-width="2"/>
</g>
<defs>
<filter id="filter0_d" x="0" y="0.57132" width="460" height="177.121" filterUnits="userSpaceOnUse" color-interpolation-filters="sRGB">
<feFlood flood-opacity="0" result="BackgroundImageFix"/>
<feColorMatrix in="SourceAlpha" type="matrix" values="0 0 0 0 0 0 0 0 0 0 0 0 0 0 0 0 0 0 127 0"/>
<feOffset dx="1" dy="-5"/>
<feGaussianBlur stdDeviation="2.5"/>
<feColorMatrix type="matrix" values="0 0 0 0 0.27451 0 0 0 0 0.984314 0 0 0 0 0.984314 0 0 0 1 0"/>
<feBlend mode="normal" in2="BackgroundImageFix" result="effect1_dropShadow"/>
<feBlend mode="normal" in="SourceGraphic" in2="effect1_dropShadow" result="shape"/>
</filter>
</defs>
</svg>
