<svg width="33" height="32" viewBox="0 0 33 32" fill="none" xmlns="http://www.w3.org/2000/svg">
<path d="M29.4748 0.581444H4.33198C2.43913 0.581444 0.903412 2.04735 0.903412 3.85417V27.8542C0.903412 29.661 2.43913 31.1269 4.33198 31.1269H29.4748C31.3677 31.1269 32.9034 29.661 32.9034 27.8542V3.85417C32.9034 2.04735 31.3677 0.581444 29.4748 0.581444ZM25.982 11.4087C25.9963 11.5996 25.9963 11.7974 25.9963 11.9883C25.9963 17.8996 21.282 24.711 12.6677 24.711C10.0106 24.711 7.54627 23.9746 5.47484 22.7064C5.85341 22.7474 6.2177 22.761 6.60341 22.761C8.79627 22.761 10.8106 22.0519 12.4177 20.8519C10.3606 20.811 8.63198 19.5224 8.03913 17.7496C8.76056 17.8519 9.41056 17.8519 10.1534 17.6678C8.01056 17.2519 6.40341 15.4519 6.40341 13.2769V13.2224C7.02484 13.5564 7.75341 13.761 8.5177 13.7883C7.87515 13.3803 7.3484 12.8268 6.98446 12.1772C6.62053 11.5277 6.43072 10.8022 6.43198 10.0655C6.43198 9.23372 6.66056 8.47008 7.0677 7.80872C9.37484 10.5224 12.8391 12.2951 16.7248 12.486C16.0606 9.4519 18.4391 6.99054 21.2963 6.99054C22.6463 6.99054 23.8606 7.52917 24.7177 8.4019C25.7748 8.21099 26.7891 7.83599 27.6891 7.32463C27.3391 8.36099 26.6034 9.23372 25.632 9.78599C26.5748 9.69054 27.4891 9.43826 28.332 9.09054C27.6963 9.98372 26.8963 10.7746 25.982 11.4087Z" fill="#46FBFB"/>
</svg>
