<svg width="33" height="32" viewBox="0 0 33 32" fill="none" xmlns="http://www.w3.org/2000/svg">
<path d="M16.9106 8.01327C12.3677 8.01327 8.70342 11.511 8.70342 15.8474C8.70342 20.1837 12.3677 23.6815 16.9106 23.6815C21.4534 23.6815 25.1177 20.1837 25.1177 15.8474C25.1177 11.511 21.4534 8.01327 16.9106 8.01327ZM16.9106 20.9406C13.9748 20.9406 11.5748 18.6565 11.5748 15.8474C11.5748 13.0383 13.9677 10.7542 16.9106 10.7542C19.8534 10.7542 22.2463 13.0383 22.2463 15.8474C22.2463 18.6565 19.8463 20.9406 16.9106 20.9406V20.9406ZM27.3677 7.69282C27.3677 8.70873 26.5105 9.52009 25.4534 9.52009C24.3891 9.52009 23.5391 8.70191 23.5391 7.69282C23.5391 6.68373 24.3963 5.86555 25.4534 5.86555C26.5105 5.86555 27.3677 6.68373 27.3677 7.69282ZM32.8034 9.54737C32.682 7.09964 32.0962 4.93145 30.2177 3.14509C28.3462 1.35872 26.0748 0.799633 23.5105 0.676905C20.8677 0.533724 12.9463 0.533724 10.3034 0.676905C7.74628 0.792815 5.47485 1.35191 3.59628 3.13827C1.71771 4.92464 1.13914 7.09282 1.01057 9.54055C0.860571 12.0633 0.860571 19.6246 1.01057 22.1474C1.132 24.5951 1.71771 26.7633 3.59628 28.5497C5.47485 30.336 7.73913 30.8951 10.3034 31.0178C12.9463 31.161 20.8677 31.161 23.5105 31.0178C26.0748 30.9019 28.3462 30.3428 30.2177 28.5497C32.0891 26.7633 32.6748 24.5951 32.8034 22.1474C32.9534 19.6246 32.9534 12.0701 32.8034 9.54737V9.54737ZM29.3891 24.8542C28.832 26.1906 27.7534 27.2201 26.3463 27.7587C24.2391 28.5565 19.2391 28.3724 16.9106 28.3724C14.582 28.3724 9.57485 28.5497 7.47485 27.7587C6.07485 27.2269 4.99628 26.1974 4.432 24.8542C3.59628 22.8428 3.78914 18.0701 3.78914 15.8474C3.78914 13.6246 3.60343 8.84509 4.432 6.84055C4.98914 5.50418 6.06771 4.47464 7.47485 3.936C9.58199 3.13827 14.582 3.32236 16.9106 3.32236C19.2391 3.32236 24.2463 3.14509 26.3463 3.936C27.7463 4.46782 28.8248 5.49736 29.3891 6.84055C30.2248 8.85191 30.032 13.6246 30.032 15.8474C30.032 18.0701 30.2248 22.8496 29.3891 24.8542Z" fill="#46FBFB"/>
</svg>
