<svg width="33" height="32" viewBox="0 0 33 32" fill="none" xmlns="http://www.w3.org/2000/svg">
<path d="M30.6177 0.581444H3.18201C1.92487 0.581444 0.903442 1.57008 0.903442 2.78372V28.9246C0.903442 30.1383 1.92487 31.1269 3.18201 31.1269H30.6177C31.8749 31.1269 32.9034 30.1383 32.9034 28.9246V2.78372C32.9034 1.57008 31.8749 0.581444 30.6177 0.581444ZM10.5749 26.7633H5.83201V12.186H10.582V26.7633H10.5749ZM8.20344 10.1951C6.68201 10.1951 5.45344 9.01553 5.45344 7.57008C5.45344 6.12463 6.68201 4.94508 8.20344 4.94508C9.71773 4.94508 10.9534 6.12463 10.9534 7.57008C10.9534 9.02235 9.72487 10.1951 8.20344 10.1951V10.1951ZM28.3534 26.7633H23.6106V19.6724C23.6106 17.9814 23.5749 15.8064 21.1463 15.8064C18.6749 15.8064 18.2963 17.6474 18.2963 19.5496V26.7633H13.5534V12.186H18.1034V14.1769H18.1677C18.8034 13.0314 20.3534 11.8246 22.6606 11.8246C27.4606 11.8246 28.3534 14.8451 28.3534 18.7724V26.7633V26.7633Z" fill="#46FBFB"/>
</svg>
