<svg width="69" height="71" viewBox="0 0 69 71" fill="none" xmlns="http://www.w3.org/2000/svg">
<path fill-rule="evenodd" clip-rule="evenodd" d="M0.841461 1.35565V7.04637H4.20731V63.9536H0.841461V69.6443H68.1585V63.9536H64.7927V7.04637H68.1585V1.35565H0.841461ZM55.2925 7.04637H13.7179L34.0793 35.5L13.7179 63.9536H55.2925L35.7622 35.5L55.2925 7.04637ZM58.061 7.89109L38.7073 35.5L58.061 63.1089V7.89109ZM31.1341 35.5L10.939 63.1569V7.84307L31.1341 35.5Z" fill="#DAE1E7" stroke="#DAE1E7" stroke-linejoin="bevel"/>
<path fill-rule="evenodd" clip-rule="evenodd" d="M26.9268 24.8299H42.4939L35.3415 35.5H34.5L26.9268 24.8299ZM14.3049 63.5979L34.5 46.8814H35.3415L54.6951 63.5979H14.3049ZM23.0095 40.4794H19.9583L19.0429 32.9536L18.0378 40.4794H14.9327L13.5866 29.9646H16.3327L16.7634 38.3552L17.7865 31.1784H20.3352L21.2864 38.3552L21.8967 29.9646H24.4633L23.0095 40.4794ZM47.2852 29.9646H50.2288V38.5069H55.6133L55.3261 40.4794H47.2852V29.9646Z" fill="#46FBFB"/>
</svg>
