<svg width="189" height="189" viewBox="0 0 189 189" fill="none" xmlns="http://www.w3.org/2000/svg">
<g clip-path="url(#clip0)">
<path d="M0 28.728L13.7025 52.92L26.9325 102.816L40.635 51.408L53.865 43.848L67.5675 86.184L80.7975 45.36L94.5 28.728L108.202 42.336L121.432 57.456L135.135 65.016L148.365 90.72L162.067 33.264L175.297 71.064L189 19.656V190.512H175.297H162.067H148.365H135.135H121.432H108.202H94.5H80.7975H67.5675H53.865H40.635H26.9325H13.7025H0V28.728Z" fill="#E158AB"/>
<path d="M0 93.744L13.7025 57.456L26.9325 46.872L40.635 61.992L53.865 75.6L67.5675 74.088L80.7975 52.92H94.5L108.202 107.352L121.432 122.472L135.135 71.064L148.365 52.92L162.067 101.304L175.297 43.848L189 111.888V190.512H175.297H162.067H148.365H135.135H121.432H108.202H94.5H80.7975H67.5675H53.865H40.635H26.9325H13.7025H0V93.744Z" fill="#B484E6"/>
<path d="M0 116.424L13.7025 111.888L26.9325 74.088L40.635 86.184L53.865 104.328L67.5675 81.648L80.7975 110.376L94.5 133.056L108.202 90.72L121.432 87.696L135.135 105.84L148.365 93.744L162.067 99.792L175.297 74.088L189 116.424V190.512H175.297H162.067H148.365H135.135H121.432H108.202H94.5H80.7975H67.5675H53.865H40.635H26.9325H13.7025H0V116.424Z" fill="#72A9FF"/>
<path d="M0 140.616L13.7025 114.912L26.9325 130.032L40.635 139.104L53.865 146.664L67.5675 90.72L80.7975 142.128L94.5 102.816L108.202 125.496L121.432 122.472L135.135 105.84L148.365 89.208L162.067 140.616L175.297 116.424L189 93.744V190.512H175.297H162.067H148.365H135.135H121.432H108.202H94.5H80.7975H67.5675H53.865H40.635H26.9325H13.7025H0V140.616Z" fill="#32C4FF"/>
<path d="M0 117.936L13.7025 123.984L26.9325 157.248L40.635 158.76L53.865 117.936L67.5675 146.664L80.7975 158.76L94.5 154.224L108.202 119.448L121.432 146.664L135.135 119.448L148.365 125.496L162.067 128.52L175.297 154.224L189 142.128V190.512H175.297H162.067H148.365H135.135H121.432H108.202H94.5H80.7975H67.5675H53.865H40.635H26.9325H13.7025H0V117.936Z" fill="#00DCFE"/>
<path d="M0 172.368H13.7025L26.9325 155.736L40.635 142.128L53.865 164.808L67.5675 178.416L80.7975 146.664L94.5 167.832L108.202 160.272L121.432 161.784L135.135 160.272L148.365 148.176L162.067 178.416L175.297 175.392L189 181.44V190.512H175.297H162.067H148.365H135.135H121.432H108.202H94.5H80.7975H67.5675H53.865H40.635H26.9325H13.7025H0V172.368Z" fill="#48F0EE"/>
</g>
<defs>
<clipPath id="clip0">
<rect width="189" height="189" fill="white"/>
</clipPath>
</defs>
</svg>
