<svg width="470" height="458" viewBox="0 0 470 458" fill="none" xmlns="http://www.w3.org/2000/svg">
<path d="M410.658 98.7385L240.785 231.863M410.658 98.7385L351.852 332.241M410.658 98.7385L304.89 98.989M67.2302 99.552L240.785 231.863M67.2302 99.552L115.471 332.241M67.2302 99.552L172.998 99.3014M136.198 432.22L240.785 231.863M136.198 432.22L115.471 332.241M136.198 432.22L232.514 386.373M448.933 283.355L240.785 231.863M448.933 283.355L232.514 386.373M448.933 283.355L304.89 98.989M240.785 16.9382V231.863M240.785 16.9382L304.89 98.989M240.785 16.9382L172.998 99.3014M20.6846 284.37L240.785 231.863M20.6846 284.37L232.514 386.373M20.6846 284.37L85.9287 205.095M326.786 431.769L240.785 231.863M326.786 431.769L232.514 386.373M326.786 431.769L351.852 332.241M240.785 231.863L115.471 332.241M240.785 231.863L351.852 332.241M240.785 231.863L232.514 386.373M240.785 231.863L385.08 204.426M240.785 231.863L304.89 98.989M240.785 231.863L172.998 99.3014M240.785 231.863L85.9287 205.095M304.89 98.989L172.998 99.3014M172.998 99.3014L85.9287 205.095" stroke="#46FBFB" stroke-width="8"/>
<g filter="url(#filter0_dd)">
<path d="M28.6604 294.655C34.4851 290.104 35.5178 281.693 30.9671 275.869C26.4163 270.044 18.0053 269.011 12.1806 273.562C6.35591 278.113 5.32319 286.524 9.87395 292.348C14.4247 298.173 22.8357 299.206 28.6604 294.655Z" fill="#FF8649"/>
<path d="M249.493 242.458C255.317 237.908 256.35 229.497 251.799 223.672C247.249 217.847 238.838 216.814 233.013 221.365C227.188 225.916 226.156 234.327 230.706 240.152C235.257 245.976 243.668 247.009 249.493 242.458Z" fill="#FF8649"/>
<path d="M94.2409 215.691C100.066 211.14 101.098 202.729 96.5476 196.904C91.9968 191.08 83.5859 190.047 77.7611 194.598C71.9364 199.148 70.9037 207.559 75.4545 213.384C80.0052 219.209 88.4162 220.242 94.2409 215.691Z" fill="#FF8649"/>
<path d="M75.5036 109.959C81.3283 105.408 82.3611 96.9972 77.8103 91.1725C73.2596 85.3478 64.8486 84.3151 59.0239 88.8658C53.1991 93.4166 52.1664 101.828 56.7172 107.652C61.2679 113.477 69.6789 114.51 75.5036 109.959Z" fill="#FF8649"/>
<path d="M182.574 109.959C188.399 105.408 189.431 96.9972 184.881 91.1725C180.33 85.3478 171.919 84.3151 166.094 88.8658C160.269 93.4166 159.237 101.828 163.787 107.652C168.338 113.477 176.749 114.51 182.574 109.959Z" fill="#FF8649"/>
<path d="M305.446 112.747C312.838 112.747 318.83 106.755 318.83 99.3633C318.83 91.9716 312.838 85.9794 305.446 85.9794C298.054 85.9794 292.062 91.9716 292.062 99.3633C292.062 106.755 298.054 112.747 305.446 112.747Z" fill="#FF8649"/>
<path d="M411.178 112.747C418.569 112.747 424.562 106.755 424.562 99.3633C424.562 91.9716 418.569 85.9794 411.178 85.9794C403.786 85.9794 397.794 91.9716 397.794 99.3633C397.794 106.755 403.786 112.747 411.178 112.747Z" fill="#FF8649"/>
<path d="M241.204 29.7676C248.595 29.7676 254.588 23.7755 254.588 16.3838C254.588 8.99215 248.595 3 241.204 3C233.812 3 227.82 8.99215 227.82 16.3838C227.82 23.7755 233.812 29.7676 241.204 29.7676Z" fill="#FF8649"/>
<path d="M384.41 218.479C391.802 218.479 397.794 212.487 397.794 205.095C397.794 197.703 391.802 191.711 384.41 191.711C377.019 191.711 371.026 197.703 371.026 205.095C371.026 212.487 377.019 218.479 384.41 218.479Z" fill="#FF8649"/>
<path d="M448.652 296.105C456.044 296.105 462.036 290.113 462.036 282.721C462.036 275.329 456.044 269.337 448.652 269.337C441.261 269.337 435.269 275.329 435.269 282.721C435.269 290.113 441.261 296.105 448.652 296.105Z" fill="#FF8649"/>
<path d="M326.86 446.003C334.252 446.003 340.244 440.011 340.244 432.619C340.244 425.228 334.252 419.236 326.86 419.236C319.468 419.236 313.476 425.228 313.476 432.619C313.476 440.011 319.468 446.003 326.86 446.003Z" fill="#FF8649"/>
<path d="M136.81 444.665C144.202 444.665 150.194 438.673 150.194 431.281C150.194 423.889 144.202 417.897 136.81 417.897C129.419 417.897 123.426 423.889 123.426 431.281C123.426 438.673 129.419 444.665 136.81 444.665Z" fill="#FF8649"/>
<path d="M115.396 346.963C122.788 346.963 128.78 340.971 128.78 333.579C128.78 326.188 122.788 320.196 115.396 320.196C108.005 320.196 102.012 326.188 102.012 333.579C102.012 340.971 108.005 346.963 115.396 346.963Z" fill="#FF8649"/>
<path d="M233.173 397.822C240.565 397.822 246.557 391.829 246.557 384.438C246.557 377.046 240.565 371.054 233.173 371.054C225.782 371.054 219.79 377.046 219.79 384.438C219.79 391.829 225.782 397.822 233.173 397.822Z" fill="#FF8649"/>
<path d="M350.951 346.963C358.342 346.963 364.335 340.971 364.335 333.579C364.335 326.188 358.342 320.196 350.951 320.196C343.559 320.196 337.567 326.188 337.567 333.579C337.567 340.971 343.559 346.963 350.951 346.963Z" fill="#FF8649"/>
<path d="M28.6604 294.655C34.4851 290.104 35.5178 281.693 30.9671 275.869C26.4163 270.044 18.0053 269.011 12.1806 273.562C6.35591 278.113 5.32319 286.524 9.87395 292.348C14.4247 298.173 22.8357 299.206 28.6604 294.655Z" stroke="#46FBFB" stroke-width="2"/>
<path d="M249.493 242.458C255.317 237.908 256.35 229.497 251.799 223.672C247.249 217.847 238.838 216.814 233.013 221.365C227.188 225.916 226.156 234.327 230.706 240.152C235.257 245.976 243.668 247.009 249.493 242.458Z" stroke="#46FBFB" stroke-width="2"/>
<path d="M94.2409 215.691C100.066 211.14 101.098 202.729 96.5476 196.904C91.9968 191.08 83.5859 190.047 77.7611 194.598C71.9364 199.148 70.9037 207.559 75.4545 213.384C80.0052 219.209 88.4162 220.242 94.2409 215.691Z" stroke="#46FBFB" stroke-width="2"/>
<path d="M75.5036 109.959C81.3283 105.408 82.3611 96.9972 77.8103 91.1725C73.2596 85.3478 64.8486 84.3151 59.0239 88.8658C53.1991 93.4166 52.1664 101.828 56.7172 107.652C61.2679 113.477 69.6789 114.51 75.5036 109.959Z" stroke="#46FBFB" stroke-width="2"/>
<path d="M182.574 109.959C188.399 105.408 189.431 96.9972 184.881 91.1725C180.33 85.3478 171.919 84.3151 166.094 88.8658C160.269 93.4166 159.237 101.828 163.787 107.652C168.338 113.477 176.749 114.51 182.574 109.959Z" stroke="#46FBFB" stroke-width="2"/>
<path d="M305.446 112.747C312.838 112.747 318.83 106.755 318.83 99.3633C318.83 91.9716 312.838 85.9794 305.446 85.9794C298.054 85.9794 292.062 91.9716 292.062 99.3633C292.062 106.755 298.054 112.747 305.446 112.747Z" stroke="#46FBFB" stroke-width="2"/>
<path d="M411.178 112.747C418.569 112.747 424.562 106.755 424.562 99.3633C424.562 91.9716 418.569 85.9794 411.178 85.9794C403.786 85.9794 397.794 91.9716 397.794 99.3633C397.794 106.755 403.786 112.747 411.178 112.747Z" stroke="#46FBFB" stroke-width="2"/>
<path d="M241.204 29.7676C248.595 29.7676 254.588 23.7755 254.588 16.3838C254.588 8.99215 248.595 3 241.204 3C233.812 3 227.82 8.99215 227.82 16.3838C227.82 23.7755 233.812 29.7676 241.204 29.7676Z" stroke="#46FBFB" stroke-width="2"/>
<path d="M384.41 218.479C391.802 218.479 397.794 212.487 397.794 205.095C397.794 197.703 391.802 191.711 384.41 191.711C377.019 191.711 371.026 197.703 371.026 205.095C371.026 212.487 377.019 218.479 384.41 218.479Z" stroke="#46FBFB" stroke-width="2"/>
<path d="M448.652 296.105C456.044 296.105 462.036 290.113 462.036 282.721C462.036 275.329 456.044 269.337 448.652 269.337C441.261 269.337 435.269 275.329 435.269 282.721C435.269 290.113 441.261 296.105 448.652 296.105Z" stroke="#46FBFB" stroke-width="2"/>
<path d="M326.86 446.003C334.252 446.003 340.244 440.011 340.244 432.619C340.244 425.228 334.252 419.236 326.86 419.236C319.468 419.236 313.476 425.228 313.476 432.619C313.476 440.011 319.468 446.003 326.86 446.003Z" stroke="#46FBFB" stroke-width="2"/>
<path d="M136.81 444.665C144.202 444.665 150.194 438.673 150.194 431.281C150.194 423.889 144.202 417.897 136.81 417.897C129.419 417.897 123.426 423.889 123.426 431.281C123.426 438.673 129.419 444.665 136.81 444.665Z" stroke="#46FBFB" stroke-width="2"/>
<path d="M115.396 346.963C122.788 346.963 128.78 340.971 128.78 333.579C128.78 326.188 122.788 320.196 115.396 320.196C108.005 320.196 102.012 326.188 102.012 333.579C102.012 340.971 108.005 346.963 115.396 346.963Z" stroke="#46FBFB" stroke-width="2"/>
<path d="M233.173 397.822C240.565 397.822 246.557 391.829 246.557 384.438C246.557 377.046 240.565 371.054 233.173 371.054C225.782 371.054 219.79 377.046 219.79 384.438C219.79 391.829 225.782 397.822 233.173 397.822Z" stroke="#46FBFB" stroke-width="2"/>
<path d="M350.951 346.963C358.342 346.963 364.335 340.971 364.335 333.579C364.335 326.188 358.342 320.196 350.951 320.196C343.559 320.196 337.567 326.188 337.567 333.579C337.567 340.971 343.559 346.963 350.951 346.963Z" stroke="#46FBFB" stroke-width="2"/>
</g>
<defs>
<filter id="filter0_dd" x="0.0361328" y="0" width="469" height="457.003" filterUnits="userSpaceOnUse" color-interpolation-filters="sRGB">
<feFlood flood-opacity="0" result="BackgroundImageFix"/>
<feColorMatrix in="SourceAlpha" type="matrix" values="0 0 0 0 0 0 0 0 0 0 0 0 0 0 0 0 0 0 127 0"/>
<feOffset dy="4"/>
<feGaussianBlur stdDeviation="3"/>
<feColorMatrix type="matrix" values="0 0 0 0 0 0 0 0 0 0 0 0 0 0 0 0 0 0 0.1 0"/>
<feBlend mode="normal" in2="BackgroundImageFix" result="effect1_dropShadow"/>
<feColorMatrix in="SourceAlpha" type="matrix" values="0 0 0 0 0 0 0 0 0 0 0 0 0 0 0 0 0 0 127 0"/>
<feOffset dy="2"/>
<feGaussianBlur stdDeviation="2"/>
<feColorMatrix type="matrix" values="0 0 0 0 0 0 0 0 0 0 0 0 0 0 0 0 0 0 0.06 0"/>
<feBlend mode="normal" in2="effect1_dropShadow" result="effect2_dropShadow"/>
<feBlend mode="normal" in="SourceGraphic" in2="effect2_dropShadow" result="shape"/>
</filter>
</defs>
</svg>
