<svg width="455" height="465" viewBox="0 0 455 465" fill="none" xmlns="http://www.w3.org/2000/svg">
<rect y="252.354" width="300" height="300" transform="rotate(-45 0 252.354)" fill="#46FBFB"/>
<rect x="20.146" y="252.5" width="300" height="300" transform="rotate(-45 20.146 252.5)" fill="#3D4852"/>
<rect x="30" y="212.354" width="300" height="300" transform="rotate(-45 30 212.354)" fill="#46FBFB"/>
<rect x="10" y="213" width="300" height="300" transform="rotate(-45 10 213)" fill="#3D4852"/>
<path d="M180.069 131.517C179.995 131.702 179.847 132.036 179.624 132.519C179.401 133.001 179.29 133.316 179.29 133.465C179.29 133.762 179.271 134.151 179.234 134.634C179.234 135.079 179.383 135.357 179.68 135.469C179.271 136.322 179.012 137.194 178.9 138.085C178.826 138.938 178.789 139.829 178.789 140.757C178.789 141.647 178.771 142.557 178.733 143.484C178.696 144.375 178.548 145.247 178.288 146.101C178.437 146.323 178.474 146.602 178.399 146.936C178.362 147.232 178.455 147.474 178.678 147.659C178.492 147.956 178.381 148.253 178.344 148.55C178.307 148.81 178.288 149.088 178.288 149.385C178.288 149.979 178.344 150.554 178.455 151.11C178.047 151.704 177.843 152.372 177.843 153.114C177.88 153.819 177.898 154.543 177.898 155.285C177.898 155.916 177.806 156.528 177.62 157.122C177.472 157.716 177.397 158.328 177.397 158.959C177.397 159.145 177.416 159.312 177.453 159.46C177.49 159.608 177.509 159.775 177.509 159.961C177.509 160.146 177.435 160.276 177.286 160.351C177.175 160.388 177.119 160.555 177.119 160.852C177.119 162.225 177.026 163.561 176.841 164.859C176.655 166.121 176.414 167.383 176.117 168.645C175.857 169.869 175.561 171.112 175.227 172.374C174.893 173.636 174.596 174.916 174.336 176.215C173.928 176.66 173.612 177.161 173.39 177.718C173.204 178.274 172.852 178.72 172.332 179.054C171.85 180.278 171.237 181.392 170.495 182.394C169.79 183.396 168.992 184.342 168.102 185.232C167.248 186.123 166.357 186.977 165.43 187.793C164.502 188.646 163.593 189.519 162.702 190.409C162.331 190.409 161.96 190.409 161.589 190.409C161.255 190.446 160.902 190.465 160.531 190.465C159.715 190.465 158.898 190.428 158.082 190.354C157.266 190.279 156.486 190.149 155.744 189.964C155.596 189.444 155.299 189.092 154.854 188.906C154.445 188.758 154.074 188.517 153.74 188.183C153.369 187.849 153.091 187.478 152.905 187.069C152.72 186.661 152.33 186.383 151.736 186.234C151.551 185.678 151.254 185.028 150.846 184.286C150.475 183.544 150.104 182.783 149.732 182.004C149.361 181.225 149.027 180.482 148.73 179.777C148.471 179.035 148.341 178.404 148.341 177.885C148.341 177.699 148.359 177.532 148.396 177.384C148.471 177.198 148.526 177.013 148.563 176.827C148.341 176.567 148.192 176.233 148.118 175.825C148.044 175.417 147.988 175.009 147.951 174.601C147.951 174.155 147.914 173.747 147.84 173.376C147.766 172.968 147.599 172.652 147.339 172.43C146.894 172.727 146.541 173.098 146.281 173.543C146.021 173.988 145.78 174.471 145.558 174.99C145.372 175.51 145.187 176.029 145.001 176.549C144.815 177.068 144.593 177.551 144.333 177.996C143.813 178.404 143.35 178.868 142.941 179.388C142.57 179.907 142.181 180.427 141.772 180.946C141.401 181.503 140.993 182.004 140.548 182.449C140.103 182.932 139.583 183.321 138.989 183.618C138.841 184.286 138.562 184.843 138.154 185.288C137.783 185.771 137.375 186.197 136.93 186.568C136.484 186.977 136.058 187.385 135.649 187.793C135.241 188.238 134.944 188.776 134.759 189.407C134.128 189.704 133.423 190.131 132.644 190.688C131.864 191.281 131.066 191.875 130.25 192.469C129.471 193.062 128.673 193.563 127.856 193.972C127.077 194.417 126.391 194.64 125.797 194.64C125.314 194.64 124.851 194.584 124.405 194.473C123.997 194.398 123.57 194.306 123.125 194.194C122.68 194.083 122.234 193.972 121.789 193.86C121.344 193.786 120.88 193.768 120.397 193.805C119.692 193.062 119.154 192.209 118.783 191.244C118.412 190.316 117.948 189.444 117.392 188.628C117.206 187.515 117.021 186.383 116.835 185.232C116.649 184.119 116.557 183.006 116.557 181.893C116.557 181.262 116.631 180.668 116.779 180.111C116.928 179.592 117.002 179.054 117.002 178.497C117.002 178.312 116.965 178.145 116.891 177.996C116.854 177.811 116.816 177.625 116.779 177.439C117.039 176.92 117.243 176.382 117.392 175.825C117.54 175.231 117.651 174.638 117.726 174.044C117.837 173.45 117.948 172.875 118.06 172.318C118.171 171.725 118.338 171.168 118.561 170.648C118.635 170.203 118.505 169.869 118.171 169.646C118.431 169.387 118.598 169.108 118.672 168.812C118.746 168.515 118.783 168.218 118.783 167.921C118.82 167.624 118.839 167.309 118.839 166.975C118.839 166.641 118.876 166.325 118.95 166.028C118.987 165.88 119.08 165.657 119.229 165.36L119.729 164.414C119.915 164.08 120.063 163.783 120.175 163.523C120.323 163.227 120.397 163.004 120.397 162.855C120.397 162.596 120.323 162.317 120.175 162.021C120.323 161.278 120.564 160.555 120.898 159.85C121.27 159.145 121.548 158.421 121.733 157.679C121.919 156.937 122.03 156.287 122.067 155.73C122.104 155.137 122.271 154.45 122.568 153.671C122.605 153.597 122.624 153.504 122.624 153.393C122.624 153.244 122.568 153.151 122.457 153.114C122.346 153.077 122.253 153.003 122.179 152.892C122.624 152.038 122.958 151.129 123.181 150.164C123.44 149.162 123.645 148.142 123.793 147.103C123.979 146.063 124.146 145.043 124.294 144.041C124.442 143.002 124.665 142.019 124.962 141.091C124.851 140.349 124.758 139.588 124.684 138.809C124.609 137.992 124.572 137.213 124.572 136.471C124.572 135.617 124.646 134.745 124.795 133.854C124.98 132.964 125.37 132.185 125.964 131.517C126.261 131.517 126.576 131.498 126.91 131.461C127.281 131.424 127.615 131.405 127.912 131.405C128.357 131.405 128.84 131.517 129.359 131.739C129.619 132.927 129.953 134.096 130.361 135.246C130.77 136.396 130.974 137.621 130.974 138.92C130.974 139.551 130.899 140.182 130.751 140.812L130.361 142.649C130.25 143.243 130.157 143.855 130.083 144.486C130.009 145.08 130.027 145.674 130.139 146.268C129.73 146.824 129.489 147.474 129.415 148.216C129.378 148.921 129.359 149.589 129.359 150.22C128.988 150.739 128.71 151.259 128.524 151.778C128.339 152.298 128.19 152.836 128.079 153.393C128.005 153.912 127.931 154.45 127.856 155.007C127.782 155.563 127.689 156.12 127.578 156.677C127.504 156.862 127.374 157.085 127.188 157.345C127.04 157.604 126.966 157.79 126.966 157.901C126.966 158.161 127.04 158.421 127.188 158.681C127.114 158.792 127.04 158.885 126.966 158.959C126.892 158.996 126.836 159.089 126.799 159.237C126.688 159.646 126.595 160.091 126.521 160.573C126.483 161.019 126.409 161.445 126.298 161.854C126.112 162.781 125.853 163.69 125.519 164.581C125.222 165.472 124.906 166.362 124.572 167.253C124.572 167.995 124.535 168.589 124.461 169.034C124.424 169.479 124.35 169.888 124.238 170.259C124.164 170.593 124.053 170.964 123.904 171.372C123.793 171.743 123.682 172.226 123.57 172.819C123.459 173.376 123.348 174.062 123.236 174.879C123.162 175.695 123.069 176.549 122.958 177.439C122.884 178.293 122.828 179.146 122.791 180C122.754 180.816 122.735 181.521 122.735 182.115C122.735 183.191 122.828 184.23 123.014 185.232C123.236 186.271 123.607 187.255 124.127 188.183H125.073C125.296 188.183 125.537 188.183 125.797 188.183C126.057 188.22 126.298 188.294 126.521 188.405C126.78 188.331 126.91 188.22 126.91 188.071V187.626C126.91 187.515 127.003 187.366 127.188 187.181L127.578 187.236C127.949 187.236 128.283 187.181 128.58 187.069C128.914 186.958 129.248 186.81 129.582 186.624C130.287 185.659 131.104 184.843 132.031 184.175C132.996 183.507 133.85 182.728 134.592 181.837C134.777 181.54 134.833 181.188 134.759 180.779C135.204 180.705 135.538 180.538 135.761 180.278C136.021 180.019 136.262 179.74 136.484 179.443C136.707 179.146 136.93 178.868 137.152 178.608C137.412 178.312 137.746 178.107 138.154 177.996C138.34 177.662 138.507 177.31 138.655 176.938C138.804 176.53 138.952 176.141 139.101 175.77C139.286 175.398 139.49 175.064 139.713 174.768C139.973 174.434 140.307 174.174 140.715 173.988C141.346 172.578 141.884 171.131 142.329 169.646C142.774 168.125 143.442 166.733 144.333 165.472C144.333 164.989 144.352 164.544 144.389 164.136C144.426 163.728 144.407 163.301 144.333 162.855C145.261 161.594 145.854 160.276 146.114 158.903C146.374 157.53 146.504 156.083 146.504 154.562C146.504 153.3 146.912 152.428 147.729 151.945C148.582 151.463 149.584 151.222 150.734 151.222H151.291C151.514 151.222 151.718 151.24 151.903 151.277C151.978 151.537 152.107 151.741 152.293 151.89C152.516 152.001 152.738 152.131 152.961 152.279V152.613C152.961 153.133 152.887 153.615 152.738 154.061C152.627 154.469 152.571 154.914 152.571 155.396C152.571 155.619 152.608 155.916 152.683 156.287C153.054 157.363 153.332 158.347 153.518 159.237C153.74 160.128 153.852 161.167 153.852 162.354C153.852 163.356 153.796 164.377 153.685 165.416C153.61 166.418 153.499 167.42 153.351 168.422C153.573 168.83 153.685 169.257 153.685 169.702C153.685 169.999 153.647 170.314 153.573 170.648C153.536 170.945 153.518 171.242 153.518 171.539C153.518 172.17 153.61 172.801 153.796 173.432C154.019 174.025 154.241 174.619 154.464 175.213C154.724 175.807 154.946 176.4 155.132 176.994C155.317 177.588 155.392 178.182 155.354 178.775C155.985 179.555 156.542 180.353 157.024 181.169C157.544 182.022 158.175 182.765 158.917 183.396C159.214 183.47 159.455 183.507 159.641 183.507C159.863 183.507 160.049 183.47 160.197 183.396C160.346 183.358 160.476 183.303 160.587 183.229C160.735 183.191 160.884 183.154 161.032 183.117C161.181 183.117 161.403 183.136 161.7 183.173C162.368 182.69 162.98 182.134 163.537 181.503C164.094 180.909 164.613 180.297 165.096 179.666C165.615 179.035 166.135 178.386 166.654 177.718C167.174 177.05 167.712 176.419 168.269 175.825C169.345 173.153 170.217 170.481 170.885 167.81C171.553 165.138 171.961 162.354 172.109 159.46C172.109 159.052 172.202 158.848 172.388 158.848C172.573 158.848 172.74 158.718 172.889 158.458V156.899C172.889 155.712 172.944 154.524 173.056 153.337C173.204 152.149 173.482 150.98 173.891 149.83C173.779 149.385 173.724 148.939 173.724 148.494C173.724 147.529 173.798 146.602 173.946 145.711C174.132 144.783 174.225 143.855 174.225 142.928C174.225 142.445 174.169 141.963 174.058 141.48C173.983 140.961 173.798 140.497 173.501 140.089L173.445 139.755C173.445 139.532 173.52 139.347 173.668 139.198C173.854 139.05 173.983 138.883 174.058 138.697C173.872 138.215 173.798 137.714 173.835 137.194C173.909 136.675 173.946 136.155 173.946 135.636C173.946 135.339 173.909 135.023 173.835 134.689C173.761 134.355 173.575 134.096 173.278 133.91C173.612 133.539 173.854 133.057 174.002 132.463C174.15 131.869 174.243 131.238 174.28 130.57C174.354 129.902 174.392 129.253 174.392 128.622C174.392 127.954 174.429 127.397 174.503 126.952C174.837 126.581 175.208 126.266 175.616 126.006C176.062 125.709 176.544 125.561 177.063 125.561C177.731 125.561 178.214 125.802 178.511 126.284C178.808 126.729 179.03 127.286 179.179 127.954C179.327 128.585 179.438 129.234 179.513 129.902C179.624 130.57 179.81 131.108 180.069 131.517Z" fill="#46FBFB"/>
<path d="M207.656 182.783C207.656 183.377 207.452 183.915 207.044 184.397C206.636 184.88 206.283 185.344 205.987 185.789C205.467 186.049 204.966 186.197 204.484 186.234C204.038 186.309 203.556 186.438 203.036 186.624C202.851 186.661 202.647 186.791 202.424 187.014C202.127 186.977 201.83 186.847 201.533 186.624C201.237 186.438 200.94 186.309 200.643 186.234C200.235 186.086 199.696 185.993 199.029 185.956C198.398 185.919 197.934 185.733 197.637 185.399C197.117 184.88 196.672 184.193 196.301 183.34C195.967 182.486 195.689 181.577 195.466 180.612C195.28 179.647 195.132 178.701 195.021 177.773C194.946 176.809 194.909 175.974 194.909 175.269C194.909 174.081 194.984 172.894 195.132 171.706C195.28 170.519 195.503 169.368 195.8 168.255V167.977C195.8 167.791 195.8 167.643 195.8 167.531C195.837 167.383 195.856 167.216 195.856 167.03C195.856 166.919 195.837 166.808 195.8 166.696C195.8 166.585 195.744 166.492 195.633 166.418C196.115 165.193 196.468 163.932 196.691 162.633C196.913 161.334 197.08 160.035 197.192 158.736C197.34 157.4 197.488 156.083 197.637 154.784C197.822 153.448 198.082 152.149 198.416 150.888C198.379 150.665 198.342 150.424 198.305 150.164C198.305 149.904 198.305 149.663 198.305 149.44C198.305 148.772 198.379 148.123 198.528 147.492C198.676 146.824 198.769 146.138 198.806 145.433C198.843 145.21 198.843 144.987 198.806 144.765C198.769 144.505 198.75 144.245 198.75 143.985C198.75 142.353 198.824 140.757 198.973 139.198C199.158 137.64 199.251 136.062 199.251 134.467C199.251 133.613 199.177 132.797 199.029 132.018C198.917 131.201 198.862 130.385 198.862 129.568C198.862 129.197 198.88 128.845 198.917 128.511C198.954 128.14 199.066 127.806 199.251 127.509C200.068 126.952 201.032 126.674 202.146 126.674C202.962 126.674 203.667 126.896 204.261 127.342C204.224 127.416 204.205 127.527 204.205 127.676C204.205 127.861 204.224 128.028 204.261 128.177C204.298 128.325 204.317 128.492 204.317 128.678V128.9C204.317 128.975 204.298 129.049 204.261 129.123C204.521 129.568 204.688 130.051 204.762 130.57C204.873 131.053 204.929 131.554 204.929 132.073C204.929 132.556 204.91 133.038 204.873 133.521C204.836 133.966 204.818 134.43 204.818 134.912C204.818 135.58 204.818 136.248 204.818 136.916C204.855 137.584 204.873 138.252 204.873 138.92C204.873 140.701 204.78 142.464 204.595 144.208C204.446 145.915 204.335 147.659 204.261 149.44C204.187 150.962 203.983 152.446 203.649 153.894C203.352 155.341 203.148 156.807 203.036 158.291C202.999 158.588 202.981 158.885 202.981 159.182C203.018 159.441 203.036 159.738 203.036 160.072C203.036 160.926 202.869 161.779 202.535 162.633C202.201 163.449 202.034 164.321 202.034 165.249C202.034 165.694 202.109 166.084 202.257 166.418C202.034 167.012 201.83 167.717 201.645 168.533C201.496 169.35 201.348 170.203 201.199 171.094C201.088 171.947 200.995 172.801 200.921 173.654C200.847 174.471 200.81 175.194 200.81 175.825C200.81 176.716 200.921 177.625 201.144 178.553C201.366 179.443 201.738 180.26 202.257 181.002C202.628 181.113 203.073 181.169 203.593 181.169C204.113 181.169 204.632 181.188 205.152 181.225C205.671 181.262 206.154 181.354 206.599 181.503C207.044 181.651 207.378 181.948 207.601 182.394C207.638 182.468 207.656 182.542 207.656 182.616V182.783Z" fill="#46FBFB"/>
<path d="M276.268 167.253C276.268 167.995 276.138 168.607 275.878 169.09C275.656 169.535 275.396 170.055 275.099 170.648C275.025 170.611 274.932 170.593 274.821 170.593C274.598 170.593 274.394 170.648 274.208 170.76C274.023 170.871 273.837 170.964 273.652 171.038C272.576 172.226 271.462 173.376 270.312 174.489C269.199 175.603 267.955 176.586 266.582 177.439C266.211 177.662 265.84 177.885 265.469 178.107C265.098 178.293 264.708 178.479 264.3 178.664C264.152 178.738 264.003 178.812 263.855 178.887C263.744 178.924 263.632 178.979 263.521 179.054C263.261 179.202 262.983 179.443 262.686 179.777C262.426 180.111 262.111 180.445 261.74 180.779C261.406 181.15 261.035 181.447 260.626 181.67C260.218 181.93 259.773 182.041 259.29 182.004C258.994 182.189 258.734 182.431 258.511 182.728C258.288 183.024 258.029 183.321 257.732 183.618C256.136 184.175 254.67 184.898 253.334 185.789C252.036 186.717 250.681 187.607 249.271 188.461C248.417 189.018 247.564 189.463 246.71 189.797C246.525 189.871 246.302 189.927 246.042 189.964C245.82 190.001 245.579 190.057 245.319 190.131C244.094 190.428 242.851 190.669 241.589 190.854C240.365 191.04 239.121 191.133 237.86 191.133C236.301 191.133 234.798 190.947 233.351 190.576C233.351 190.465 233.314 190.391 233.24 190.354C233.165 190.316 233.073 190.279 232.961 190.242C232.887 190.205 232.813 190.149 232.739 190.075C232.664 190.038 232.664 189.945 232.739 189.797C231.922 189.723 231.199 189.519 230.568 189.185C229.974 188.851 229.584 188.257 229.399 187.403C229.287 187.478 229.195 187.57 229.121 187.682C229.046 187.793 228.916 187.83 228.731 187.793C228.211 187.051 227.636 186.364 227.005 185.733C226.374 185.103 225.911 184.342 225.614 183.451C225.539 183.266 225.484 183.08 225.447 182.895C225.447 182.746 225.428 182.579 225.391 182.394C225.205 181.874 224.871 181.614 224.389 181.614C224.463 181.466 224.5 181.28 224.5 181.058C224.5 180.946 224.482 180.835 224.445 180.724C224.445 180.612 224.445 180.501 224.445 180.39C224.445 180.204 224.5 180.019 224.612 179.833C224.241 178.979 223.981 178.145 223.832 177.328C223.684 176.475 223.61 175.603 223.61 174.712C223.61 173.562 223.665 172.43 223.777 171.316C223.888 170.166 223.944 169.016 223.944 167.865C224.166 167.42 224.333 166.9 224.445 166.307C224.593 165.713 224.834 165.23 225.168 164.859C225.131 164.637 225.057 164.525 224.946 164.525C224.834 164.488 224.779 164.377 224.779 164.191C224.779 163.523 224.909 162.8 225.168 162.021C225.428 161.241 225.558 160.443 225.558 159.627C225.892 159.441 226.096 159.163 226.17 158.792C226.282 158.421 226.486 158.124 226.783 157.901V157.623C226.783 157.066 226.838 156.51 226.95 155.953C227.098 155.396 227.228 154.858 227.339 154.339C227.488 153.782 227.599 153.244 227.673 152.725C227.785 152.168 227.822 151.63 227.785 151.11C227.859 150.999 227.952 150.795 228.063 150.498C228.211 150.164 228.341 149.83 228.453 149.496C228.601 149.125 228.712 148.772 228.787 148.438C228.898 148.104 228.954 147.863 228.954 147.715C228.954 147.492 228.916 147.288 228.842 147.103C228.768 146.917 228.731 146.713 228.731 146.49C228.731 146.305 228.787 146.045 228.898 145.711C229.009 145.34 229.102 145.043 229.176 144.82C229.325 144.189 229.454 143.54 229.566 142.872C229.714 142.167 229.844 141.499 229.955 140.868C230.289 138.827 230.531 136.786 230.679 134.745C230.828 132.667 230.92 130.589 230.957 128.511C231.477 128.214 232.015 127.936 232.572 127.676C233.165 127.416 233.778 127.286 234.409 127.286C234.594 127.286 234.78 127.305 234.965 127.342C235.151 127.379 235.336 127.435 235.522 127.509C235.707 128.251 236.004 128.845 236.412 129.29C236.821 129.735 237.192 130.273 237.526 130.904C237.303 131.498 237.155 132.11 237.08 132.741L236.913 134.634C236.876 135.265 236.802 135.896 236.691 136.526C236.579 137.12 236.394 137.695 236.134 138.252C236.208 138.438 236.246 138.623 236.246 138.809V139.365C236.246 139.885 236.19 140.386 236.079 140.868C236.004 141.351 235.912 141.852 235.8 142.371C235.689 142.854 235.596 143.336 235.522 143.818C235.448 144.301 235.448 144.783 235.522 145.266C235.411 145.451 235.299 145.6 235.188 145.711C235.077 145.785 235.002 145.915 234.965 146.101L234.854 147.158C234.78 147.566 234.705 147.975 234.631 148.383C234.594 148.754 234.538 149.144 234.464 149.552C234.204 150.665 233.908 151.778 233.574 152.892C233.277 154.005 233.128 155.155 233.128 156.343V156.677C232.794 157.196 232.535 157.846 232.349 158.625C232.163 159.367 232.108 160.054 232.182 160.685C231.774 161.761 231.384 162.818 231.013 163.857C230.642 164.896 230.456 165.973 230.456 167.086C230.456 167.271 230.456 167.476 230.456 167.698C230.494 167.884 230.531 168.069 230.568 168.255C230.271 168.997 230.085 169.758 230.011 170.537C229.937 171.279 229.9 172.021 229.9 172.764C229.9 173.283 229.918 173.896 229.955 174.601C230.03 175.269 230.122 175.974 230.234 176.716C230.382 177.421 230.549 178.107 230.735 178.775C230.92 179.443 231.124 179.981 231.347 180.39C232.201 181.763 233.314 182.839 234.687 183.618C236.097 184.435 237.581 184.954 239.14 185.177C239.771 184.954 240.272 184.824 240.643 184.787C241.051 184.75 241.608 184.75 242.313 184.787C242.907 184.49 243.5 184.268 244.094 184.119C244.725 183.971 245.356 183.804 245.987 183.618C246.172 183.544 246.358 183.47 246.543 183.396C246.766 183.321 246.952 183.247 247.1 183.173C247.286 183.099 247.49 182.932 247.712 182.672C247.935 182.412 248.139 182.189 248.325 182.004C249.104 181.781 249.846 181.466 250.551 181.058C251.256 180.687 251.943 180.297 252.611 179.889L254.67 178.664C255.375 178.256 256.118 177.903 256.897 177.606C257.194 177.495 257.361 177.347 257.398 177.161C257.472 176.938 257.583 176.679 257.732 176.382C257.806 176.456 257.917 176.493 258.066 176.493C258.511 176.493 258.827 176.363 259.012 176.104C259.198 175.807 259.42 175.51 259.68 175.213C260.163 175.139 260.626 175.009 261.072 174.823C261.517 174.601 261.851 174.267 262.074 173.821C263.001 173.636 263.818 173.302 264.523 172.819C265.228 172.337 265.914 171.817 266.582 171.261C267.25 170.667 267.918 170.11 268.586 169.591C269.254 169.034 270.015 168.589 270.869 168.255C270.98 168.069 271.054 167.902 271.091 167.754C271.128 167.605 271.184 167.438 271.258 167.253C271.889 167.179 272.39 167.012 272.761 166.752C273.132 166.455 273.559 166.158 274.041 165.861C275.08 165.973 275.823 166.437 276.268 167.253Z" fill="#46FBFB"/>
<path d="M334.081 167.253C334.081 167.995 333.951 168.607 333.691 169.09C333.468 169.535 333.209 170.055 332.912 170.648C332.837 170.611 332.745 170.593 332.633 170.593C332.411 170.593 332.207 170.648 332.021 170.76C331.836 170.871 331.65 170.964 331.464 171.038C330.388 172.226 329.275 173.376 328.125 174.489C327.011 175.603 325.768 176.586 324.395 177.439C324.024 177.662 323.653 177.885 323.282 178.107C322.911 178.293 322.521 178.479 322.113 178.664C321.964 178.738 321.816 178.812 321.668 178.887C321.556 178.924 321.445 178.979 321.334 179.054C321.074 179.202 320.796 179.443 320.499 179.777C320.239 180.111 319.923 180.445 319.552 180.779C319.218 181.15 318.847 181.447 318.439 181.67C318.031 181.93 317.586 182.041 317.103 182.004C316.806 182.189 316.546 182.431 316.324 182.728C316.101 183.024 315.841 183.321 315.545 183.618C313.949 184.175 312.483 184.898 311.147 185.789C309.848 186.717 308.494 187.607 307.084 188.461C306.23 189.018 305.377 189.463 304.523 189.797C304.337 189.871 304.115 189.927 303.855 189.964C303.632 190.001 303.391 190.057 303.131 190.131C301.907 190.428 300.664 190.669 299.402 190.854C298.177 191.04 296.934 191.133 295.672 191.133C294.114 191.133 292.611 190.947 291.164 190.576C291.164 190.465 291.127 190.391 291.052 190.354C290.978 190.316 290.885 190.279 290.774 190.242C290.7 190.205 290.626 190.149 290.551 190.075C290.477 190.038 290.477 189.945 290.551 189.797C289.735 189.723 289.011 189.519 288.38 189.185C287.787 188.851 287.397 188.257 287.212 187.403C287.1 187.478 287.007 187.57 286.933 187.682C286.859 187.793 286.729 187.83 286.544 187.793C286.024 187.051 285.449 186.364 284.818 185.733C284.187 185.103 283.723 184.342 283.426 183.451C283.352 183.266 283.296 183.08 283.259 182.895C283.259 182.746 283.241 182.579 283.204 182.394C283.018 181.874 282.684 181.614 282.202 181.614C282.276 181.466 282.313 181.28 282.313 181.058C282.313 180.946 282.295 180.835 282.257 180.724C282.257 180.612 282.257 180.501 282.257 180.39C282.257 180.204 282.313 180.019 282.424 179.833C282.053 178.979 281.794 178.145 281.645 177.328C281.497 176.475 281.422 175.603 281.422 174.712C281.422 173.562 281.478 172.43 281.589 171.316C281.701 170.166 281.756 169.016 281.756 167.865C281.979 167.42 282.146 166.9 282.257 166.307C282.406 165.713 282.647 165.23 282.981 164.859C282.944 164.637 282.87 164.525 282.758 164.525C282.647 164.488 282.591 164.377 282.591 164.191C282.591 163.523 282.721 162.8 282.981 162.021C283.241 161.241 283.371 160.443 283.371 159.627C283.705 159.441 283.909 159.163 283.983 158.792C284.094 158.421 284.298 158.124 284.595 157.901V157.623C284.595 157.066 284.651 156.51 284.762 155.953C284.911 155.396 285.041 154.858 285.152 154.339C285.3 153.782 285.412 153.244 285.486 152.725C285.597 152.168 285.634 151.63 285.597 151.11C285.671 150.999 285.764 150.795 285.876 150.498C286.024 150.164 286.154 149.83 286.265 149.496C286.414 149.125 286.525 148.772 286.599 148.438C286.711 148.104 286.766 147.863 286.766 147.715C286.766 147.492 286.729 147.288 286.655 147.103C286.581 146.917 286.544 146.713 286.544 146.49C286.544 146.305 286.599 146.045 286.711 145.711C286.822 145.34 286.915 145.043 286.989 144.82C287.137 144.189 287.267 143.54 287.379 142.872C287.527 142.167 287.657 141.499 287.768 140.868C288.102 138.827 288.343 136.786 288.492 134.745C288.64 132.667 288.733 130.589 288.77 128.511C289.29 128.214 289.828 127.936 290.384 127.676C290.978 127.416 291.59 127.286 292.221 127.286C292.407 127.286 292.592 127.305 292.778 127.342C292.963 127.379 293.149 127.435 293.335 127.509C293.52 128.251 293.817 128.845 294.225 129.29C294.633 129.735 295.004 130.273 295.338 130.904C295.116 131.498 294.967 132.11 294.893 132.741L294.726 134.634C294.689 135.265 294.615 135.896 294.504 136.526C294.392 137.12 294.207 137.695 293.947 138.252C294.021 138.438 294.058 138.623 294.058 138.809V139.365C294.058 139.885 294.003 140.386 293.891 140.868C293.817 141.351 293.724 141.852 293.613 142.371C293.502 142.854 293.409 143.336 293.335 143.818C293.26 144.301 293.26 144.783 293.335 145.266C293.223 145.451 293.112 145.6 293.001 145.711C292.889 145.785 292.815 145.915 292.778 146.101L292.667 147.158C292.592 147.566 292.518 147.975 292.444 148.383C292.407 148.754 292.351 149.144 292.277 149.552C292.017 150.665 291.72 151.778 291.386 152.892C291.089 154.005 290.941 155.155 290.941 156.343V156.677C290.607 157.196 290.347 157.846 290.162 158.625C289.976 159.367 289.921 160.054 289.995 160.685C289.587 161.761 289.197 162.818 288.826 163.857C288.455 164.896 288.269 165.973 288.269 167.086C288.269 167.271 288.269 167.476 288.269 167.698C288.306 167.884 288.343 168.069 288.38 168.255C288.084 168.997 287.898 169.758 287.824 170.537C287.75 171.279 287.712 172.021 287.712 172.764C287.712 173.283 287.731 173.896 287.768 174.601C287.842 175.269 287.935 175.974 288.046 176.716C288.195 177.421 288.362 178.107 288.547 178.775C288.733 179.443 288.937 179.981 289.16 180.39C290.013 181.763 291.127 182.839 292.5 183.618C293.91 184.435 295.394 184.954 296.953 185.177C297.584 184.954 298.085 184.824 298.456 184.787C298.864 184.75 299.421 184.75 300.126 184.787C300.719 184.49 301.313 184.268 301.907 184.119C302.538 183.971 303.169 183.804 303.799 183.618C303.985 183.544 304.171 183.47 304.356 183.396C304.579 183.321 304.764 183.247 304.913 183.173C305.098 183.099 305.302 182.932 305.525 182.672C305.748 182.412 305.952 182.189 306.137 182.004C306.917 181.781 307.659 181.466 308.364 181.058C309.069 180.687 309.755 180.297 310.423 179.889L312.483 178.664C313.188 178.256 313.93 177.903 314.71 177.606C315.006 177.495 315.173 177.347 315.211 177.161C315.285 176.938 315.396 176.679 315.545 176.382C315.619 176.456 315.73 176.493 315.879 176.493C316.324 176.493 316.639 176.363 316.825 176.104C317.01 175.807 317.233 175.51 317.493 175.213C317.975 175.139 318.439 175.009 318.884 174.823C319.33 174.601 319.664 174.267 319.886 173.821C320.814 173.636 321.63 173.302 322.336 172.819C323.041 172.337 323.727 171.817 324.395 171.261C325.063 170.667 325.731 170.11 326.399 169.591C327.067 169.034 327.828 168.589 328.681 168.255C328.793 168.069 328.867 167.902 328.904 167.754C328.941 167.605 328.997 167.438 329.071 167.253C329.702 167.179 330.203 167.012 330.574 166.752C330.945 166.455 331.372 166.158 331.854 165.861C332.893 165.973 333.635 166.437 334.081 167.253Z" fill="#46FBFB"/>
<path d="M171.497 280.253C171.497 280.995 171.367 281.607 171.107 282.09C170.885 282.535 170.625 283.055 170.328 283.648C170.254 283.611 170.161 283.593 170.05 283.593C169.827 283.593 169.623 283.648 169.438 283.76C169.252 283.871 169.066 283.964 168.881 284.038C167.805 285.226 166.691 286.376 165.541 287.489C164.428 288.603 163.185 289.586 161.812 290.439C161.44 290.662 161.069 290.885 160.698 291.107C160.327 291.293 159.938 291.479 159.529 291.664C159.381 291.738 159.232 291.812 159.084 291.887C158.973 291.924 158.861 291.979 158.75 292.054C158.49 292.202 158.212 292.443 157.915 292.777C157.655 293.111 157.34 293.445 156.969 293.779C156.635 294.15 156.264 294.447 155.855 294.67C155.447 294.93 155.002 295.041 154.52 295.004C154.223 295.189 153.963 295.431 153.74 295.728C153.518 296.024 153.258 296.321 152.961 296.618C151.365 297.175 149.899 297.898 148.563 298.789C147.265 299.717 145.91 300.607 144.5 301.461C143.646 302.018 142.793 302.463 141.939 302.797C141.754 302.871 141.531 302.927 141.271 302.964C141.049 303.001 140.808 303.057 140.548 303.131C139.323 303.428 138.08 303.669 136.818 303.854C135.594 304.04 134.351 304.133 133.089 304.133C131.53 304.133 130.027 303.947 128.58 303.576C128.58 303.465 128.543 303.391 128.469 303.354C128.395 303.316 128.302 303.279 128.19 303.242C128.116 303.205 128.042 303.149 127.968 303.075C127.894 303.038 127.894 302.945 127.968 302.797C127.151 302.723 126.428 302.519 125.797 302.185C125.203 301.851 124.813 301.257 124.628 300.403C124.517 300.478 124.424 300.57 124.35 300.682C124.275 300.793 124.146 300.83 123.96 300.793C123.44 300.051 122.865 299.364 122.234 298.733C121.604 298.103 121.14 297.342 120.843 296.451C120.769 296.266 120.713 296.08 120.676 295.895C120.676 295.746 120.657 295.579 120.62 295.394C120.435 294.874 120.101 294.614 119.618 294.614C119.692 294.466 119.729 294.28 119.729 294.058C119.729 293.946 119.711 293.835 119.674 293.724C119.674 293.612 119.674 293.501 119.674 293.39C119.674 293.204 119.729 293.019 119.841 292.833C119.47 291.979 119.21 291.145 119.062 290.328C118.913 289.475 118.839 288.603 118.839 287.712C118.839 286.562 118.895 285.43 119.006 284.316C119.117 283.166 119.173 282.016 119.173 280.865C119.396 280.42 119.562 279.9 119.674 279.307C119.822 278.713 120.063 278.23 120.397 277.859C120.36 277.637 120.286 277.525 120.175 277.525C120.063 277.488 120.008 277.377 120.008 277.191C120.008 276.523 120.138 275.8 120.397 275.021C120.657 274.241 120.787 273.443 120.787 272.627C121.121 272.441 121.325 272.163 121.399 271.792C121.511 271.421 121.715 271.124 122.012 270.901V270.623C122.012 270.066 122.067 269.51 122.179 268.953C122.327 268.396 122.457 267.858 122.568 267.339C122.717 266.782 122.828 266.244 122.902 265.725C123.014 265.168 123.051 264.63 123.014 264.11C123.088 263.999 123.181 263.795 123.292 263.498C123.44 263.164 123.57 262.83 123.682 262.496C123.83 262.125 123.941 261.772 124.016 261.438C124.127 261.104 124.183 260.863 124.183 260.715C124.183 260.492 124.146 260.288 124.071 260.103C123.997 259.917 123.96 259.713 123.96 259.49C123.96 259.305 124.016 259.045 124.127 258.711C124.238 258.34 124.331 258.043 124.405 257.82C124.554 257.189 124.684 256.54 124.795 255.872C124.943 255.167 125.073 254.499 125.185 253.868C125.519 251.827 125.76 249.786 125.908 247.745C126.057 245.667 126.149 243.589 126.187 241.511C126.706 241.214 127.244 240.936 127.801 240.676C128.395 240.416 129.007 240.286 129.638 240.286C129.823 240.286 130.009 240.305 130.194 240.342C130.38 240.379 130.565 240.435 130.751 240.509C130.937 241.251 131.233 241.845 131.642 242.29C132.05 242.735 132.421 243.273 132.755 243.904C132.532 244.498 132.384 245.11 132.31 245.741L132.143 247.634C132.105 248.265 132.031 248.896 131.92 249.526C131.809 250.12 131.623 250.695 131.363 251.252C131.438 251.438 131.475 251.623 131.475 251.809V252.365C131.475 252.885 131.419 253.386 131.308 253.868C131.233 254.351 131.141 254.852 131.029 255.371C130.918 255.854 130.825 256.336 130.751 256.818C130.677 257.301 130.677 257.783 130.751 258.266C130.64 258.451 130.528 258.6 130.417 258.711C130.306 258.785 130.231 258.915 130.194 259.101L130.083 260.158C130.009 260.566 129.935 260.975 129.86 261.383C129.823 261.754 129.768 262.144 129.693 262.552C129.434 263.665 129.137 264.778 128.803 265.892C128.506 267.005 128.357 268.155 128.357 269.343V269.677C128.023 270.196 127.764 270.846 127.578 271.625C127.393 272.367 127.337 273.054 127.411 273.685C127.003 274.761 126.613 275.818 126.242 276.857C125.871 277.896 125.686 278.973 125.686 280.086C125.686 280.271 125.686 280.476 125.686 280.698C125.723 280.884 125.76 281.069 125.797 281.255C125.5 281.997 125.314 282.758 125.24 283.537C125.166 284.279 125.129 285.021 125.129 285.764C125.129 286.283 125.147 286.896 125.185 287.601C125.259 288.269 125.352 288.974 125.463 289.716C125.611 290.421 125.778 291.107 125.964 291.775C126.149 292.443 126.354 292.981 126.576 293.39C127.43 294.763 128.543 295.839 129.916 296.618C131.326 297.435 132.811 297.954 134.369 298.177C135 297.954 135.501 297.824 135.872 297.787C136.28 297.75 136.837 297.75 137.542 297.787C138.136 297.49 138.729 297.268 139.323 297.119C139.954 296.971 140.585 296.804 141.216 296.618C141.401 296.544 141.587 296.47 141.772 296.396C141.995 296.321 142.181 296.247 142.329 296.173C142.515 296.099 142.719 295.932 142.941 295.672C143.164 295.412 143.368 295.189 143.554 295.004C144.333 294.781 145.075 294.466 145.78 294.058C146.485 293.687 147.172 293.297 147.84 292.889L149.899 291.664C150.604 291.256 151.347 290.903 152.126 290.606C152.423 290.495 152.59 290.347 152.627 290.161C152.701 289.938 152.812 289.679 152.961 289.382C153.035 289.456 153.146 289.493 153.295 289.493C153.74 289.493 154.056 289.363 154.241 289.104C154.427 288.807 154.649 288.51 154.909 288.213C155.392 288.139 155.855 288.009 156.301 287.823C156.746 287.601 157.08 287.267 157.303 286.821C158.23 286.636 159.047 286.302 159.752 285.819C160.457 285.337 161.144 284.817 161.812 284.261C162.479 283.667 163.147 283.11 163.815 282.591C164.483 282.034 165.244 281.589 166.098 281.255C166.209 281.069 166.283 280.902 166.32 280.754C166.357 280.605 166.413 280.438 166.487 280.253C167.118 280.179 167.619 280.012 167.99 279.752C168.361 279.455 168.788 279.158 169.271 278.861C170.31 278.973 171.052 279.437 171.497 280.253Z" fill="#46FBFB"/>
<path d="M221.016 299.624C221.016 300.069 220.886 300.44 220.626 300.737C220.366 301.071 220.051 301.331 219.68 301.517C219.309 301.739 218.919 301.925 218.511 302.073C218.103 302.259 217.75 302.444 217.453 302.63C216.6 302.444 215.709 302.277 214.781 302.129C213.854 302.018 213.019 301.776 212.277 301.405C210.755 299.735 209.679 297.806 209.048 295.616C208.454 293.464 208.065 291.312 207.879 289.159C207.805 288.528 207.768 287.916 207.768 287.322C207.768 286.691 207.731 286.061 207.656 285.43C207.582 284.873 207.248 284.539 206.654 284.428C207.1 284.354 207.415 284.131 207.601 283.76C207.786 283.352 207.898 282.906 207.935 282.424C207.972 281.904 207.972 281.403 207.935 280.921C207.935 280.401 207.972 279.975 208.046 279.641C207.749 279.752 207.489 280.012 207.267 280.42C207.044 280.791 206.84 281.218 206.654 281.7C206.469 282.183 206.283 282.665 206.098 283.147C205.949 283.593 205.801 283.945 205.653 284.205C204.094 286.877 202.276 289.308 200.197 291.497C198.156 293.687 196.041 295.857 193.852 298.01C193.221 298.232 192.627 298.511 192.071 298.845C191.514 299.216 190.994 299.605 190.512 300.014C189.102 300.422 187.766 300.626 186.504 300.626C185.354 300.626 184.222 300.459 183.109 300.125C181.995 299.828 180.993 299.309 180.103 298.566L178.043 293.891C177.932 293.594 177.802 293.297 177.654 293C177.505 292.666 177.394 292.351 177.32 292.054C177.245 291.72 177.208 291.367 177.208 290.996C177.245 290.588 177.264 290.235 177.264 289.938C177.264 288.64 177.301 287.341 177.375 286.042C177.487 284.706 177.635 283.389 177.821 282.09C177.895 281.57 178.006 281.032 178.154 280.476C178.303 279.919 178.414 279.381 178.488 278.861V278.249C178.488 278.063 178.47 277.841 178.433 277.581C178.396 277.284 178.284 277.099 178.099 277.024C178.989 274.872 179.435 272.627 179.435 270.289C179.435 269.918 179.416 269.565 179.379 269.231C179.379 268.86 179.361 268.489 179.323 268.118C179.583 267.858 179.75 267.562 179.824 267.228C179.899 266.856 179.936 266.485 179.936 266.114C179.936 265.706 179.936 265.316 179.936 264.945C179.973 264.574 180.084 264.222 180.27 263.888C180.233 263.479 180.196 263.09 180.158 262.719C180.158 262.311 180.158 261.902 180.158 261.494C180.158 259.008 180.344 256.559 180.715 254.146C181.123 251.697 181.327 249.229 181.327 246.743V244.405C181.327 243.886 181.327 243.348 181.327 242.791C181.364 242.234 181.439 241.696 181.55 241.177C181.698 240.657 181.903 240.175 182.162 239.729C182.422 239.247 182.793 238.839 183.276 238.505C183.35 238.505 183.405 238.505 183.443 238.505C183.517 238.468 183.591 238.449 183.665 238.449C183.999 238.449 184.259 238.542 184.445 238.728C184.63 238.876 184.908 238.932 185.279 238.895C185.947 239.859 186.467 240.88 186.838 241.956C187.246 243.032 187.45 244.164 187.45 245.352C187.45 246.242 187.321 247.114 187.061 247.968C186.801 248.821 186.671 249.712 186.671 250.64C186.671 251.011 186.69 251.382 186.727 251.753C186.764 252.124 186.782 252.495 186.782 252.866C186.782 253.237 186.727 253.608 186.615 253.979C186.541 254.313 186.374 254.61 186.114 254.87C186.189 255.612 186.244 256.373 186.281 257.152C186.319 257.895 186.337 258.637 186.337 259.379C186.337 261.494 186.207 263.609 185.947 265.725C185.688 267.84 185.391 269.955 185.057 272.07C184.723 274.186 184.426 276.301 184.166 278.416C183.906 280.531 183.777 282.665 183.777 284.817V286.432C183.777 286.951 183.814 287.489 183.888 288.046C183.665 288.565 183.554 289.122 183.554 289.716C183.554 290.532 183.739 291.33 184.111 292.109C184.482 292.889 184.927 293.594 185.446 294.225C185.632 294.262 185.799 294.28 185.947 294.28C186.133 294.317 186.319 294.336 186.504 294.336C187.469 294.336 188.322 294.132 189.065 293.724C189.844 293.315 190.568 292.814 191.236 292.221C191.941 291.627 192.627 291.015 193.295 290.384C193.963 289.753 194.687 289.233 195.466 288.825C196.654 287.304 197.767 285.782 198.806 284.261C199.845 282.702 200.847 281.088 201.812 279.418C201.886 278.527 202.109 277.637 202.48 276.746C202.888 275.818 203.296 274.909 203.704 274.019C204.15 273.128 204.539 272.256 204.873 271.402C205.244 270.549 205.43 269.732 205.43 268.953C205.43 268.545 205.3 268.267 205.04 268.118C205.411 267.153 205.69 266.151 205.875 265.112C206.061 264.073 206.209 263.034 206.321 261.995C206.469 260.956 206.617 259.936 206.766 258.934C206.914 257.895 207.137 256.874 207.434 255.872C207.434 255.649 207.415 255.427 207.378 255.204C207.378 254.981 207.378 254.759 207.378 254.536C207.378 252.829 207.545 251.159 207.879 249.526C208.213 247.856 208.38 246.168 208.38 244.461C208.38 244.053 208.343 243.682 208.269 243.348C208.232 242.977 208.213 242.624 208.213 242.29C208.213 241.993 208.306 241.808 208.491 241.733C208.714 241.659 208.825 241.455 208.825 241.121C208.825 240.824 208.788 240.509 208.714 240.175C208.677 239.841 208.658 239.488 208.658 239.117C208.658 237.967 208.77 236.835 208.992 235.722C209.215 234.608 209.326 233.477 209.326 232.326V231.658C209.326 231.398 209.289 231.157 209.215 230.935C209.475 230.526 209.827 230.267 210.273 230.155C210.718 230.007 211.145 229.933 211.553 229.933C212.221 229.933 212.778 230.007 213.223 230.155C213.928 232.048 214.522 233.996 215.004 236C215.487 237.967 215.876 239.971 216.173 242.012C216.247 242.494 216.34 243.014 216.451 243.57C216.6 244.09 216.674 244.609 216.674 245.129C216.674 245.24 216.637 245.37 216.563 245.519C216.526 245.667 216.488 245.815 216.451 245.964C216.414 246.261 216.377 246.558 216.34 246.854C216.34 247.151 216.34 247.448 216.34 247.745C216.34 248.636 216.396 249.526 216.507 250.417C216.618 251.308 216.674 252.217 216.674 253.145C216.674 254.184 216.526 255.186 216.229 256.15C215.969 257.078 215.765 258.062 215.616 259.101C215.468 260.177 215.412 261.234 215.449 262.273C215.487 263.312 215.412 264.37 215.227 265.446C215.153 265.892 215.041 266.337 214.893 266.782C214.744 267.19 214.67 267.636 214.67 268.118C214.67 268.452 214.689 268.786 214.726 269.12C214.8 269.454 214.837 269.807 214.837 270.178C214.837 270.734 214.707 271.161 214.447 271.458C214.522 271.755 214.577 272.033 214.614 272.293C214.652 272.516 214.726 272.775 214.837 273.072C214.652 273.295 214.522 273.536 214.447 273.796C214.373 274.056 214.336 274.334 214.336 274.631C214.336 275.002 214.355 275.354 214.392 275.688C214.429 275.985 214.447 276.301 214.447 276.635C214.447 277.414 214.318 278.156 214.058 278.861C213.835 279.566 213.687 280.29 213.613 281.032C213.575 281.552 213.557 282.071 213.557 282.591C213.594 283.073 213.613 283.574 213.613 284.094C213.613 284.65 213.575 285.188 213.501 285.708C213.464 286.228 213.316 286.747 213.056 287.267C213.13 287.489 213.223 287.712 213.334 287.935C213.446 288.157 213.613 288.324 213.835 288.436C213.835 289.586 213.984 290.755 214.28 291.942C214.614 293.093 215.06 294.188 215.616 295.227C215.728 295.449 215.895 295.616 216.117 295.728C216.34 295.839 216.544 295.95 216.73 296.062C216.915 296.21 217.064 296.377 217.175 296.562C217.286 296.748 217.305 297.026 217.231 297.397C217.305 297.435 217.416 297.453 217.565 297.453C217.862 297.453 218.103 297.379 218.288 297.23C218.511 297.082 218.771 297.008 219.068 297.008H219.457C219.791 297.342 220.125 297.731 220.459 298.177C220.83 298.622 221.016 299.104 221.016 299.624Z" fill="#46FBFB"/>
<path d="M292.633 260.325C292.633 260.919 292.522 261.531 292.299 262.162C292.114 262.793 291.872 263.368 291.576 263.888C291.093 263.962 290.648 264.129 290.24 264.389C289.869 264.648 289.572 264.815 289.349 264.89C288.867 264.964 288.291 265.001 287.623 265.001C286.993 264.964 286.417 264.964 285.898 265.001C284.896 265.075 283.894 265.187 282.892 265.335C281.927 265.483 280.962 265.669 279.997 265.892C279.923 265.892 279.849 265.91 279.775 265.947C279.701 265.947 279.663 265.984 279.663 266.059C279.663 266.133 279.682 266.207 279.719 266.281C279.756 266.355 279.775 266.43 279.775 266.504C279.775 266.615 279.663 266.671 279.441 266.671C279.033 266.671 278.754 266.541 278.606 266.281C277.418 266.578 276.231 266.894 275.043 267.228C273.856 267.524 272.668 267.821 271.481 268.118C270.887 268.229 270.293 268.341 269.7 268.452C269.143 268.563 268.568 268.712 267.974 268.897C267.677 268.972 267.38 269.102 267.083 269.287L266.193 269.844C266.007 269.807 265.84 269.788 265.692 269.788C265.543 269.751 265.395 269.732 265.246 269.732C264.616 269.732 263.948 269.862 263.243 270.122C262.538 270.345 261.925 270.66 261.406 271.068H261.016C260.645 271.068 260.385 271.013 260.237 270.901C259.903 270.864 259.699 270.976 259.624 271.235C259.55 271.458 259.42 271.662 259.235 271.848C257.973 271.959 256.73 272.182 255.505 272.516C254.281 272.85 253.075 273.221 251.887 273.629C250.7 274 249.494 274.39 248.269 274.798C247.081 275.169 245.875 275.466 244.651 275.688C244.502 276.431 244.428 277.284 244.428 278.249C244.428 278.991 244.484 279.845 244.595 280.81C244.744 281.774 245.04 282.591 245.486 283.259V283.37C245.486 283.556 245.412 283.686 245.263 283.76C245.115 283.834 245.04 283.964 245.04 284.149C245.04 285.114 245.133 286.023 245.319 286.877C245.541 287.73 245.764 288.565 245.987 289.382C246.209 290.198 246.413 291.015 246.599 291.831C246.822 292.647 246.933 293.482 246.933 294.336C246.933 294.559 246.914 294.763 246.877 294.948C246.877 295.171 246.859 295.394 246.822 295.616C246.933 295.95 247.119 296.229 247.378 296.451C247.638 296.674 247.861 296.934 248.046 297.23C248.083 297.416 248.102 297.583 248.102 297.731V298.288C248.102 298.919 248.028 299.476 247.879 299.958C247.731 300.44 247.545 300.886 247.323 301.294C247.1 301.739 246.859 302.166 246.599 302.574C246.339 303.02 246.098 303.502 245.875 304.021C245.504 304.096 245.207 304.133 244.985 304.133C244.428 304.133 243.964 303.984 243.593 303.688C243.259 303.391 242.962 303.02 242.703 302.574C242.443 302.166 242.183 301.739 241.923 301.294C241.701 300.849 241.422 300.478 241.088 300.181C241.125 299.995 241.144 299.828 241.144 299.68C241.181 299.531 241.2 299.364 241.2 299.179C241.2 298.437 241.07 297.713 240.81 297.008C240.587 296.303 240.328 295.635 240.031 295.004C239.994 293.742 239.864 292.499 239.641 291.274C239.418 290.05 239.103 288.844 238.695 287.656C238.769 287.211 238.825 286.784 238.862 286.376C238.899 285.931 238.917 285.504 238.917 285.096C238.917 284.02 238.862 282.943 238.75 281.867C238.639 280.791 238.621 279.715 238.695 278.639C238.583 278.453 238.472 278.305 238.361 278.193C238.249 278.045 238.157 277.878 238.082 277.692H237.86C237.303 277.692 236.765 277.748 236.246 277.859C235.726 277.934 235.206 277.971 234.687 277.971C234.501 277.971 234.334 277.971 234.186 277.971C234.037 277.934 233.871 277.896 233.685 277.859C233.277 277.451 232.961 276.987 232.739 276.468C232.516 275.948 232.405 275.41 232.405 274.854C232.405 274.037 232.627 273.295 233.073 272.627C234 272.404 234.91 272.145 235.8 271.848C236.728 271.514 237.619 271.124 238.472 270.679C238.583 270.122 238.639 269.565 238.639 269.009C238.676 268.452 238.88 267.933 239.251 267.45C239.14 267.153 238.954 266.894 238.695 266.671C238.472 266.411 238.361 266.114 238.361 265.78C238.361 265.595 238.398 265.354 238.472 265.057C238.843 264.648 239.103 264.129 239.251 263.498C239.4 262.867 239.53 262.199 239.641 261.494C239.752 260.789 239.864 260.084 239.975 259.379C240.123 258.674 240.365 258.043 240.699 257.486C240.624 257.189 240.569 256.874 240.532 256.54C240.495 256.169 240.476 255.835 240.476 255.538C240.476 255.093 240.495 254.647 240.532 254.202C240.606 253.72 240.717 253.274 240.866 252.866C240.457 252.384 240.123 251.827 239.864 251.196C239.604 250.528 239.474 249.879 239.474 249.248C239.474 248.023 240.068 247.244 241.255 246.91C241.218 246.762 241.181 246.632 241.144 246.521C241.144 246.409 241.144 246.298 241.144 246.187C241.144 245.853 241.237 245.537 241.422 245.24C241.608 244.943 241.756 244.646 241.868 244.35C241.682 243.867 241.589 243.459 241.589 243.125C241.589 242.828 241.645 242.568 241.756 242.346C241.868 242.086 241.96 241.808 242.035 241.511C242.146 241.14 242.22 240.806 242.257 240.509C242.331 240.212 242.443 239.952 242.591 239.729C242.74 239.507 242.925 239.34 243.148 239.229C243.408 239.117 243.797 239.062 244.317 239.062C245.133 239.062 245.913 239.321 246.655 239.841C247.434 240.323 248.028 240.88 248.436 241.511C248.844 241.474 249.197 241.399 249.494 241.288C249.828 241.14 250.124 241.01 250.384 240.898C250.681 240.787 250.978 240.694 251.275 240.62C251.609 240.509 251.998 240.472 252.444 240.509C252.555 240.249 252.741 240.082 253 240.008C253.297 239.896 253.594 239.822 253.891 239.785C254.188 239.711 254.466 239.618 254.726 239.507C254.986 239.396 255.153 239.191 255.227 238.895C255.375 239.006 255.542 239.062 255.728 239.062C255.913 239.062 256.099 239.043 256.285 239.006C256.47 238.932 256.674 238.895 256.897 238.895C257.12 238.895 257.305 238.969 257.454 239.117C258.418 238.598 259.439 238.227 260.515 238.004C261.628 237.744 262.723 237.596 263.799 237.559C266.36 236.148 269.05 235.184 271.871 234.664C274.728 234.145 277.585 233.885 280.443 233.885C280.851 233.885 281.241 233.885 281.612 233.885C282.02 233.848 282.41 233.866 282.781 233.94C283.189 234.015 283.634 234.145 284.117 234.33C284.636 234.516 285.137 234.738 285.62 234.998C286.139 235.258 286.621 235.555 287.067 235.889C287.512 236.186 287.883 236.464 288.18 236.724C288.477 237.392 288.625 238.041 288.625 238.672C288.625 238.969 288.607 239.266 288.57 239.562C288.533 239.822 288.514 240.101 288.514 240.397C288.514 240.843 288.607 241.344 288.792 241.9C288.681 241.863 288.496 241.845 288.236 241.845C287.902 241.845 287.623 241.919 287.401 242.067C287.178 242.216 286.974 242.383 286.788 242.568C286.603 242.754 286.417 242.921 286.232 243.069C286.083 243.218 285.935 243.292 285.787 243.292C285.49 243.292 285.23 243.236 285.007 243.125C284.822 243.014 284.618 242.902 284.395 242.791C284.209 242.643 284.005 242.531 283.783 242.457C283.56 242.346 283.3 242.309 283.003 242.346V242.123C283.003 241.715 282.873 241.455 282.614 241.344C282.354 241.195 282.15 240.991 282.001 240.731C281.445 240.694 280.888 240.62 280.331 240.509C279.812 240.397 279.274 240.342 278.717 240.342C277.975 240.342 277.4 240.602 276.992 241.121C276.806 241.047 276.639 240.954 276.491 240.843C276.379 240.731 276.212 240.694 275.99 240.731H275.823C273.819 240.731 271.852 240.954 269.922 241.399C267.993 241.808 266.081 242.327 264.189 242.958C262.296 243.552 260.404 244.201 258.511 244.906C256.619 245.611 254.726 246.224 252.833 246.743C252.388 247.337 251.924 247.782 251.442 248.079C250.959 248.339 250.477 248.562 249.995 248.747C249.549 248.933 249.104 249.118 248.659 249.304C248.213 249.489 247.824 249.786 247.49 250.194C247.193 250.603 246.952 251.178 246.766 251.92C246.618 252.625 246.58 253.608 246.655 254.87C246.469 255.093 246.358 255.334 246.321 255.594C246.284 255.854 246.246 256.113 246.209 256.373C246.172 256.596 246.117 256.818 246.042 257.041C245.968 257.264 245.838 257.468 245.653 257.653C245.727 258.024 245.783 258.396 245.82 258.767C245.857 259.138 245.875 259.509 245.875 259.88C245.875 261.438 245.616 262.96 245.096 264.444C245.282 264.741 245.374 265.075 245.374 265.446C245.374 265.854 245.319 266.226 245.207 266.56C245.096 266.894 245.04 267.265 245.04 267.673C245.04 268.081 245.115 268.415 245.263 268.675C245.486 268.675 245.616 268.749 245.653 268.897H245.987C246.655 268.897 247.23 268.73 247.712 268.396C248.195 268.062 248.714 267.896 249.271 267.896C249.382 267.896 249.512 267.933 249.661 268.007C249.809 268.081 249.939 268.118 250.05 268.118C250.31 268.118 250.421 268.025 250.384 267.84C250.347 267.654 250.44 267.524 250.663 267.45L252.666 267.116C253.928 266.894 255.116 266.634 256.229 266.337C257.379 266.003 258.511 265.521 259.624 264.89C259.884 265.001 260.181 265.057 260.515 265.057C260.812 265.057 261.127 265.02 261.461 264.945C261.795 264.834 262.111 264.778 262.408 264.778C262.667 264.778 262.871 264.815 263.02 264.89C263.243 264.741 263.521 264.63 263.855 264.556C264.189 264.444 264.374 264.222 264.412 263.888H264.523C264.671 263.888 264.783 263.925 264.857 263.999C264.931 264.073 265.042 264.11 265.191 264.11H265.413C266.193 263.739 266.898 263.461 267.529 263.275C268.568 263.016 269.681 262.793 270.869 262.607C272.056 262.385 273.114 262.014 274.041 261.494C275.118 261.494 276.157 261.327 277.159 260.993C278.198 260.622 279.237 260.437 280.276 260.437C280.758 260.437 281.204 260.511 281.612 260.659C281.983 260.399 282.41 260.214 282.892 260.103C283.412 259.991 283.838 259.787 284.172 259.49C284.395 259.527 284.618 259.564 284.84 259.602C285.1 259.602 285.36 259.602 285.62 259.602C286.733 259.602 287.79 259.453 288.792 259.156C289.831 258.822 290.889 258.581 291.965 258.433C292.225 258.729 292.392 259.045 292.466 259.379C292.578 259.676 292.633 259.991 292.633 260.325Z" fill="#46FBFB"/>
<path d="M345.213 239.952C344.917 240.138 344.601 240.249 344.267 240.286C343.933 240.323 343.581 240.379 343.21 240.453C342.876 240.49 342.56 240.564 342.263 240.676C341.966 240.787 341.744 240.991 341.595 241.288C341.224 240.917 340.816 240.602 340.371 240.342C339.925 240.082 339.48 239.804 339.035 239.507C338.664 239.618 338.293 239.767 337.921 239.952C337.55 240.138 337.179 240.23 336.808 240.23C336.548 240.23 336.289 240.138 336.029 239.952C335.732 240.175 335.379 240.36 334.971 240.509C334.6 240.62 334.192 240.731 333.747 240.843C333.338 240.954 332.949 241.103 332.578 241.288C332.244 241.474 332.003 241.752 331.854 242.123C331.78 241.938 331.594 241.882 331.297 241.956C331.038 242.03 330.889 241.938 330.852 241.678C329.665 242.086 328.459 242.438 327.234 242.735C326.009 243.032 324.785 243.348 323.56 243.682C322.336 244.016 321.129 244.387 319.942 244.795C318.754 245.203 317.604 245.704 316.491 246.298C316.454 246.335 316.435 246.391 316.435 246.465C316.435 246.836 316.491 247.188 316.602 247.522C316.713 247.856 316.806 248.172 316.88 248.469C316.212 250.732 315.767 253.033 315.545 255.371C315.322 257.709 315.025 260.01 314.654 262.273V262.496C314.654 262.682 314.728 262.83 314.877 262.941C315.025 263.016 315.099 263.164 315.099 263.387L315.044 263.498C314.858 263.609 314.728 263.776 314.654 263.999C314.58 264.185 314.543 264.389 314.543 264.611C314.543 264.76 314.58 264.982 314.654 265.279C314.023 267.395 313.596 269.547 313.374 271.736C313.188 273.926 312.947 276.115 312.65 278.305L312.149 281.979C312.075 282.201 312.001 282.424 311.926 282.646C311.889 282.832 311.871 283.036 311.871 283.259C311.871 284.446 311.945 285.615 312.093 286.766C312.279 287.879 312.335 289.029 312.26 290.217C312.594 290.736 312.761 291.237 312.761 291.72C312.761 291.905 312.743 292.091 312.706 292.276C312.706 292.462 312.687 292.647 312.65 292.833C313.132 293.315 313.689 293.649 314.32 293.835C314.988 294.058 315.582 294.392 316.101 294.837V295.06C316.101 295.431 316.046 295.783 315.934 296.117C315.823 296.488 315.73 296.859 315.656 297.23C315.582 297.527 315.489 297.954 315.378 298.511C315.303 299.067 315.192 299.438 315.044 299.624C314.858 299.884 314.58 300.106 314.209 300.292C313.875 300.515 313.541 300.626 313.207 300.626C313.095 300.626 312.928 300.57 312.706 300.459C312.52 300.348 312.372 300.255 312.26 300.181C312.075 300.181 311.834 300.273 311.537 300.459C311.24 300.645 310.943 300.737 310.646 300.737C310.498 300.737 310.368 300.719 310.256 300.682C310.145 300.682 310.015 300.645 309.867 300.57C309.718 300.199 309.496 299.865 309.199 299.568C308.939 299.309 308.624 299.049 308.253 298.789C308.29 298.27 308.197 297.88 307.974 297.62C307.752 297.36 307.529 297.026 307.306 296.618C307.232 296.099 307.158 295.505 307.084 294.837C307.046 294.169 306.768 293.687 306.249 293.39C306.434 293.13 306.527 292.777 306.527 292.332C306.527 292.146 306.49 291.942 306.416 291.72C306.379 291.497 306.267 291.33 306.082 291.219V291.107C306.045 290.922 306.1 290.792 306.249 290.718C306.434 290.606 306.527 290.458 306.527 290.272V290.05C306.267 288.862 306.137 287.619 306.137 286.32C306.137 285.096 306.174 283.89 306.249 282.702C306.323 281.478 306.323 280.253 306.249 279.028C306.471 278.843 306.638 278.546 306.75 278.138C306.898 277.729 307.009 277.284 307.084 276.802C307.158 276.319 307.195 275.855 307.195 275.41C307.232 274.928 307.269 274.538 307.306 274.241C307.492 272.126 307.789 270.048 308.197 268.007C308.605 265.929 308.846 263.813 308.921 261.661C309.106 261.364 309.217 260.975 309.254 260.492C309.292 260.01 309.31 259.509 309.31 258.989C309.31 258.433 309.347 257.895 309.421 257.375C309.496 256.855 309.644 256.41 309.867 256.039C309.867 255 309.96 253.961 310.145 252.922C310.331 251.846 310.423 250.77 310.423 249.693C310.423 249.174 310.368 248.636 310.256 248.079C309.885 247.931 309.551 247.856 309.254 247.856C308.846 247.856 308.42 247.949 307.974 248.135C307.566 248.283 307.269 248.524 307.084 248.858C306.267 248.896 305.469 249.025 304.69 249.248C303.911 249.471 303.131 249.582 302.352 249.582H301.796C301.647 249.582 301.48 249.563 301.295 249.526C301.035 249.638 300.756 249.73 300.46 249.805C300.2 249.879 300.088 250.102 300.126 250.473C298.975 250.584 297.843 250.825 296.73 251.196C295.654 251.567 294.578 251.976 293.502 252.421C292.425 252.829 291.349 253.219 290.273 253.59C289.16 253.961 288.028 254.202 286.878 254.313C286.469 254.499 286.21 254.889 286.098 255.482C285.282 255.408 284.595 255.204 284.039 254.87C283.482 254.536 282.833 254.221 282.09 253.924C281.868 253.145 281.756 252.402 281.756 251.697C281.756 250.77 281.942 249.879 282.313 249.025C282.684 248.172 283.278 247.541 284.094 247.133C284.28 247.17 284.447 247.207 284.595 247.244C284.744 247.244 284.911 247.244 285.096 247.244C285.69 247.244 286.284 247.133 286.878 246.91C287.471 246.688 288.084 246.576 288.714 246.576C288.9 246.576 289.104 246.632 289.327 246.743C289.587 246.595 289.921 246.483 290.329 246.409C290.7 246.298 291.052 246.205 291.386 246.131C291.757 246.02 292.091 245.871 292.388 245.686C292.685 245.5 292.871 245.24 292.945 244.906C293.13 245.055 293.335 245.147 293.557 245.185C293.78 245.222 294.003 245.24 294.225 245.24C294.708 245.24 295.209 245.147 295.728 244.962C296.248 244.776 296.656 244.479 296.953 244.071C297.212 244.368 297.584 244.517 298.066 244.517C298.586 244.517 299.087 244.387 299.569 244.127C300.088 243.83 300.589 243.682 301.072 243.682C301.443 243.682 301.721 243.812 301.907 244.071C302.315 243.737 302.797 243.478 303.354 243.292C303.911 243.106 304.467 242.939 305.024 242.791C305.618 242.643 306.156 242.476 306.638 242.29C307.158 242.104 307.566 241.845 307.863 241.511C308.048 241.548 308.345 241.566 308.754 241.566C309.384 241.566 309.978 241.492 310.535 241.344C311.129 241.158 311.722 240.991 312.316 240.843L313.485 240.731C313.782 240.694 314.042 240.602 314.264 240.453C314.524 240.305 314.784 240.175 315.044 240.063C315.303 239.952 315.563 239.859 315.823 239.785C316.12 239.711 316.472 239.692 316.88 239.729C317.771 239.247 318.717 238.876 319.719 238.616C320.721 238.356 321.742 238.134 322.781 237.948C323.82 237.726 324.84 237.484 325.842 237.225C326.844 236.928 327.791 236.501 328.681 235.944H328.848C329.59 235.944 330.314 235.814 331.019 235.555C331.761 235.295 332.448 234.942 333.079 234.497C333.19 234.534 333.301 234.553 333.413 234.553H333.802C334.841 234.553 335.843 234.404 336.808 234.107C337.81 233.811 338.849 233.662 339.925 233.662C340.556 233.662 341.057 233.755 341.428 233.94C341.799 234.089 342.133 234.293 342.43 234.553C342.727 234.775 343.043 234.998 343.377 235.221C343.711 235.443 344.137 235.61 344.657 235.722C344.991 236.353 345.158 237.039 345.158 237.781C345.158 238.486 345.176 239.21 345.213 239.952Z" fill="#46FBFB"/>
</svg>
